<svg xmlns="http://www.w3.org/2000/svg" viewBox="0 0 1920 1280"><path d="M935.0 226.6C931.4 227.29999999999998 924.8 229.79999999999998 920.4 232.0C906.0 239.1 896.6999999999999 251.7 893.5 268.4C891.8 277.5 891.6 285.59999999999997 893.0 293.0C893.9 297.8 893.8 298.4 892.0 299.7C889.1 301.7 889.3 310.7 892.5 320.7C895.6 330.5 898.3 334.9 902.0 336.3C904.3 337.2 905.1 338.2 905.6 341.0C906.6 347.4 909.1 354.0 911.6 356.9C913.8000000000001 359.5 914.0 360.7 914.0 369.9C914.0 389.79999999999995 910.4 394.2 882.8 408.2C860.3 419.59999999999997 855.0999999999999 421.7 843.0 424.0C825.0 427.4 816.0 431.9 807.0 441.7C793.6 456.3 787.6 479.7 789.7 509.5L790.7 524.5L787.8000000000001 531.5C779.9000000000001 550.0 776.4000000000001 564.3 773.5000000000001 589.5C771.5000000000001 607.7 770.3000000000001 610.8 761.2000000000002 623.1C747.3000000000002 641.9 743.8000000000002 649.5 736.6000000000001 676.8000000000001C729.3000000000002 704.2 721.3000000000002 726.7 712.5000000000001 744.1C709.2000000000002 750.5 706.6000000000001 752.9 697.6000000000001 757.9C689.2000000000002 762.5 682.1000000000001 769.8 676.5000000000001 779.4C674.3000000000001 783.1 669.6000000000001 789.9 665.9000000000001 794.4C659.0000000000001 803.0 658.0000000000001 806.1 661.5000000000001 808.6C665.6000000000001 811.7 671.2000000000002 809.9 677.6000000000001 803.5C680.1000000000001 800.9 682.3000000000002 799.0 682.5000000000001 799.2C683.1000000000001 799.9000000000001 675.0000000000001 819.1 668.6000000000001 832.2C660.8000000000002 848.1 659.7000000000002 852.7 663.0000000000001 856.0C664.5000000000001 857.5 665.9000000000001 858.0 667.6000000000001 857.6C669.8000000000002 857.0 669.9000000000001 857.2 669.4000000000001 859.9C668.1000000000001 866.1999999999999 673.9000000000001 869.9 679.2 866.0C681.4000000000001 864.4 682.4000000000001 864.2 683.9000000000001 865.0C687.7 867.0 691.1000000000001 866.1 694.8000000000001 862.3C697.9000000000001 859.0999999999999 699.2 858.5999999999999 702.9000000000001 858.5C707.1000000000001 858.5 707.7 858.2 711.9000000000001 852.9C716.0000000000001 847.9 720.9000000000001 839.9 733.7 817.5C739.3000000000001 807.9 742.9000000000001 795.5 744.1 782.7C744.6 776.6 745.5 769.5 746.1 767.0C747.9 759.0 764.8000000000001 730.8 780.3000000000001 710.1C795.8000000000001 689.5 801.7 679.7 807.6 665.3000000000001C811.4 656.0000000000001 813.3000000000001 649.4000000000001 814.5 642.0000000000001C816.9 627.1000000000001 820.2 617.1000000000001 828.1 601.8000000000001C836.8000000000001 584.5000000000001 842.0 571.2 844.4 560.1C845.1999999999999 556.1 846.0 552.6 846.3 552.4C846.5 552.1999999999999 847.1999999999999 553.9 847.9 556.1999999999999C848.6 558.5999999999999 852.0 568.5999999999999 855.5 578.4999999999999C864.4 603.7999999999998 866.4 613.7999999999998 866.4 632.4999999999999C866.4 645.4999999999999 866.0 649.4999999999999 863.1999999999999 662.4999999999999C861.4999999999999 670.7999999999998 857.4999999999999 684.9999999999999 854.4 693.9999999999999C839.3 737.9999999999999 836.6 746.7999999999998 834.0 761.5999999999999C827.9 796.4999999999999 828.7 820.1999999999999 837.1 860.1999999999999C840.4 876.0999999999999 843.9 888.0999999999999 854.5 920.9999999999999C873.7 980.6999999999999 878.4 1006.0999999999999 874.6 1031.3C871.9 1049.6 872.6 1071.7 876.6 1089.5C878.4 1097.6 883.0 1112.3 883.6 1111.8C883.8000000000001 1111.5 882.9 1106.2 881.5 1099.8999999999999C876.4 1075.6 875.9 1056.6 879.6 1030.9999999999998C883.7 1002.1999999999998 878.7 976.9999999999998 852.6 895.9999999999998C846.3000000000001 876.3999999999997 845.3000000000001 872.9999999999998 841.9 856.9999999999998C834.8 823.3999999999997 834.0 790.1999999999998 839.5 760.9999999999998C841.7 749.4999999999998 844.3 740.3999999999997 852.1 717.4999999999998C863.6 683.3999999999997 864.8000000000001 679.3999999999997 868.0 664.6999999999998C873.2 641.1999999999998 873.1 623.7999999999998 867.9 602.4999999999998C866.8 598.0999999999998 862.4 583.8999999999997 858.0 570.9999999999998C851.3 551.1999999999998 849.3 543.3999999999997 844.9 521.1999999999998C842.0 506.79999999999984 839.5 495.1999999999998 839.3 495.3999999999998C839.0999999999999 495.5999999999998 839.5999999999999 501.8999999999998 840.5 509.49999999999983C842.3 525.4999999999998 842.4 543.1999999999998 840.9 551.5999999999998C838.1999999999999 566.5999999999998 832.1 583.1999999999998 822.9 600.7999999999998C816.0 613.9999999999999 813.8 619.5999999999998 811.5 629.9999999999999C806.8 651.8999999999999 804.9 658.2999999999998 799.6 669.9999999999999C796.5 676.8999999999999 791.3000000000001 686.1999999999999 788.2 690.5999999999999C785.1 695.0999999999999 777.6 705.8 771.5 714.3999999999999C759.5 731.3999999999999 748.7 748.7999999999998 743.8 758.9999999999999C741.0999999999999 764.4999999999999 740.5 767.1999999999999 739.9 776.3999999999999C738.3 797.2999999999998 736.9 801.4999999999999 723.0 826.7999999999998C710.0 850.0999999999998 706.7 854.9999999999999 703.3 854.9999999999999C701.0 854.9999999999999 701.9 852.4999999999999 708.4 839.8999999999999C711.9 833.0999999999999 715.1 826.3999999999999 715.5 825.1999999999998C716.7 820.9999999999998 712.9 823.0999999999998 710.3 827.9999999999998C701.4 844.8999999999997 695.5 855.1999999999998 692.9 858.2999999999997C689.9 861.9999999999998 686.0 863.2999999999997 686.0 860.6999999999997C686.0 859.8999999999997 690.0 851.2999999999997 695.0 841.3999999999997C699.9 831.5999999999998 704.0 822.8999999999997 704.0 822.1999999999997C704.0 821.3999999999997 703.2 820.9999999999997 702.3 821.1999999999997C701.3999999999999 821.3999999999997 698.5 825.5999999999997 695.6999999999999 830.9999999999997C680.9 859.4999999999997 677.0999999999999 865.1999999999997 674.4999999999999 862.9999999999997C673.6999999999999 862.2999999999996 672.9999999999999 861.1999999999997 672.9999999999999 860.5999999999997C672.9999999999999 859.9999999999997 677.4999999999999 850.1999999999997 683.0999999999999 838.6999999999997C692.3 819.8999999999997 693.8999999999999 814.9999999999997 691.0999999999999 814.9999999999997C690.5999999999999 814.9999999999997 686.1999999999999 822.6999999999997 681.3 832.0999999999997C672.4 849.3999999999996 668.9 854.4999999999997 666.6999999999999 853.6999999999997C664.1999999999999 852.7999999999997 666.0999999999999 846.9999999999997 674.4999999999999 829.4999999999997C679.2999999999998 819.5999999999997 684.4999999999999 807.6999999999997 686.0999999999999 803.0999999999997C688.8999999999999 794.9999999999997 689.8999999999999 787.9999999999997 688.1999999999999 787.9999999999997C687.8 787.9999999999997 684.0999999999999 791.3999999999996 679.9999999999999 795.5999999999997C672.5999999999999 803.0999999999997 668.4999999999999 805.9999999999997 665.4999999999999 805.9999999999997C662.8999999999999 805.9999999999997 663.7999999999998 803.5999999999997 668.6999999999999 797.8999999999996C671.1999999999999 794.8999999999996 676.6999999999999 787.3999999999996 680.6999999999999 781.2999999999996C689.0999999999999 768.6999999999996 691.8 765.9999999999997 703.0999999999999 759.8999999999996C712.0999999999999 755.0999999999997 714.3999999999999 752.1999999999996 720.8 737.4999999999997C732.0 711.8999999999996 733.3 708.0999999999997 743.4 670.8999999999996C748.4 652.4999999999997 752.1999999999999 644.7999999999996 765.3 625.9999999999997C769.6999999999999 619.6999999999997 774.1999999999999 612.2999999999996 775.1999999999999 609.6999999999997C776.1999999999999 607.0999999999998 777.9 597.2999999999997 778.9999999999999 587.8999999999997C780.0999999999999 578.5999999999998 781.6999999999999 567.5999999999998 782.4999999999999 563.3999999999997C784.2999999999998 554.9999999999998 790.0999999999999 537.6999999999997 793.1999999999999 531.4999999999998C795.0999999999999 527.7999999999997 795.1999999999999 526.3999999999997 794.5999999999999 511.4999999999998C793.5999999999999 486.7999999999998 795.5999999999999 472.19999999999976 801.8999999999999 458.4999999999998C806.9999999999999 447.5999999999998 814.6999999999998 439.39999999999975 824.2999999999998 434.5999999999998C831.0999999999998 431.2999999999998 835.1999999999998 430.0999999999998 851.8999999999999 426.8999999999998C860.7999999999998 425.1999999999998 902.1999999999998 404.6999999999998 908.4999999999999 398.8999999999998C917.6999999999999 390.3999999999998 920.3999999999999 379.3999999999998 917.9999999999999 359.99999999999983C916.8999999999999 350.59999999999985 916.5999999999999 349.8999999999998 915.3999999999999 352.09999999999985L914.0999999999999 354.49999999999983L912.6999999999999 350.99999999999983C911.9 349.09999999999985 910.4999999999999 344.09999999999985 909.4999999999999 339.8999999999998C908.0999999999999 333.49999999999983 907.5999999999999 332.2999999999998 906.0999999999999 332.6999999999998C903.3 333.3999999999998 900.3999999999999 329.99999999999983 897.4999999999999 322.49999999999983C894.7999999999998 315.6999999999998 892.8999999999999 302.99999999999983 894.4999999999999 302.99999999999983C894.9999999999999 302.99999999999983 896.5999999999999 304.49999999999983 898.1999999999999 306.1999999999998C900.4999999999999 308.79999999999984 900.9999999999999 309.0999999999998 900.4999999999999 307.3999999999998C896.7999999999998 293.49999999999983 895.8999999999999 276.5999999999998 898.4999999999999 266.6999999999998C903.6999999999999 246.59999999999982 917.8999999999999 234.19999999999982 939.9999999999999 230.3999999999998C966.3999999999999 225.8999999999998 990.5999999999999 236.2999999999998 1000.4999999999999 256.49999999999983C1005.9999999999999 267.49999999999983 1007.2999999999998 282.99999999999983 1004.1999999999999 298.1999999999998C1003.1999999999999 303.0999999999998 1002.6999999999999 306.99999999999983 1002.9999999999999 306.99999999999983C1003.3999999999999 306.99999999999983 1004.4999999999999 306.09999999999985 1005.4999999999999 304.99999999999983C1009.8999999999999 300.1999999999998 1009.8999999999999 306.99999999999983 1005.4999999999999 320.59999999999985C1002.5999999999999 329.6999999999999 1000.8999999999999 332.29999999999984 997.7999999999998 332.49999999999983C995.9999999999999 332.59999999999985 995.2999999999998 333.8999999999998 993.4999999999999 340.59999999999985C992.2999999999998 344.89999999999986 990.4999999999999 350.09999999999985 989.4999999999999 351.99999999999983C987.6999999999999 355.1999999999998 987.4999999999999 355.29999999999984 987.1999999999999 353.1999999999998C985.9999999999999 345.3999999999998 982.9999999999999 358.79999999999984 982.9999999999999 372.1999999999998C982.9999999999999 390.29999999999984 988.5999999999999 398.8999999999998 1006.1999999999999 407.5999999999998C1040.1999999999998 424.5999999999998 1043.3 425.8999999999998 1054.5 427.9999999999998C1060.6 429.0999999999998 1067.7 430.7999999999998 1070.3 431.5999999999998C1086.7 436.9999999999998 1098.7 450.7999999999998 1104.2 470.6999999999998C1106.2 477.6999999999998 1106.4 481.0999999999998 1106.6000000000001 503.49999999999983L1106.7 528.4999999999998L1110.9 538.4999999999998C1117.1000000000001 552.9999999999998 1118.5 559.0999999999998 1123.6000000000001 593.9999999999998C1124.5000000000002 600.2999999999997 1126.0000000000002 607.4999999999998 1126.9 609.9999999999998C1127.9 612.4999999999998 1132.8000000000002 620.3999999999997 1137.9 627.4999999999998C1143.0 634.5999999999998 1148.0 642.0999999999998 1149.1000000000001 644.2999999999997C1153.0000000000002 651.8999999999997 1158.1000000000001 666.4999999999998 1162.0000000000002 681.3999999999997C1167.7000000000003 702.8999999999997 1175.1000000000001 722.8999999999997 1184.0000000000002 740.9999999999998C1189.9000000000003 752.7999999999997 1192.6000000000001 755.7999999999997 1202.1000000000001 761.1999999999998C1211.7 766.4999999999998 1215.6000000000001 770.2999999999998 1223.0000000000002 781.4999999999998C1225.9000000000003 785.8999999999997 1231.0000000000002 792.7999999999997 1234.3000000000002 796.7999999999997C1240.9 804.8999999999997 1241.0000000000002 807.0999999999997 1234.7000000000003 805.0999999999997C1231.3000000000002 803.8999999999996 1223.2000000000003 796.2999999999997 1219.6000000000004 790.6999999999997C1218.6000000000004 789.1999999999997 1217.1000000000004 787.9999999999997 1216.2000000000003 787.9999999999997C1212.1000000000004 787.9999999999997 1219.1000000000004 809.0999999999997 1231.2000000000003 833.4999999999997C1238.8000000000002 848.5999999999997 1239.6000000000004 851.2999999999996 1237.4000000000003 853.0999999999997C1235.1000000000004 854.9999999999997 1233.3000000000004 852.5999999999997 1223.0000000000002 833.1999999999997C1217.9000000000003 823.6999999999997 1213.3000000000002 815.6999999999997 1212.9000000000003 815.3999999999997C1212.4000000000003 815.0999999999998 1211.7000000000003 815.5999999999998 1211.3000000000004 816.5999999999998C1210.9000000000003 817.6999999999998 1214.3000000000004 825.5999999999998 1221.0000000000005 838.9999999999998C1230.9000000000005 858.8999999999997 1232.2000000000005 862.9999999999998 1228.7000000000005 862.9999999999998C1228.0000000000005 862.9999999999998 1226.6000000000006 862.3999999999997 1225.8000000000004 861.6999999999998C1223.9000000000003 860.3999999999999 1214.6000000000004 844.1999999999998 1207.6000000000004 830.2999999999998C1202.7000000000003 820.4999999999999 1201.4000000000003 818.8999999999999 1200.3000000000004 821.4999999999999C1199.9000000000003 822.5999999999999 1203.0000000000005 829.8999999999999 1208.8000000000004 841.3999999999999C1213.9000000000003 851.2999999999998 1218.0000000000005 860.0999999999999 1218.0000000000005 860.6999999999998C1218.0000000000005 863.2999999999998 1214.1000000000004 861.8999999999999 1210.8000000000004 858.1999999999998C1208.9000000000003 856.0999999999998 1204.7000000000005 849.2999999999998 1201.5000000000005 842.9999999999998C1198.2000000000005 836.6999999999998 1194.6000000000004 829.6999999999998 1193.4000000000005 827.4999999999998C1191.5000000000005 823.7999999999997 1188.0000000000005 821.4999999999998 1188.0000000000005 823.9999999999998C1188.0000000000005 824.5999999999998 1191.1000000000004 831.4999999999998 1195.0000000000005 839.2999999999997C1198.8000000000004 847.0999999999997 1202.0000000000005 853.7999999999997 1202.0000000000005 854.1999999999997C1202.0000000000005 854.6999999999997 1201.1000000000004 854.9999999999997 1200.0000000000005 854.9999999999997C1197.5000000000005 854.9999999999997 1192.5000000000005 848.2999999999996 1186.8000000000004 837.4999999999997C1184.5000000000005 833.0999999999997 1180.2000000000005 825.3999999999996 1177.2000000000005 820.4999999999997C1167.7000000000005 804.5999999999997 1165.0000000000005 795.7999999999996 1163.1000000000006 774.7999999999996C1162.3000000000006 765.7999999999996 1161.9000000000005 764.1999999999996 1157.0000000000007 754.7999999999996C1151.2000000000007 743.2999999999996 1140.1000000000006 726.3999999999996 1126.8000000000006 708.6999999999996C1104.7000000000007 679.3999999999996 1098.1000000000006 665.7999999999996 1092.1000000000006 636.6999999999996C1088.1000000000006 617.6999999999996 1088.2000000000005 618.0999999999996 1080.2000000000005 602.8999999999996C1071.1000000000006 585.4999999999997 1065.8000000000004 572.8999999999996 1062.4000000000005 560.4999999999997C1059.9000000000005 551.2999999999996 1059.6000000000006 548.9999999999997 1059.7000000000005 532.4999999999997C1059.7000000000005 520.7999999999996 1060.3000000000004 510.99999999999966 1061.3000000000004 504.49999999999966C1062.2000000000005 499.0999999999997 1062.8000000000004 494.39999999999964 1062.6000000000004 494.29999999999967C1062.0000000000005 493.69999999999965 1058.0000000000005 512.0999999999997 1055.0000000000005 529.4999999999997C1052.2000000000005 546.0999999999997 1050.6000000000004 551.3999999999996 1040.4000000000005 579.8999999999996C1025.4000000000005 621.3999999999996 1025.9000000000005 647.8999999999996 1042.6000000000006 696.4999999999997C1046.2000000000005 706.8999999999996 1051.1000000000006 721.1999999999997 1053.5000000000007 728.1999999999997C1058.8000000000006 743.5999999999997 1062.5000000000007 760.3999999999997 1064.1000000000006 776.9999999999997C1065.4000000000005 790.6999999999997 1064.8000000000006 824.6999999999997 1063.1000000000006 834.5999999999997C1057.4000000000005 867.9999999999997 1056.2000000000005 872.6999999999997 1042.1000000000006 915.6999999999997C1028.5000000000007 957.2999999999997 1026.3000000000006 964.6999999999997 1022.6000000000006 981.0999999999997C1018.3000000000006 1000.1999999999997 1017.6000000000006 1010.6999999999997 1019.6000000000006 1028.2999999999997C1022.3000000000006 1052.9999999999998 1020.9000000000005 1073.5999999999997 1014.9000000000005 1097.3999999999996C1013.8000000000005 1101.6999999999996 1013.1000000000006 1105.3999999999996 1013.3000000000005 1105.5999999999997C1014.1000000000005 1106.4999999999998 1021.1000000000005 1082.6999999999996 1023.1000000000005 1072.3999999999996C1025.5000000000005 1059.6999999999996 1025.9000000000005 1039.9999999999995 1024.1000000000004 1024.1999999999996C1021.6000000000004 1002.7999999999996 1026.3000000000004 981.0999999999996 1046.9000000000003 918.8999999999996C1064.2000000000003 866.1999999999996 1069.0000000000002 844.3999999999996 1070.6000000000004 809.0999999999997C1072.2000000000003 775.7999999999997 1067.1000000000004 748.8999999999996 1051.0000000000005 705.4999999999997C1043.3000000000004 684.9999999999997 1041.3000000000004 678.1999999999997 1037.9000000000005 661.2999999999996C1034.9000000000005 646.3999999999996 1034.8000000000006 644.7999999999996 1035.3000000000006 629.4999999999997C1035.7000000000007 618.8999999999996 1036.5000000000007 610.7999999999996 1037.8000000000006 605.3999999999996C1040.0000000000007 596.1999999999996 1054.2000000000007 552.0999999999997 1055.0000000000007 551.9999999999997C1055.3000000000006 551.9999999999997 1056.3000000000006 555.8999999999996 1057.3000000000006 560.5999999999997C1059.7000000000007 572.0999999999997 1065.6000000000006 586.6999999999997 1074.5000000000007 602.9999999999997C1082.5000000000007 617.7999999999996 1083.8000000000006 621.3999999999996 1087.6000000000006 640.4999999999997C1092.8000000000006 666.9999999999997 1098.9000000000005 679.2999999999996 1121.3000000000006 709.0999999999997C1136.9000000000005 729.8999999999996 1151.3000000000006 751.8999999999996 1155.5000000000007 761.4999999999997C1157.0000000000007 764.8999999999996 1157.9000000000008 769.5999999999997 1158.4000000000008 776.4999999999997C1159.8000000000009 796.0999999999997 1162.6000000000008 804.5999999999997 1173.9000000000008 823.6999999999997C1178.7000000000007 831.7999999999997 1184.5000000000007 841.6999999999997 1186.8000000000009 845.5999999999997C1192.1000000000008 854.7999999999997 1197.1000000000008 859.1999999999997 1201.500000000001 858.8999999999996C1204.1000000000008 858.5999999999997 1205.6000000000008 859.2999999999996 1208.900000000001 862.2999999999996C1213.100000000001 866.0999999999996 1218.300000000001 867.2999999999996 1220.700000000001 864.8999999999996C1221.500000000001 864.0999999999997 1222.600000000001 864.3999999999996 1224.700000000001 865.9999999999997C1229.8000000000009 869.6999999999997 1235.000000000001 866.8999999999996 1235.000000000001 860.5999999999997C1235.000000000001 858.6999999999997 1235.500000000001 857.9999999999997 1236.8000000000009 857.9999999999997C1239.9000000000008 857.9999999999997 1242.4000000000008 854.2999999999996 1242.200000000001 850.1999999999997C1242.100000000001 847.8999999999997 1238.400000000001 838.6999999999997 1232.000000000001 825.1999999999997C1226.500000000001 813.4999999999997 1221.700000000001 802.4999999999997 1221.3000000000009 800.6999999999997L1220.700000000001 797.4999999999997L1224.400000000001 801.6999999999997C1230.800000000001 808.9999999999997 1237.100000000001 811.5999999999997 1242.100000000001 808.9999999999997C1245.5000000000011 807.0999999999997 1244.5000000000011 802.8999999999996 1238.800000000001 795.8999999999996C1236.0000000000011 792.3999999999996 1230.7000000000012 784.9999999999997 1227.100000000001 779.3999999999996C1219.800000000001 768.1999999999996 1213.200000000001 761.7999999999996 1204.100000000001 756.9999999999997C1200.700000000001 755.1999999999997 1196.900000000001 752.5999999999997 1195.5000000000011 751.2999999999996C1191.100000000001 746.7999999999996 1183.5000000000011 730.1999999999996 1174.0000000000011 704.4999999999997C1171.2000000000012 696.7999999999996 1169.300000000001 690.3999999999996 1165.600000000001 675.7999999999996C1159.600000000001 652.5999999999996 1153.5000000000011 639.4999999999997 1140.600000000001 622.6999999999996C1132.200000000001 611.6999999999996 1130.200000000001 606.4999999999995 1128.0000000000011 589.2999999999996C1124.300000000001 561.7999999999996 1121.4000000000012 549.5999999999996 1114.5000000000011 533.7999999999996L1111.100000000001 526.1999999999996L1111.700000000001 506.2999999999996C1112.100000000001 492.4999999999996 1111.900000000001 484.1999999999996 1111.100000000001 479.39999999999964C1105.300000000001 446.89999999999964 1089.0000000000011 429.39999999999964 1059.700000000001 424.39999999999964C1054.600000000001 423.49999999999966 1048.000000000001 421.99999999999966 1044.900000000001 420.99999999999966C1038.100000000001 418.69999999999965 1000.800000000001 399.89999999999964 996.400000000001 396.49999999999966C994.600000000001 395.0999999999997 991.900000000001 391.49999999999966 990.400000000001 388.39999999999964C988.000000000001 383.39999999999964 987.700000000001 381.69999999999965 987.600000000001 371.99999999999966C987.500000000001 361.5999999999997 987.600000000001 360.99999999999966 990.100000000001 358.29999999999967C993.8000000000011 354.3999999999997 995.600000000001 350.49999999999966 997.100000000001 343.3999999999997C998.2000000000011 338.1999999999997 998.7000000000011 337.1999999999997 1001.100000000001 336.29999999999967C1002.600000000001 335.69999999999965 1004.8000000000011 333.69999999999965 1005.900000000001 331.99999999999966C1008.200000000001 328.0999999999997 1012.000000000001 314.79999999999967 1012.700000000001 307.49999999999966C1013.200000000001 302.89999999999964 1013.0000000000009 302.0999999999997 1010.800000000001 300.39999999999964C1008.900000000001 298.89999999999964 1008.6000000000009 297.89999999999964 1009.1000000000009 295.49999999999966C1010.200000000001 290.69999999999965 1010.1000000000009 273.69999999999965 1009.0000000000009 267.89999999999964C1007.4000000000009 259.2999999999996 1001.700000000001 248.59999999999962 995.3000000000009 241.89999999999964C988.6000000000008 234.79999999999964 977.3000000000009 228.79999999999964 966.4000000000009 226.49999999999963C957.8000000000009 224.69999999999962 943.6000000000009 224.69999999999962 935.0000000000009 226.59999999999962" fill="#111" stroke-width="0"/></svg>