<?xml version='1.0' encoding='utf-8'?>
<svg xmlns="http://www.w3.org/2000/svg" viewBox="0 0 1920 1280" xmlns="http://www.w3.org/2000/svg"><g fill="#805500" stroke-width="0"><path d="M1122.8 191.3c1.2.7 1.9 1.7 1.5 2.2-.4.4-.3.5.4.2.6-.4 1.4-.1 1.6.5q.6 1.5.6 0c.1-.9.9-.9 3.8.3 2 .8 3.8 1.3 4.1 1 .3-.2-.6-.9-1.9-1.4s-4.1-1.6-6.3-2.5c-4.5-1.9-7.1-2.1-3.8-.3m15.6 6.2c1.1.8 2.3 1.5 2.8 1.5.4 0 .8.5.8 1 0 .7-.7.7-2.2 0-2.1-1-2.1-1-.6.3 1 .8 1.5 1.7 1.1 2.1s0 .4 1 0 1.9 0 2.3.9c.3 1 1.4 1.4 2.7 1.1 5.9-1.4 8-.8 7.5 2-.3 1.6-.1 2.3.7 2 .6-.3 1.1-1.4 1-2.6-.1-1.7-2-3-8.6-5.9-8.9-4-11.6-4.8-8.5-2.4m9.6 4.5c.8.5 1.1 1 .5 1-.5 0-1.7-.5-2.5-1s-1-1-.5-1c.6 0 1.7.5 2.5 1" /><path d="M1150.3 206.1c-.1 1 .3 1.9.8 1.9.6 0 .8-.4.5-.9-.4-.5-.1-1.1.6-1.3.8-.3.7-.6-.3-1s-1.5.1-1.6 1.3m7.1-.2c.3.4 1.9 1.4 3.6 2.1 1.6.7 3 1.7 3 2.2s.4.6 1 .3c.5-.3 2.7.4 5 1.5 2.2 1.1 4 1.8 4 1.5 0-.5-15.5-8.5-16.5-8.5-.4 0-.4.4-.1.9m18.3 9.2c.7.7 1.5 1 1.8.7s-.2-.9-1.2-1.2c-1.4-.6-1.5-.5-.6.5m84.7 59.2c4.2 3.8 5.5 5.6 4.5 6-1.2.4-1.1.6.1.6 1.3.1 1.3.3.1 1-1 .7-2.5.3-4.5-1.1-1.7-1.1-.4.6 3 3.8 8.1 7.8 10.5 9.9 13.1 11.2 1.8 1 2.2.9 2.5-.6.7-2.9-8.4-13.2-19.7-22.4-4.3-3.5-4.2-3.3.9 1.5m24.1 31.7c1 1.1 2 2 2.3 2s-.3-.9-1.3-2-2-2-2.3-2 .3.9 1.3 2m-660.6 73.9c-1.3 1-3 1.6-3.6 1.4-.7-.3-1.3.3-1.3 1.2s.4 1.4.9 1.1 1.2.1 1.5 1c.9 2.3.8 2.6-.6 1.8-.9-.5-.8-.2.1 1 1.8 2.2 3.4.7 3.4-3.4 0-1.6.2-2.8.5-2.5.5.4 3.2-2 3.2-2.9 0-1.1-1.8-.6-4.1 1.3m5.1-.9c0 .6.7 1 1.5 1s1.5-.2 1.5-.4-.7-.6-1.5-1c-.8-.3-1.5-.1-1.5.4m304.2 9c0 1.4.2 1.9.5 1.2.2-.6.2-1.8 0-2.5-.3-.6-.5-.1-.5 1.3m-.7 8.8c-.3 2.1-.2 4.9.4 6.2.8 2.1 1 1.4 1-3.8.1-7-.4-8-1.4-2.4m-312.7 11.9c.6.2 1.8.2 2.5 0 .6-.3.1-.5-1.3-.5s-1.9.2-1.2.5m-2.9.8c-.1.3-.2.9-.3 1.4 0 .5-.4 1.3-.8 1.7-1.6 1.5-.7 4.1 1.7 5.2 5 2.3 5.4 1.9 7-6.5.4-2.2.3-2.2-2.1-.7-1.3.9-2.4 1.2-2.4.6 0-1-2.9-2.6-3.1-1.7m377.7 23c-1.1.8-1.5 1.5-.9 1.5s1.6-.7 2.3-1.5c1.6-1.9 1.1-1.9-1.4 0m-144.4 6.1c1 1 2 1.5 2.4 1.2.3-.4-.5-1.2-1.8-1.8-2.2-1.2-2.2-1.2-.6.6m3.5.7c.3 1.4 1.2 2.3 2.3 2.3 1.7 0 1.8-.2.5-1.6-.8-.9-1.2-2-.8-2.3.3-.4-.1-.7-.9-.7-1 0-1.4.7-1.1 2.3m-236.6 1c-.8 1-.7 1.4.2 1.4.8 0 1.4-.6 1.4-1.4 0-.7-.1-1.3-.2-1.3-.2 0-.8.6-1.4 1.3m243.9 2.1c0 .2.7.9 1.5 1.6 1.3 1.1 1.4 1 .9-.4s-2.4-2.3-2.4-1.2m421.2 2.5c.1 1.7.5 2.8 1 2.5 1.1-.7 1-4.1-.1-4.9-.5-.3-.9.8-.9 2.4M621 443.4c0 .2.7.6 1.5 1 .8.3 1.5.1 1.5-.4 0-.6-.7-1-1.5-1s-1.5.2-1.5.4m415.3 1.7c.1 1.4.4 1.5 1.4.7 1.7-1.4 1.6-2.5-.1-2.5-.8 0-1.4.8-1.3 1.8m-10.8.9c-.2.3.5.7 1.6.7 1 .1 1.9-.2 1.9-.6 0-.9-2.9-1-3.5-.1m-4.5 1.9c0 .8-.7 1.1-1.5.7-.8-.3-1.5-.1-1.5.4 0 .6.6 1 1.4 1 1.7 0 3.1-1.8 2.2-2.7-.3-.4-.6-.1-.6.6m-403.3 1.2c.7.7 1.5 1 1.8.7s-.2-.9-1.2-1.2c-1.4-.6-1.5-.5-.6.5m405.8 3.5c-2.2 1.3-4.6 2.7-5.2 3-.7.4-1.3 1-1.3 1.5s1.6-.3 3.6-1.6c2-1.4 4.2-2.5 4.9-2.5s1.8-.7 2.5-1.5c1.8-2.1.1-1.7-4.5 1.1m28.5-1.7c0 .5.7 1.2 1.6 1.5 1.4.5 1.5.4.4-.9-1.4-1.7-2-1.9-2-.6m8 4.9c0 .4.9 1.5 2 2.5 1.1.9 2 1.3 2 .9s-.9-1.5-2-2.5c-1.1-.9-2-1.3-2-.9M950.2 459c0 1.4.2 1.9.5 1.2.2-.6.2-1.8 0-2.5-.3-.6-.5-.1-.5 1.3m119.8 6.4c0 .2.8 1 1.8 1.7 1.5 1.3 1.6 1.2.3-.4s-2.1-2.1-2.1-1.3m-442.2 6.8c-.7.7-2 1.4-2.8 1.6s-1.6.8-1.8 1.3-1 .9-1.7.9-1.5.7-1.9 1.5c-.3.8-.1 1.5.5 1.5s.8.4.5.8c-.2.4.7.8 2.2.9 2.4.2 2.4.1.7-.7-1.6-.7-1.7-.9-.3-.9.9-.1 2 .4 2.3.9.4.6 1.6.8 2.7.4 1.5-.4 1.8-.3 1.3.6-.5.8-.4 1.1.3.6.6-.4.9-1.3.6-2.1-.3-.7 0-2.3.6-3.5 1-1.8.9-2.1-.1-1.5-.9.6-1.1.3-.6-.8.8-2.1-.8-3.1-2.5-1.5m336.8.3c-.3.8-.1 1.5.4 1.5.6 0 1-.7 1-1.5s-.2-1.5-.4-1.5-.6.7-1 1.5m112 3.8c.3 1 .9 1.5 1.2 1.2s0-1.1-.7-1.8c-1-.9-1.1-.8-.5.6m-125.5 25.3c0 1.1.3 1.4.6.6.3-.7.2-1.6-.1-1.9-.3-.4-.6.2-.5 1.3m-315.1-.2c0 .2.8 1 1.8 1.7 1.5 1.3 1.6 1.2.3-.4s-2.1-2.1-2.1-1.3m309.2 4.6c0 1.4.2 1.9.5 1.2.2-.6.2-1.8 0-2.5-.3-.6-.5-.1-.5 1.3m-93.8 8.7c2.2 2.4 4.2 4 4.5 3.8.2-.3.2-.6 0-.8-.2-.1-2.2-1.8-4.4-3.7l-4-3.5zm96.7-.1c0 1.1.3 1.4.6.6.3-.7.2-1.6-.1-1.9-.3-.4-.6.2-.5 1.3m-2.6 1.4c-.3.5-.1 1 .4 1 .6 0 1.1-.5 1.1-1 0-.6-.2-1-.4-1-.3 0-.8.4-1.1 1m101.4.7c-1.3 1.6-1.2 1.7.4.4.9-.7 1.7-1.5 1.7-1.7 0-.8-.8-.3-2.1 1.3m-99 2.5c-.1 1.7-.2 1.9-.6.6-.4-1.6-.6-1.6-1.9-.4-.8.8-1.4 2.1-1.4 2.8 0 1 .3.9 1-.2s1-1.1 1-.2c0 .7.5 1 1.1.6.8-.5 1 .1.6 1.7-.3 1.3-.1 3.3.3 4.4q.9 2.1.9-4.8c.1-3.7-.1-6.7-.4-6.7s-.6 1-.6 2.2m2.6 1.8c.3.5.8 1 1.1 1 .2 0 .4-.5.4-1 0-.6-.5-1-1.1-1-.5 0-.7.4-.4 1m-64.7 5.7c.6.2 1.8.2 2.5 0 .6-.3.1-.5-1.3-.5s-1.9.2-1.2.5m-77.7 1.9c0 1.1.3 1.4.6.6.3-.7.2-1.6-.1-1.9-.3-.4-.6.2-.5 1.3m136.9 3.7c0 3.2.4 5.6.8 5.3.5-.3.7-2 .5-3.8-.3-2.5-.2-2.9.6-1.8 1.6 2.2 1.3.7-.4-2.6-1.5-2.9-1.5-2.9-1.5 2.9m72.5-4.3c-.3.6.1.7.9.4 1.8-.7 2.1-1.4.7-1.4-.6 0-1.3.4-1.6 1m72.7 2.5c0 1.6.2 2.2.5 1.2.2-.9.2-2.3 0-3-.3-.6-.5.1-.5 1.8m171.6-.8c.7.3 1.6.2 1.9-.1.4-.3-.2-.6-1.3-.5-1.1 0-1.4.3-.6.6m-5.7 5.9c0 1.1.3 1.4.6.6.3-.7.2-1.6-.1-1.9-.3-.4-.6.2-.5 1.3m-302 3c0 1.1.3 1.4.6.6.3-.7.2-1.6-.1-1.9-.3-.4-.6.2-.5 1.3m-312.3 2.1c.6.2 1.8.2 2.5 0 .6-.3.1-.5-1.3-.5s-1.9.2-1.2.5m166.3 9.9c0 1.1.3 1.4.6.6.3-.7.2-1.6-.1-1.9-.3-.4-.6.2-.5 1.3m0 6c0 1.1.3 1.4.6.6.3-.7.2-1.6-.1-1.9-.3-.4-.6.2-.5 1.3m-156.6.4c-.8 1.3-.1 8.9.8 8.3.4-.2.7-.1.7.4 0 .4 1.1.8 2.5.8s2.5-.4 2.5-.8c0-.5.4-.6.9-.3.4.3.8-.7.7-2.2-.1-1.6-.7-2.7-1.5-2.7s-1.6-.6-1.9-1.3c-.2-.7.2-1 1.1-.6 1.8.7 3.2-1.2 1.6-2.2-.8-.4-.9-.3-.5.4.9 1.4.9 1.4-3.1.3-1.9-.6-3.5-.6-3.8-.1m596.3 1.1c-2 1.1-2.5 6.9-.7 6.9.5 0 .8.3.6.7-.3.5.8.8 2.4.7 1.6 0 2.9-.4 2.9-.7v-1.8c0-.6-.8-.8-1.7-.5-1.2.4-.9-.1.7-1.5 2.4-2 2.4-2.1.5-3.5-2.2-1.6-2.5-1.7-4.7-.3m-301.4 2.3c-.3.9.1 2.3 1 3.1 1.5 1.5 1.6 1.4 1.6-.9 0-2.9-1.8-4.4-2.6-2.2m-350.9 1.7c-.4 1.2-.2 2.6.4 3.2 1.6 1.6 4.4-.3 4.6-3.1.2-3-4.1-3.1-5-.1m2.2.4c0 .8-.4 1.5-.9 1.5-1 0-1.1-1.4-.1-2.3.9-1 1-.9 1 .8m210.4.1c0 1.1.3 1.4.6.6.3-.7.2-1.6-.1-1.9-.3-.4-.6.2-.5 1.3m496 1.2c-.8 1.4-.5 1.8 1.2 1.9 2.2.2 4-1.5 3.1-2.9s-3.3-.9-4.3 1m-212.9 1.2c0 1.4.2 1.9.5 1.2.2-.6.2-1.8 0-2.5-.3-.6-.5-.1-.5 1.3m-283 3c0 1.9.2 2.7.5 1.7.2-.9.2-2.5 0-3.5-.3-.9-.5-.1-.5 1.8m143.9-1.4c0 1.1.3 1.4.6.6.3-.7.2-1.6-.1-1.9-.3-.4-.6.2-.5 1.3m1.9 1.4c0 .5.5 1 1.1 1 .5 0 .7-.5.4-1-.3-.6-.8-1-1.1-1-.2 0-.4.4-.4 1m54.9 6.7c-1.3 1.6-1.2 1.7.4.4.9-.7 1.7-1.5 1.7-1.7 0-.8-.8-.3-2.1 1.3M791.2 580c0 1.9.2 2.7.5 1.7.2-.9.2-2.5 0-3.5-.3-.9-.5-.1-.5 1.8m212.5 1.1c.7.7 1.5 1 1.8.7s-.2-.9-1.2-1.2c-1.4-.6-1.5-.5-.6.5m104.4.5c0 1.1.3 1.4.6.6.3-.7.2-1.6-.1-1.9-.3-.4-.6.2-.5 1.3m125.2-1c.4.4.2 1.3-.3 1.9-.8.9-.3 1.2 2.2.9 4.3-.5 4.4-1 .7-2.3-1.8-.6-3-.8-2.6-.5m-280.9 7.2c-.1 4.1.1 5 .6 3.2.5-1.4.8-1.9.9-1.2s.6 1 1.2.6c.8-.4.8-.9 0-1.7-.6-.6-1.1-2.1-1.1-3.3 0-1.3-.3-2.5-.7-2.7-.5-.3-.9 2-.9 5.1M610 586c.6 1.1 1.3 2 1.6 2 .2 0 0-.9-.6-2s-1.3-2-1.6-2c-.2 0 0 .9.6 2m3-1c0 .5.5 1 1.1 1 .5 0 .7-.5.4-1-.3-.6-.8-1-1.1-1-.2 0-.4.4-.4 1m61.1.6c0 1.1.3 1.4.6.6.3-.7.2-1.6-.1-1.9-.3-.4-.6.2-.5 1.3m267.1.9c0 1.6.2 2.2.5 1.2.2-.9.2-2.3 0-3-.3-.6-.5.1-.5 1.8m-2.1.1c0 1.1.3 1.4.6.6.3-.7.2-1.6-.1-1.9-.3-.4-.6.2-.5 1.3m6.5 2.9c-.5 2.3-1.2 3.5-2 3.2s-1.1.4-1 2.2c.3 4.5.5 4.7 2 1.6l1.5-3-.4 3.7c-.2 2.1 0 3.8.5 3.8.4 0 .9 3.5 1.1 7.7.2 4.3.2 1.1 0-7.2-.2-8.2-.6-15.1-.7-15.3-.2-.1-.7 1.3-1 3.3m-331.3-1c0 .8.4 1.2.9.9s.6-1 .3-1.5c-.9-1.3-1.2-1.1-1.2.6m494.9 3c0 1.6.2 2.2.5 1.2.2-.9.2-2.3 0-3-.3-.6-.5.1-.5 1.8m125.6-.8c.6.2 1.8.2 2.5 0 .6-.3.1-.5-1.3-.5s-1.9.2-1.2.5m-144.7 1.9c0 1.1.3 1.4.6.6.3-.7.2-1.6-.1-1.9-.3-.4-.6.2-.5 1.3M939.2 595c0 1.4.2 1.9.5 1.2.2-.6.2-1.8 0-2.5-.3-.6-.5-.1-.5 1.3m13.4.5c-.3.9-.5 2.9-.5 4.3.1 2 .3 1.7.9-1.3.8-4.3.7-5.7-.4-3m-69.6 1.2c0 .7.9 2.7 1.9 4.4l2 3.2-.1-3.1c-.1-1.7-.5-2.9-.9-2.6-.4.2-1.2-.4-1.8-1.3-.6-1-1.1-1.2-1.1-.6m58.8 5.8c-.3 1.4-.1 2.5.3 2.5.5 0 .9-1.1.9-2.5s-.2-2.5-.4-2.5-.6 1.1-.8 2.5m-259.5.9c0 .6-.3 2.1-.7 3.2-1.4 4.4 4 3.8 6.5-.7.7-1.5.6-1.7-1.2-1.4-1.5.3-1.8.1-1.1-.8.8-.9.4-1.2-1.2-1.3-1.3-.1-2.3.3-2.3 1m-58.3 3.9c0 .8.9 1.7 2 2 1 .3 1.9.2 1.8-.2-.2-1.9.4-2.4 1.3-1.1s1 1.3.6 0c-.2-.8-1.2-1.7-2.2-1.8-1.2-.3-1.5 0-.9 1s.5 1-.9-.1c-1.5-1.1-1.7-1.1-1.7.2m319.5.7c.3.5.8 1 1.1 1 .2 0 .4-.5.4-1 0-.6-.5-1-1.1-1-.5 0-.7.4-.4 1m12.5 0c0 .5.5 1 1 1 .6 0 1-.5 1-1 0-.6-.4-1-1-1-.5 0-1 .4-1 1m-3.7 3.5c0 2.2.2 3 .4 1.7.2-1.2.2-3 0-4-.3-.9-.5.1-.4 2.3m-7.1.5c0 1.4.2 1.9.5 1.2.2-.6.2-1.8 0-2.5-.3-.6-.5-.1-.5 1.3m8.8 1.9c0 .6.4 1.3 1 1.6s.7-.1.4-.9c-.7-1.8-1.4-2.1-1.4-.7m-56 .5c0 .2.7.9 1.5 1.6.9.7 1.5.8 1.5.2 0-.5-.7-1.2-1.5-1.6-.8-.3-1.5-.4-1.5-.2m41.1 1.2c0 1.1.3 1.4.6.6.3-.7.2-1.6-.1-1.9-.3-.4-.6.2-.5 1.3m-239.8 6.9c.1.5-.2.9-.8.8-.5-.1-1 .9-1 2.2 0 1.5.4 2.1 1.4 1.7s1.3-.1.8 1c-.3 1-.1 1.5.8 1.4 2.2-.3 2.8-1.3 3-4.8.1-2.8-.2-3.3-2.1-3.3-1.2 0-2.2.4-2.1 1m86.8 3.1c0 1.1.3 1.4.6.6.3-.7.2-1.6-.1-1.9-.3-.4-.6.2-.5 1.3m326.9.5c0 1.3.5 3.1 1 3.9.7 1.1.8.5.4-2-.8-4.3-1.4-5.1-1.4-1.9m-20 .2c-.1 3.1 4.3 6.6 5.6 4.5.4-.6.3-.8-.4-.4-.5.3-2-.6-3.1-2.1-1.1-1.6-2.1-2.4-2.1-2m-450.5 1.6c-.9 1.5 1.5 2.5 2.8 1.2.9-.9.7-1-.7-.5-1.3.5-1.7.4-1.2-.4.4-.7.5-1.2.2-1.2s-.7.4-1.1.9m303.7 4.1c0 1.4.2 1.9.5 1.2.2-.6.2-1.8 0-2.5-.3-.6-.5-.1-.5 1.3m151.8 1.5c0 .2 1 1 2.3 1.6 2 1.1 2.1 1.1.8-.4-1.3-1.6-3.1-2.3-3.1-1.2m16.5.5c.3.5.8 1 1.1 1 .2 0 .4-.5.4-1 0-.6-.5-1-1.1-1-.5 0-.7.4-.4 1m-330.4 1.6c0 1.1.3 1.4.6.6.3-.7.2-1.6-.1-1.9-.3-.4-.6.2-.5 1.3m163.4-.7c-.3.5-.1 1.2.5 1.6.5.3 1-.1 1-.9 0-1.8-.6-2.1-1.5-.7m3.5 1.5c0 .9.5 1.6 1 1.6.6 0 1-.4 1-.9 0-.6-.4-1.3-1-1.6-.5-.3-1 .1-1 .9m2 5.2c0 .8.5 1.2 1 .9.6-.4.8-1.1.5-1.6-.9-1.4-1.5-1.1-1.5.7m154.5 2.4c1 1.1 2 2 2.3 2s-.3-.9-1.3-2-2-2-2.3-2 .3.9 1.3 2M944 646.5c0 .5.5 1.7 1 2.5s1 1 1 .5c0-.6-.5-1.7-1-2.5s-1-1.1-1-.5m4.2 2.5c0 1.4.2 1.9.5 1.2.2-.6.2-1.8 0-2.5-.3-.6-.5-.1-.5 1.3m163.8.5c1.3 1.4 2.7 2.2 3.2 1.9 1.2-.8-.8-3.1-3.3-3.7-2.1-.6-2.1-.5.1 1.8M777.5 652c-.9 1.6-1.3 3-1.1 3 .3 0 1.2-1.4 2.1-3 .9-1.7 1.3-3 1.1-3-.3 0-1.2 1.3-2.1 3m345.5 4.9c1.4 1.1 3 2 3.5 2 .6 0 .4-.3-.3-.6-.6-.2-.9-1-.5-1.6.3-.7.3-.9-.2-.5-.4.4-1.7.3-2.9-.3-1.7-.8-1.6-.6.4 1m-408.2-.2c.7.3 1.6.2 1.9-.1.4-.3-.2-.6-1.3-.5-1.1 0-1.4.3-.6.6m64.2.4c0 .5.5.7 1 .4.6-.3 1-.8 1-1.1 0-.2-.4-.4-1-.4-.5 0-1 .5-1 1.1m135.3 2.1c-1.5 2-2.5 3.8-2 3.8.3 0 1.2-1.1 2.1-2.5 1.7-2.6 1.6-3.5-.1-1.3m36.3.1c.3 1 .9 1.5 1.2 1.2s0-1.1-.7-1.8c-1-.9-1.1-.8-.5.6m-247.8.4c.7.3 1.6.2 1.9-.1.4-.3-.2-.6-1.3-.5-1.1 0-1.4.3-.6.6M697 661c-.9.6-1 1-.3 1 .6 0 1.5-.5 1.8-1 .8-1.2.4-1.2-1.5 0m-20.7 1.4c.2.6 1.1 1.2 2 1.4 1.1.2 1.5-.1 1.2-1.1-.7-1.6-3.7-1.9-3.2-.3m269.8.2c0 1.1.3 1.4.6.6.3-.7.2-1.6-.1-1.9-.3-.4-.6.2-.5 1.3m-176.7 1.6c-1.1 1.2-1.3 1.8-.5 1.3 1.1-.6 1.3-.4.8.9-.4 1-.3 1.5.3 1.1.6-.3 1-1.2 1-2 0-.7.5-1.5 1.2-1.7.8-.3.9-.6.1-1.1-.6-.4-1.9.3-2.9 1.5m136.5-.5c-1.3 1.6-1.2 1.7.4.4s2.1-2.1 1.3-2.1c-.2 0-1 .8-1.7 1.7m45.3 2.3c0 1.4.2 1.9.5 1.2.2-.6.2-1.8 0-2.5-.3-.6-.5-.1-.5 1.3m52.3 6c1 1.1 2 2 2.3 2s-.3-.9-1.3-2-2-2-2.3-2 .3.9 1.3 2m-107.9.2c.3.5 1 .6 1.5.3 1.3-.9 1.1-1.2-.6-1.2-.8 0-1.2.4-.9.9m216.3 2.1c3.7 3.9 4.1 4.2 4.1 2.8 0-.5-1.7-2.1-3.7-3.6l-3.8-2.8zm-220-.6c-1.3 1.6-1.2 1.7.4.4.9-.7 1.7-1.5 1.7-1.7 0-.8-.8-.3-2.1 1.3M690 677.4c0 .6 1.1 1.3 2.5 1.4s2.5-.3 2.5-.8c0-.6-.3-1-.7-1.1-.5 0-1.6-.2-2.5-.4-1-.2-1.8.2-1.8.9m202.7 6.1c-1.1 1.6-1.3 2.3-.5 2 1.5-.6 4.2-4.5 3.1-4.5-.5 0-1.6 1.2-2.6 2.5m110.3 1.9c0 .2.8 1 1.8 1.7 1.5 1.3 1.6 1.2.3-.4s-2.1-2.1-2.1-1.3m7 1c0 .2.8 1 1.8 1.7 1.5 1.3 1.6 1.2.3-.4s-2.1-2.1-2.1-1.3m-301.9 4.8c.1 1.9.2 1.9.6.5.3-1.1 1.1-1.6 1.9-1.3s1.4.1 1.4-.4c0-.6-.9-1-2-1-1.4 0-2 .6-1.9 2.2m440.9.7c1.6 3.1 3.2 3.6 1.8.7-.6-1.4-1.5-2.6-2-2.6s-.4.9.2 1.9m-259.1 3.8c-1.3 1.6-1.2 1.7.4.4.9-.7 1.7-1.5 1.7-1.7 0-.8-.8-.3-2.1 1.3m284.8.4c.7.7 1.5 1 1.8.7s-.2-.9-1.2-1.2c-1.4-.6-1.5-.5-.6.5m-299.1 3.5c-.5 1.4-.4 1.5.9.4 1.7-1.4 1.9-2 .6-2-.5 0-1.2.7-1.5 1.6m271.4 3.7c2.4 2.6 4.6 4.7 4.7 4.7 1.2 0-2.3-4.2-5.4-6.5l-3.8-2.8zm-263.3-.6c-.4.3-.7 1.1-.7 1.7s.5.5 1.2-.2c.6-.6.9-1.4.7-1.7-.3-.3-.9-.2-1.2.2m275.8 6.3c.9 1.6 1.8 3 2.1 3 .2 0-.2-1.4-1.1-3-.9-1.7-1.8-3-2.1-3-.2 0 .2 1.3 1.1 3m-459 1c-.3.6.1.7.9.4 1.8-.7 2.1-1.4.7-1.4-.6 0-1.3.4-1.6 1m-3.5 2c-.9.6-1 1-.3 1 .6 0 1.5-.5 1.8-1 .8-1.2.4-1.2-1.5 0m179.5 0c-.3.5-.1 1 .4 1 .6 0 1.1-.5 1.1-1 0-.6-.2-1-.4-1-.3 0-.8.4-1.1 1m142 3.6c2.2 2.1 4.2 3.8 4.4 3.7.7-.4-2.1-3.3-5.3-5.5-2.6-1.8-2.4-1.5.9 1.8m-145.1.5c-1.9 2.2-1.9 2.2.4.8 1.2-.8 2.2-1.7 2.2-2.1 0-1.2-.6-.9-2.6 1.3m-174.6 1.6c.7.3 1.6.2 1.9-.1.4-.3-.2-.6-1.3-.5-1.1 0-1.4.3-.6.6M685 719c-.9.6-1 1-.3 1 .6 0 1.5-.5 1.8-1 .8-1.2.4-1.2-1.5 0m4 0c0 .5.5 1 1 1 .6 0 1-.5 1-1 0-.6-.4-1-1-1-.5 0-1 .4-1 1m3.8-.3c.6.2 1.8.2 2.5 0 .6-.3.1-.5-1.3-.5s-1.9.2-1.2.5m331.2.7c0 .4.7 1.4 1.5 2.2.8.9 1.5 1.1 1.5.6s-.7-1.5-1.5-2.2-1.5-.9-1.5-.6m-346.2 1.3c-1.6.2-2.8.9-2.8 1.4s1.2.6 2.6.3c1.7-.4 2.9-.2 3.5.7.7 1.1.9 1.1.9.1 0-.8.5-1 1.3-.6.8.5.8.2-.2-.9-.7-.9-1.6-1.6-2-1.6-.3.1-1.8.4-3.3.6m-2.4 4.7c-1 .8-1.7 1.7-1.4 1.9.3.3 1.4-.1 2.4-.9 1.1-.7 1.7-1.6 1.5-1.9-.3-.3-1.4.2-2.5.9m190.2 1.2c-1.8 2.5-1.8 2.5.3 1.2 1.2-.7 2.1-1.8 2.1-2.5 0-1.8-.2-1.6-2.4 1.3m165.4-.1c1.3 1.4 2.6 2.5 2.8 2.5.3 0-.5-1.1-1.8-2.5s-2.6-2.5-2.8-2.5c-.3 0 .5 1.1 1.8 2.5m-380.5.5c.3.5 1.1 1 1.6 1 .6 0 .7-.5.4-1-.3-.6-1.1-1-1.6-1-.6 0-.7.4-.4 1m-6 1c.3.5 1.1 1 1.6 1 .6 0 .7-.5.4-1-.3-.6-1.1-1-1.6-1-.6 0-.7.4-.4 1m-7.5.4c0 .2.7.6 1.5 1 .8.3 1.5.1 1.5-.4 0-.6-.7-1-1.5-1s-1.5.2-1.5.4m-7 1.6c0 .5.4 1 .9 1 .6 0 1.3-.5 1.6-1 .3-.6-.1-1-.9-1-.9 0-1.6.4-1.6 1m-10 1c0 .5.5 1 1.1 1 .5 0 .7-.5.4-1-.3-.6-.8-1-1.1-1-.2 0-.4.4-.4 1m44.6.3c-1.6 1.2-1.6 1.4-.3 1.4.9 0 1.8-.6 2.1-1.4.3-.7.4-1.3.3-1.3-.2 0-1.1.6-2.1 1.3m-54.8.4c.6.2 1.8.2 2.5 0 .6-.3.1-.5-1.3-.5s-1.9.2-1.2.5m-14 1c1.2.2 3.2.2 4.5 0 1.2-.2.2-.4-2.3-.4s-3.5.2-2.2.4m63.2 2.4c0 .5-.5.7-1.2.3s-.8-.3-.4.4c.4.6 1.3.9 2.1.6.8-.4 1.2-1 .9-1.5-.7-1.2-1.4-1.1-1.4.2m433.3 1.9c.2.8 1.2 1.6 2.3 1.7 1.3.2 1.5.1.4-.4-.8-.3-1.9-1.1-2.3-1.7-.6-.7-.7-.6-.4.4M654 738.1c0 .5.5.7 1 .4.6-.3 1-.8 1-1.1 0-.2-.4-.4-1-.4-.5 0-1 .5-1 1.1m203.6.5c-2 1.9-2 2.5-.2 1.8.8-.3 1.7-1.2 2-2 .7-1.8.1-1.8-1.8.2m-47.6.4c-.8.5-1.2 1.1-1 1.4.3.2 1.4-.2 2.4-1 2.2-1.5 1-1.9-1.4-.4m-161 2.1c0 .5.5.7 1 .4.6-.3 1-.8 1-1.1 0-.2-.4-.4-1-.4-.5 0-1 .5-1 1.1m155.5 1c-1.7 1.1-2.3 1.9-1.4 1.9 1.7 0 5.7-2.6 4.9-3.3-.3-.2-1.8.4-3.5 1.4M639 745c-1.2.7-1 .9.7.7 1.2 0 1.9-.5 1.7-.9-.6-1-.6-1-2.4.2m-8.2 3.8c-7.6 3.6-7.4 4.8.2 1.5 3.3-1.5 6-3 6-3.5 0-.4-.1-.8-.2-.7-.2 0-2.9 1.3-6 2.7m220.7-.8c-1 1.1-1.6 2.2-1.3 2.5s1.3-.6 2.2-2c2-3 1.6-3.2-.9-.5m179.5 2.5c1.3 1.4 2.6 2.5 2.8 2.5.3 0-.5-1.1-1.8-2.5s-2.6-2.5-2.8-2.5c-.3 0 .5 1.1 1.8 2.5" /><path d="M620.8 753.2c-1.6.5-2.8 1.5-2.8 2.1 0 .8.4.7 1.2-.1.7-.7 2-1.2 3-1.2s1.8-.5 1.8-1c0-.6-.1-1-.2-.9-.2 0-1.5.5-3 1.1m415.2.8c0 .6-.6.8-1.2.4-1-.6-1-.4 0 .7.9.9 1.5 1 2.3.2s.8-1.3 0-1.7c-.6-.4-1.1-.2-1.1.4m-219 1.1c0 .5.5.7 1 .4.6-.3 1-.8 1-1.1 0-.2-.4-.4-1-.4-.5 0-1 .5-1 1.1m-203.7 1.2c-1.7.7-3.5 1.6-4 2.1s0 .6 1 .3c1.1-.4 3-1 4.3-1.3s2.4-1 2.4-1.5-.1-.9-.2-.8c-.2 0-1.7.6-3.5 1.2m426.4 3.7c1.5 1.4 3 2.4 3.3 2.2s-.5-1.2-1.7-2.2c-1.2-.9-2-2-1.8-2.2.3-.3-.2-.5-1.1-.5-1 0-.7.8 1.3 2.7m41.8-.6c.9 1.3 2.4 2.7 3.3 3.1 1 .4.5-.6-1.2-2.4-3.6-3.7-4.2-3.9-2.1-.7m-239.1 2.8c-.4.7-1.4 2.4-2.2 3.8-1.4 2.4-1.3 2.4.3.5 2-2.4 3.7-5.5 3.1-5.5-.3 0-.8.6-1.2 1.2m-27.5 3c-1.2 2.3-1.2 2.3 1 .4 2.3-2.1 2.6-2.6 1.1-2.6-.5 0-1.5 1-2.1 2.2m270.1-.8c0 .2.8 1 1.8 1.7 1.5 1.3 1.6 1.2.3-.4s-2.1-2.1-2.1-1.3m-40.9 1.7c-.1.8.6 2.4 1.5 3.5 1.5 1.9 1.5 1.9.6-.1-.5-1.1-1.2-2.7-1.5-3.5-.5-1.3-.6-1.3-.6.1m2.8 1.4c1 2 7.1 8.1 7.1 7.1 0-.3-1.8-2.4-4.1-4.8-2.2-2.4-3.6-3.4-3-2.3m27.3 6c1.2 2.5 2.4 4.2 2.6 3.6.4-1.2-2.4-6.7-3.8-7.6-.6-.4 0 1.4 1.2 4m-254.2-2c-.6.8-1 1.9-.8 2.6.2.6.9 0 1.6-1.5 1.3-2.9 1-3.3-.8-1.1m671.8.2c.7.3 1.6.2 1.9-.1.4-.3-.2-.6-1.3-.5-1.1 0-1.4.3-.6.6m-662.3 1.4c-.4.6-.5 1.2-.2 1.5.2.3.7-.2 1-1.1.7-1.7.1-2-.8-.4m657.3-.4c.6.2 1.8.2 2.5 0 .6-.3.1-.5-1.3-.5s-1.9.2-1.2.5m-637.1 5.8c-1.5 3-2.3 5.5-1.9 5.5 1.1 0 4.7-6.3 4.4-7.8-.2-.6.2-1.2.8-1.2.5 0 1-.5 1-1 0-2.5-1.8-.6-4.3 4.5m612.8-1.5c.3.5 1.2.7 2 .3 2.1-.7 1.9-1.3-.6-1.3-1.1 0-1.8.4-1.4 1m-7 1c2.8 1.2 3.7 1.2 3 0-.3-.6-1.6-1-2.8-.9-2.1 0-2.1.1-.2.9m-7.5 1c3.4 1.1 6 1.1 3.5 0-1.1-.5-2.9-.8-4-.8-1.6 0-1.5.2.5.8m-407 1.4c0 .2.8 1 1.8 1.7 1.5 1.3 1.6 1.2.3-.4s-2.1-2.1-2.1-1.3m400.8.3c.6.2 1.8.2 2.5 0 .6-.3.1-.5-1.3-.5s-1.9.2-1.2.5m-11.5 1c.9.2 2.5.2 3.5 0 .9-.3.1-.5-1.8-.5s-2.7.2-1.7.5m-367.8 6.3c1 1.1 2 2 2.2 2s-.1-.9-.7-2-1.6-2-2.2-2-.3.9.7 2m-219.9 3.4c-1.3 2-1.3 2.4-.2 2 .8-.3 1.7-1.3 2-2.1 1-2.6 0-2.5-1.8.1m-.6 5.6c-.9.6-1 1-.3 1 .6 0 1.5-.5 1.8-1 .8-1.2.4-1.2-1.5 0m-215.6 6.2-1.9 2.3 2.3-1.9c1.2-1.1 2.2-2.1 2.2-2.3 0-.8-.8-.2-2.6 1.9m198.1 3.9c-.4.6-.5 1.2-.2 1.5.2.3.7-.2 1-1.1.7-1.7.1-2-.8-.4m416.5 10.4c0 .7 6.1 3.7 6.6 3.3.2-.3-1.2-1.2-3.1-2.1s-3.5-1.5-3.5-1.2m-183.1 7.2c1.2 1.8 2.4 3.3 2.7 3.3.9 0-1.5-3.7-3.3-5.1-1.2-1-1.1-.5.6 1.8m-141.4 8.4c-1.4 1.7-2.3 3.4-1.9 3.8.4.3.9 0 1.1-.7.3-.6.9-1 1.4-.6.5.3.9 0 .9-.5 0-.6.7-1.1 1.6-1.1 1.3 0 1.4-.3.5-1.3-.6-.8-.8-1.7-.4-2 .3-.4.4-.7.1-.7-.4 0-1.8 1.4-3.3 3.1m62.6-2.7c.2.2 1.5.9 2.9 1.5 2.4 1.1 2.4 1.1.6-.3-1.6-1.3-4.9-2.4-3.5-1.2M1380 832c-.6 1.1-.8 2-.6 2 .3 0 1-.9 1.6-2s.8-2 .6-2c-.3 0-1 .9-1.6 2m-541 1.5c-.7.9-.8 1.5-.2 1.5.5 0 1.2-.7 1.6-1.5.3-.8.4-1.5.2-1.5s-.9.7-1.6 1.5m142-.1c0 .2.8 1 1.8 1.7 1.5 1.3 1.6 1.2.3-.4s-2.1-2.1-2.1-1.3m395.5 3.5c.4.8.2 1.7-.6 2.2-.9.6-1 .9-.2.9 1.9 0 2.7-2.1 1.3-3.3-1-.9-1.1-.9-.5.2m-396.3 5.6c0 1.6.2 2.2.5 1.2.2-.9.2-2.3 0-3-.3-.6-.5.1-.5 1.8m-411.7-.5c-.3.6.1.7.9.4 1.8-.7 2.1-1.4.7-1.4-.6 0-1.3.4-1.6 1m76 15c-.3.6.1.7.9.4 1.8-.7 2.1-1.4.7-1.4-.6 0-1.3.4-1.6 1m200.1.6c-.9 2.4-.2 2.6 1.2.4.7-1.1.8-2 .3-2s-1.2.7-1.5 1.6m220.4 1.3c0 1.3 2.8 3.3 3.3 2.3.3-.4-.3-1.3-1.4-2-1-.7-1.9-.8-1.9-.3m296.4.3c-.5.7-.2.9.8.5 1.2-.4 1.4-.1 1 1.6-.3 1.2-.7 1.6-1 .9-.7-2.2-2.1-1.3-4.2 2.8-2.1 4.2-1.8 5.3.7 2.2 1.3-1.5 1.3-1.5.3.5-.6 1.3-1.7 2.3-2.5 2.3-2 0-3 2.1-1.5 3 .9.6.7 1-.7 1.4-2.2.7-8.9 9.4-7.9 10.3.3.4.6.1.6-.7 0-.9.3-1 1.4-.1s1.7.6 3.1-1.5c.9-1.5 1.8-3.3 1.9-4 .1-.8 1-2 1.9-2.6.9-.7 1.7-1.9 1.9-2.7.2-.7 1.3-2.5 2.6-3.9q2.25-2.55 1.2-3.6c-1.5-1.5-1.2-3 .4-1.7 1.2 1 1.8.7 3-1.7 1.4-2.7 1.4-3.1 0-3.6-2.1-.8-2.2-.8-3 .6M633.5 862c-.3.6.1.7.9.4 1.8-.7 2.1-1.4.7-1.4-.6 0-1.3.4-1.6 1m-8.2 3c-2.4 1-4.3 2.1-4.3 2.4 0 .7 7.2-2.3 8.5-3.5 1.3-1.3.5-1.1-4.2 1.1m352.7 2.5c0 .5.5 1.7 1 2.5s1 1 1 .5c0-.6-.5-1.7-1-2.5s-1-1.1-1-.5m-363.9 2.1c-1.8.8-3.1 1.7-2.8 2 .5.6 6.7-2.3 6.7-3.1 0-.6.3-.7-3.9 1.1m441 0c0 1.1.3 1.4.6.6.3-.7.2-1.6-.1-1.9-.3-.4-.6.2-.5 1.3M608.5 872c-.3.5-.1 1 .4 1 .6 0 1.1-.5 1.1-1 0-.6-.2-1-.4-1-.3 0-.8.4-1.1 1m735.5 14.9c0 .6.4 1.3 1 1.6s.7-.1.4-.9c-.7-1.8-1.4-2.1-1.4-.7m-4.5 6.2c-.4.6-.5 1.2-.2 1.5.2.3.7-.2 1-1.1.7-1.7.1-2-.8-.4m2.9-.3c.3.5 0 1.3-.6 1.5-.9.4-1 .6-.1.6 1.7.1 2.5-1.6 1.2-2.5-.7-.4-.9-.3-.5.4m-7.9 7.2c-.3.6.1.7.9.4 1.8-.7 2.1-1.4.7-1.4-.6 0-1.3.4-1.6 1m-727.2 10.1c-2.9 2.2-5.3 4.2-5.3 4.4 0 .3 2.4-1.2 5.3-3.2 6.5-4.5 7.4-5.3 6.2-5.2-.6 0-3.4 1.8-6.2 4m896.5 3.6c.6.2 1.8.2 2.5 0 .6-.3.1-.5-1.3-.5s-1.9.2-1.2.5m-14 1c1.7.2 4.7.2 6.5 0 1.7-.2.3-.4-3.3-.4s-5 .2-3.2.4m-7 1c.7.3 1.6.2 1.9-.1.4-.3-.2-.6-1.3-.5-1.1 0-1.4.3-.6.6m-232.2 15.1c-.3.5.1.9.9.9s1.2-.4.9-.9c-.3-.4-.7-.8-.9-.8s-.6.4-.9.8m3.1 1.9c-.7.6 11.9 8.2 13.8 8.3 1.2 0-1.7-2-7.5-5.1-2.5-1.3-4.8-2.7-5.1-3.2-.3-.4-.8-.4-1.2 0m-589.3 11.6c-.7.7-7.6 5.7-15.4 11.2-13.6 9.6-20 14.8-10.9 8.8 10.7-6.9 27.9-19.5 27.9-20.4 0-1.2-.2-1.1-1.6.4m609.6.1c0 .2.8 1 1.8 1.7 1.5 1.3 1.6 1.2.3-.4s-2.1-2.1-2.1-1.3m-341.9 11.2c0 1.1.3 1.4.6.6.3-.7.2-1.6-.1-1.9-.3-.4-.6.2-.5 1.3m34.1 1.4c0 1.9.2 2.7.5 1.7.2-.9.2-2.5 0-3.5-.3-.9-.5-.1-.5 1.8m343.8 6c3 1.6 6 2.9 6.5 2.9.6 0-1.5-1.3-4.5-2.9s-5.9-2.9-6.5-2.9c-.5 0 1.5 1.3 4.5 2.9m-96-.9c0 .5.4.8.9.5s1.1 0 1.4.8c.5 1.2 10.8 7.6 12.3 7.6 1 0-2-2.5-7.8-6.3-6.3-4-6.8-4.2-6.8-2.6m105 4.5c0 .8 7.1 3.6 7.7 3 .3-.3-1.2-1.2-3.2-2-4.1-1.8-4.5-1.8-4.5-1m-386.7 5.9c0 2.2.2 3 .4 1.7.2-1.2.2-3 0-4-.3-.9-.5.1-.4 2.3m-306.7-1c-1.1.8-1.6 1.5-1 1.5.5 0 1.8-.7 2.8-1.5 1.1-.8 1.6-1.5 1-1.5-.5 0-1.8.7-2.8 1.5m704.4-.5c.8.5 2 1 2.5 1 .6 0 .3-.5-.5-1s-1.9-1-2.5-1c-.5 0-.3.5.5 1m-100 1c0 .5.5 1 1.1 1 .5 0 .7-.5.4-1-.3-.6-.8-1-1.1-1-.2 0-.4.4-.4 1m109.5 2.4c1.7.7 4.1 1.6 5.5 2 2 .5 1.9.3-.5-.8-1.6-.7-4.1-1.6-5.5-2-2-.5-1.9-.3.5.8m-373.4 2.2c0 1.1.3 1.4.6.6.3-.7.2-1.6-.1-1.9-.3-.4-.6.2-.5 1.3m221.9-1c0 1.3 12.8 13.9 13.4 13.3.3-.3-2.6-3.6-6.4-7.4-3.9-3.8-7-6.5-7-5.9m162 2.4c.8.5 2.2.9 3 .9 1 0 .8-.3-.5-.9-2.7-1.2-4.3-1.2-2.5 0m7 2c.8.5 2.2.9 3 .9 1 0 .8-.3-.5-.9-2.7-1.2-4.3-1.2-2.5 0m17.8 4.7c.7.3 1.6.2 1.9-.1.4-.3-.2-.6-1.3-.5-1.1 0-1.4.3-.6.6m4 1c.6.2 1.8.2 2.5 0 .6-.3.1-.5-1.3-.5s-1.9.2-1.2.5m5 1c.7.3 1.6.2 1.9-.1.4-.3-.2-.6-1.3-.5-1.1 0-1.4.3-.6.6m5 1c.7.3 1.6.2 1.9-.1.4-.3-.2-.6-1.3-.5-1.1 0-1.4.3-.6.6m-704.3 1.5c-2.1 1.1-9.7 7.2-15.1 12.1-3 2.6-4.6 7-1.7 4.6.7-.6 1.1-1.5.8-1.9-.3-.5-.1-1.1.5-1.5.5-.3 1-.1 1 .5s2.7-1 6-3.5 6-5.1 6-5.6c0-.6.4-.8.9-.5.4.3 1.8-.5 3-1.8 2.5-2.7 1.6-4-1.4-2.4m2.5.1c0 .2-.9 1.2-1.9 2.1-1.4 1.3-2.1 1.4-2.7.5-.4-.7-.3-1 .3-.6s1.6 0 2.3-.8c1.2-1.4 2-1.9 2-1.2m242.1 1.3c0 1.1.3 1.4.6.6.3-.7.2-1.6-.1-1.9-.3-.4-.6.2-.5 1.3m224.7 11.5c.6.9 1 1.8.7 2.1-.3.2 1.2 2 3.1 3.9 2.8 2.6 3.4 2.9 2.5 1.1-.7-1.3-1.9-2.6-2.7-2.9-.7-.3-1.2-.9-.9-1.3.2-.4-.5-1.6-1.8-2.6-1.3-1.2-1.7-1.3-.9-.3m-410.9 9.7c-1.3 1.5-3.6 4-4.9 5.6l-2.5 3 4-3.1c5.3-4.1 7.8-7 6.7-7.7-.5-.3-2 .7-3.3 2.2m3.1-1.4c0 .2-.8 1-1.7 1.7-1.6 1.3-1.7 1.2-.4-.4s2.1-2.1 2.1-1.3m144.2.6c-1.5 2.5-1.5 5.7-.1 6.6.9.5 1-.1.5-2-.4-1.7-.2-3.4.5-4.2s1-1.6.8-1.9c-.3-.2-1 .5-1.7 1.5m271.8.7c0 .5 1.1 2 2.5 3.3s2.5 1.9 2.5 1.3c0-.5-1.1-2-2.5-3.3s-2.5-1.9-2.5-1.3m-439.1 3.5c-.7 1.3-1.9 3.4-2.7 4.8-1.4 2.4-1.3 2.4.3.5 2-2.4 4.8-7.5 4.1-7.5-.3 0-1.1 1-1.7 2.2m-70.3 0c.3.5 1 .6 1.5.3 1.3-.9 1.1-1.2-.6-1.2-.8 0-1.2.4-.9.9m269.5.4c0 1.1.3 1.4.6.6.3-.7.2-1.6-.1-1.9-.3-.4-.6.2-.5 1.3m88.1 2.4c0 1.4.2 1.9.5 1.2.2-.6.2-1.8 0-2.5-.3-.6-.5-.1-.5 1.3m-367.7 4c-.3.6.1.7.9.4 1.8-.7 2.1-1.4.7-1.4-.6 0-1.3.4-1.6 1" /></g><g fill="#a50" stroke-width="0"><path d="M1274.8 287.5c.6 1.1 1.9 2.8 3 3.8 1.2 1.1 1.8 2.6 1.5 3.7-.4 1.7-.8 1.8-2.7.8-1.1-.6 3.5 4.9 10.4 12.3 14.1 15.2 23.7 25.9 23.9 26.5 0 .2.1.7.1 1 0 .4.7.1 1.6-.6.9-.9 1.4-2.5 1.2-4.6-.3-2.5-2.8-5.9-11-15.1-12.5-13.8-29.5-30.7-28-27.8m-324.9 45.1c-.1 6-.5 14.3-.9 18.4l-.7 7.5-.1-5.8c-.1-3.3-.6-5.7-1.3-5.7-1.1 0-.6 18.9.8 31.5 1 8.8.7 75.3-.4 80.5-.5 2.6-.5 10.6-.1 19 .9 15.2.6 19.9-.7 14-.7-2.9-.9-3.1-1.6-1.5-.4 1.2-.6-.1-.3-3 .3-3.8.2-4.5-.6-3-.7 1.5-.8.9-.4-2.5.3-3.2-.5-8.6-2.9-18.5-6-24.4-7-31-6.4-41.5.3-5.2 1.3-11.8 2.1-14.5 1.4-4.3 1.4-4.7.1-3.1-.8 1.1-1.5 2.7-1.5 3.5 0 3.6-1.6 3.8-1.7.3 0-2-.5-6-1-8.7-1.7-8.2-.7 35.5 1 44.7.8 4.3 1 7.8.6 7.8-.5 0-.9-.4-.9-.9 0-1.6-9.1-20.4-9.6-19.8-.3.2 1.1 3.8 3 7.8 3.8 8 13.9 36 13.2 36.6-.2.2-2.1-2.4-4.1-5.9-12.2-20.4-21.5-31.6-30.4-36.6-5.5-3.1-5.2-2.3.7 1.8 6.4 4.5 11.9 9.8 14.5 14 1.2 1.9 3.5 5.3 5.2 7.6 4.9 6.3 11.3 20.1 13.5 28.9 1.1 4.4 2 8.4 2 9 0 .5-2-3.1-4.5-8-3.8-7.6-6-10.4-13.8-17.8-7.3-6.9-11.1-9.6-18.2-13.1-4.9-2.4-10.6-4.6-12.5-5-6.9-1.2-19.3-5.6-30.7-10.7-5.5-2.5-7.1-2.4-4.8.1 1.8 2 1.8 2.1-.1 1.4-1.1-.4-.6.5 1.4 2.1l3.3 2.8-5.3 2.1c-13 5.3-24.1 15.6-32.1 29.9-4.8 8.5-9.2 19.7-7.8 19.7.4 0 2-3.5 3.5-7.8 6.4-18.4 23.4-36.7 37.9-41 5-1.4 5.1-1.4 7.1 1 6.8 8 8.6 10.4 8.6 11.5 0 .6.8 1 1.8.8.9-.2 1.9-.4 2.1-.4.3-.1-.4-1.1-1.5-2.4-3-3.3-6.1-8.5-4.2-7 .8.7 1.7 1 2 .7s2.1.5 3.9 1.6c2.8 1.8 2.9 2 .9 1.5-1.4-.4-3.1-1.2-3.8-1.8-.9-.7-1.1-.6-.7.5.3.8 2.9 2.4 5.8 3.6 4.8 2 5 2 2.7.2-1.6-1.2-2-2-1.1-2 .8 0-1.3-1.8-4.6-4-7.4-4.8-10.2-8.2-4.1-4.9 1.2.6 7.3 2.2 13.7 3.5 11.8 2.4 23.4 7.3 29.3 12.2 5.3 4.4 14.7 17.1 18.7 25 4.3 8.6 8 22.1 8.7 32.2.3 5.3.2 5.9-.6 3.5-.6-1.7-1.5-6.1-2-9.9-1.3-8.4-4.5-14.4-13.3-24.5-7.9-9.1-22.5-22.3-27.2-24.5-1.9-.9-4-2.2-4.7-2.9s-3.3-2.3-5.8-3.6l-4.5-2.3 2.5 2.5c1.4 1.4 4.8 3.8 7.7 5.4 2.8 1.5 7.1 4.7 9.5 6.9 2.4 2.3 5.3 4.4 6.5 4.8 1.9.6 15 13.6 13.8 13.6-.3 0-.1.9.5 2s1.4 1.9 1.8 1.7c.4-.1.7.1.7.4 0 .4.7 1.5 1.6 2.5 2.8 3.3 7.3 11.9 7.1 13.3-.2.7 0 1.1.5.8.4-.3.8.5.9 1.6.1 1.2.4 3.8.8 5.7.5 2.7.4 3-.3 1-2.2-6.3-5.1-12-6.1-12-.6 0-.8-.4-.5-1 1.3-2-6-11.9-13.8-18.9l-5.2-4.6 3.8 4.5c2 2.5 5.3 6.5 7.4 9 4.7 5.8 12.6 22.4 15.2 32 2.3 8.1 2.7 13.5 1.1 12.5-.6-.4-.8-1-.5-1.5.7-1.2-3.5-11-4.7-11-.5 0-.7-.4-.4-.9 1.3-2-5.7-16.2-10.3-20.9-5.4-5.5-15.3-13.9-16.3-13.8-.3.1-1.7-.8-3-1.9-1.3-1.2-3.2-2.7-4.3-3.5-1.9-1.4-1.9-1.4-.6.3.7.9 4.6 4.1 8.5 7.1 3.9 2.9 9.4 7.4 12.2 10 5.2 4.6 10 12.8 8.8 14.8-.4.6-.3.8.3.5 1-.6 4.8 6.2 3.9 7.1-.3.3.3 1.9 1.3 3.6 2.7 4.3 5.1 15.5 5.6 25.6.2 4.7.2 7.4-.1 6-1.7-8.3-10.7-30-12-28.8-.2.3 1.3 4.3 3.5 9 2.2 4.6 4.6 10.8 5.5 13.8 2.2 7.2 3.2 20.5 1.8 23.3-1.2 2.6-2.3 24.4-1.1 22.5.5-.7.9-2.8.9-4.6s.4-4.1.9-5 1-4.6 1.2-8.2.8-6.8 1.2-7.1c.5-.3.9-8.1 1-17.1.1-9.1.5-16.1.9-15.4.4.6.8-.2.9-1.9.3-4.2.3-3.7-.4-16.1-.6-9.5-.5-11.1.8-11.1.8 0 1.5.5 1.4 1.1-.3 2.2.1 4.9.6 4.4.6-.6 1.6-13.5 2-27.3.5-15.7.4-15.2 1.3-13.8.5.7.7 11 .6 22.9-.1 11.8.1 22.4.3 23.5 1 3.5 2.3 1.9 2.4-2.9 0-2.6.5-5.6 1-6.7.7-1.5.8-.9.5 2.2-.7 7.6.9 4.6 2.7-4.9 1.8-10 1.7-13-.3-4.8l-1.2 5.1-1.4-2.7c-1.8-3.4-2.1-18.2-1.3-53.9.4-14.3.4-22.9 0-19-.6 6.9-.6 6.9-1.4-5.5-1-15.6-.7-46.5.5-43 .4 1.4.5-5.2.3-14.7-.4-13-.1-19.4 1.1-26.3.8-5.1 1.3-9.4 1.1-9.7-.3-.2-1.1 2.9-1.8 6.9l-1.3 7.3-.7-15.3c-.4-8.5-1-15.6-1.3-15.9-.3-.4-.7 4.3-.7 10.3m.8 29.6c-.3.8-.6.5-.6-.6-.1-1.1.2-1.7.5-1.3.3.3.4 1.2.1 1.9m-87.3 81.4c.5 1.4.4 1.5-.9.4-1.7-1.4-1.9-2-.6-2 .5 0 1.2.7 1.5 1.6m87.9 26.9c-.7 5-.7 5-1.3 1.5-.6-3.3-.6-5.5 0-12.5.2-2.6.3-2.4 1.1 1.5.5 2.5.6 6.7.2 9.5m-5.5 32.1-.3 5.9-.5-6.7c-.3-3.7-.1-6.3.3-5.9s.7 3.5.5 6.7m1.9 4.1c-.2 1.6-.4.5-.4-2.2 0-2.8.2-4 .4-2.8.2 1.3.2 3.5 0 5M944 539c0 1.3-.1 1.3-1 0-.5-.8-1-2.2-1-3 0-1.3.1-1.3 1 0 .5.8 1 2.2 1 3m-4.3 48.2c-.3.8-.6.5-.6-.6-.1-1.1.2-1.7.5-1.3.3.3.4 1.2.1 1.9" /><path d="M945.2 338c0 1.9.4 4.6.8 6 .8 2.4.8 2.4.8-.5 0-1.7-.4-4.4-.8-6l-.8-3zm9 20c0 1.4.2 1.9.5 1.2.2-.6.2-1.8 0-2.5-.3-.6-.5-.1-.5 1.3m-20.9 21c0 4.1.2 5.8.4 3.7.2-2 .2-5.4 0-7.5-.2-2-.4-.3-.4 3.8M622 377.8c-3.5 2.9-1.6 4.7 2 2 3.2-2.3 5.2-1.9 2.7.6-.8.8-1.8 1.2-2.1.9-.4-.4-.6.2-.5 1.3.1 1 .1 2.8.1 3.8-.2 1.9-.2 1.9-2.4 0l-2.3-1.9 1.9 2.2c2.3 2.8 6.7 3 8.9.5 2.2-2.4 2.3-7.2.2-7.2-.8 0-1.5-.5-1.5-1.1 0-.5.6-.7 1.3-.4.6.4.3-.1-.7-.9-2.6-2.1-4.9-2-7.6.2m656.1.1c-1.2 1.2-2.1 3.2-2.1 4.6 0 2.5 3.9 7.5 5.9 7.5 2.8 0 5.9-2.2 7.1-5s1.1-3.4-.7-5.8c-2.6-3.5-7.4-4.1-10.2-1.3m-333.4 8.6c-.9 2-1.7 4.1-1.7 4.8s.9-.8 2-3.2c2.4-5.2 2.1-6.6-.3-1.6m-11.6 5.1c0 1.1.3 1.4.6.6.3-.7.2-1.6-.1-1.9-.3-.4-.6.2-.5 1.3m8.3 2.2c-1.2.9-3.8 7.1-3.2 7.7.3.3 1-.7 1.7-2.3.8-1.5 1.7-3.5 2.2-4.5 1-1.9.9-2-.7-.9m25.5 6.2-.4 7.5-2.9-5.8c-1.6-3.1-3.3-6-3.8-6.3s-.1 1.1 1 3.2c5.6 11 6.8 25.5 3.1 39.5-1.1 4.4-2.7 9.2-3.5 10.7-.7 1.5-1.4 5.3-1.4 8.4 0 5.4-1.1 7.5-2.3 4.5-.3-.6-.5 1-.5 3.8.1 4.7.1 4.8.8 1.5l.7-3.5.2 4.2c0 2.3-.6 6.8-1.4 10-.9 3.2-1.7 9.2-2 13.3-.3 5.8-.2 6.7.5 4s.8-1.6.5 4.5c-.2 4.4 0 8.9.5 10 .6 1.3.9 1.5.9.5.1-.8.6-3.3 1.2-5.4.8-3 1.3-3.6 2-2.5.7 1 .8.6.4-1.2-.4-1.6-.1-3 .9-3.8.8-.7 1.2-2 .9-2.8-.4-1-.2-1.4.4-1s1.8-1.1 2.8-3.5c2.7-6.8 11.2-18.2 17.8-23.9 3.4-3 6.7-6.1 7.4-6.9s1.3-1.1 1.3-.6.8.2 1.8-.7c.9-.8 1.9-1.5 2.2-1.5 1.4.3 11.3-3.6 10.3-3.9-3.2-1.1-15.8 4.8-24.2 11.2-6.7 5.3-11.4 11.2-17 21.5-4.4 8.2-5.6 7-2.1-2.2 1.1-2.9 1.6-5.6 1.1-6.1s-1.2.8-1.6 3c-.6 3.2-.8 3.5-1.5 1.7-.8-1.9 4.5-24.7 7-30.2.5-1.3 1-3.1 1-4-.1-2.4-2.9 4.1-5 11.3-.9 3.3-2.1 6-2.6 6-1.3 0-1.7-9.7-.5-13.7.7-2.5.8-1.3.5 5.2l-.4 8.5 2-7c4.2-15.2 6.1-36 5-54.8l-.6-10.2zm-7.2 69.7c-.3 1-.5.2-.5-1.7s.2-2.7.5-1.8c.2 1 .2 2.6 0 3.5m.2 16.5c-.1 4.2-.3 4.8-.9 2.8-.6-1.9-.9-.7-1.1 4.5l-.3 7-.4-6c-.3-5 1.2-13.5 2.5-13.5.1 0 .3 2.4.2 5.2m-5.8-81.6c0 1.1.3 1.4.6.6.3-.7.2-1.6-.1-1.9-.3-.4-.6.2-.5 1.3m.1 4.4c0 1.4.2 1.9.5 1.2.2-.6.2-1.8 0-2.5-.3-.6-.5-.1-.5 1.3m-335 1.4c.8.9 1.9 1.1 2.9.5 2.4-1.2 2.8-.3 1.7 4.1-1.1 4.2-2.4 4.8-6.1 2.8-2-1-2.1-1-.8.5 1.7 2.1 6.5 2.2 8.5.1 3.7-3.6.9-9.4-4.5-9.4-2.5 0-2.8.2-1.7 1.4m662.8.5c-2.5 4.7.3 10.1 5.2 10.1 2.5 0 5.8-3.6 5.8-6.3 0-5.1-8.7-8-11-3.8m-337.5 19.6c.3 2.2.5 5.2.5 6.7 0 1.6.5 2.8 1 2.8 1.1 0 .4-6.4-1.2-11-.6-1.9-.7-1.5-.3 1.5m-104.7 4.2c.6.2 1.8.2 2.5 0 .6-.3.1-.5-1.3-.5s-1.9.2-1.2.5m116.4 2.8c0 1.6.2 2.2.5 1.2.2-.9.2-2.3 0-3-.3-.6-.5.1-.5 1.8" /><path d="M971.6 437.5c-.9 2.6-.7 3.2.5 1.2.6-1 .9-2.1.6-2.3-.2-.3-.7.2-1.1 1.1m11.5 5.1c-2.3 2.6-4.1 5.4-4.1 6.2s-.3 1.2-.7.9c-.7-.8-4.7 4.3-7.4 9.5-3 5.9-.8 4.5 3.6-2.3 2.2-3.4 4.9-6.8 6-7.5 1.1-.8 1.5-1.4 1-1.4-.4 0 .1-1 1.2-2.3 2.5-2.7 5.7-7.7 5-7.7-.3 0-2.4 2.1-4.6 4.6m-364.2-2.9c-.1.5 0 1.2.1 1.8.1.5-.2.7-.6.3-1.2-1.2-3.4 1.3-3.4 3.8 0 3.1 3.3 6.4 6.5 6.4 1.4 0 3.4-.9 4.5-2s2-3.1 2-4.5-.9-3.4-2-4.5c-1.9-1.9-6.9-2.8-7.1-1.3m5.1 4.3c0 .5-.7.7-1.5.4-.8-.4-1.5-.8-1.5-1s.7-.4 1.5-.4 1.5.4 1.5 1m-4.5 5.8c-.3.3-1.1 0-1.8-.7-.9-1-.8-1.1.6-.5 1 .3 1.5.9 1.2 1.2M1282 441c-4.3 4.3-1.4 11 4.8 11 5.9 0 8.3-7.2 3.6-10.9-3.3-2.6-5.8-2.7-8.4-.1m2 4c0 3.2-1.7 3.1-1.8-.1 0-1.6.4-2.7.9-2.4.5.4.9 1.5.9 2.5m-243-4c-.8.5-1.2 1.2-.9 1.5.4.3 1.2-.1 1.9-1 1.4-1.7 1.1-1.9-1-.5m-94.7 6.5c0 3.8.2 5.3.4 3.2.2-2 .2-5.2 0-7-.2-1.7-.4-.1-.4 3.8m23.3-4.8c-.6 1.4-.5 1.5.5.6.7-.7 1-1.5.7-1.8s-.9.2-1.2 1.2m69.8 4.4c-.3.5.6.9 2 .9 3.1 0 3.4-.6.6-1.3-1.1-.3-2.3-.1-2.6.4m-19.9.9c-.3.5-.1 1 .4 1 .6 0 1.1-.5 1.1-1 0-.6-.2-1-.4-1-.3 0-.8.4-1.1 1m3.2.1c.7.7 1.5 1 1.8.7s-.2-.9-1.2-1.2c-1.4-.6-1.5-.5-.6.5m8.2 3.6c-2.4 2.7-6.6 8.1-9.3 12-2.7 4-5.4 7.3-5.9 7.3s-3.2 2.4-6 5.3c-2.9 2.9-9.5 8.8-14.7 13.2-11.5 9.6-19.4 17-22.2 20.9-1.2 1.5 1.1-.4 5-4.3s9.1-8.3 11.5-9.9c3.9-2.4 14.8-11.6 21.9-18.4 1.5-1.4 2.8-2.4 2.8-2.1s-2.2 3.8-4.9 7.7c-5.5 8.1-9.5 15.6-8.4 15.6 1 0 3.8-4.2 3.5-5.3-.3-1 3.5-6.5 5.9-8.7 2.3-2.1 17.9-25.5 17.9-26.9 0-.6.4-1.1.9-1.1s2-1.7 3.2-3.8c1.3-2 2.7-4.3 3.2-5 1.6-2.4-.1-1.1-4.4 3.5m-18.6-1.4c-2.4.5-4.3 1.3-4.3 1.7s2 .3 4.5-.3 4.5-1.4 4.5-1.9c0-.4-.1-.7-.2-.7-.2.1-2.2.6-4.5 1.2m7.7 5.4c-1.4 1-3.1 1.8-3.9 2-.8.1-1.8.9-2.3 1.8-.5.8-1.3 1.3-1.9 1-.5-.4-.9-.1-.9.4 0 .6.3 1.1.8 1.1 1.4 0 12.5-7.9 11.2-8-.3 0-1.7.8-3 1.7m46.5 6.3c1.4 1.9 4.4 5.9 6.6 8.7 2.2 2.9 4.2 5.3 4.5 5.3.9 0-5.3-8.4-9.6-13-3-3.2-3.4-3.5-1.5-1m-63.6 3.2c-3.5 2.3-6.6 4.6-6.7 5-.2.5-.8.6-1.2.3-.5-.3-1.1-.1-1.4.4-.8 1.2 1.8.8 3.5-.6.8-.6 3.2-2 5.4-3.2 4.9-2.5 8-4.9 7.4-5.6-.3-.2-3.4 1.4-7 3.7M876 463.7c0 .3 1.7 2.3 3.8 4.3 2 2 5 5.3 6.5 7.2 2.4 3 11.7 11.5 11.7 10.6 0-.2-4-4.5-8.9-9.5-5-5.1-9.2-10.2-9.6-11.3-.6-1.8-3.5-2.9-3.5-1.3" /><path d="M966.7 467.5c-.9 1.9-1.3 3.6-.8 3.9.6.4 4.1-5.4 4.1-6.9 0-1.7-1.9 0-3.3 3m-406-.9c-.4.4-.7 1.6-.7 2.6 0 1.4.6 1.9 2.3 1.6 1.4-.2 2.2-1 2.2-2.3 0-2-2.5-3.2-3.8-1.9m782.3 1.9c0 3.2 2.8 4.5 4.6 2.1 1.7-2.4.7-4.6-2.2-4.6-1.9 0-2.4.5-2.4 2.5m-721.9 3.4c-1.2 1.2-2.1 3.1-2 4.3 0 1.3.3 1.7.6 1 .2-.6.9-1.2 1.5-1.2.5 0 1.6-.7 2.5-1.5.8-.8 1.9-1.3 2.4-1 .5.4.9.1.9-.4 0-.6.5-1.1 1.1-1.1.5 0 .7.5.3 1.2-.4.6-.3.8.3.5 1.4-.9 2.3 1.5 1.6 4.1-.6 2.5-3.1 3.6-4.7 2.3-1.7-1.5-5.5-1-4.9.6.7 1.8 5.3 2.8 7.2 1.6.9-.5 2.3-2.2 3.1-3.6 1.3-2.4 1.3-2.8-.6-5.4-2.6-3.5-6.6-4.1-9.3-1.4m3.6 8.7c-.3.3-1.2.4-1.9.1-.8-.3-.5-.6.6-.6 1.1-.1 1.7.2 1.3.5m306.9-9.3c.3 1 .9 1.5 1.2 1.2s0-1.1-.7-1.8c-1-.9-1.1-.8-.5.6m347.4-.2c-6.5 2.6-5.1 10.6 2.2 12.4 6 1.5 9.3-7.4 4.2-11.4-3-2.4-3-2.3-6.4-1m-295.7 7.2c-5.3 5.4-11.3 13.5-11.3 15 .1 1.5 5-4.4 5-5.9 0-.6 2.7-3.6 5.9-6.7 3.3-3.1 5.6-5.9 5.2-6.1-.4-.3-2.6 1.4-4.8 3.7m-80.3-1.8c.7.9 3.1 2.5 5.3 3.5 3.9 1.9 3.9 1.9 2.2 0-1-1.1-2.2-1.7-2.6-1.4-.5.3-.9.1-.9-.4s-1.2-1.4-2.7-2.1c-2.4-1.1-2.5-1.1-1.3.4m175.3 1.7c.2.7 1.8 4.6 3.3 8.6 1.6 4 3 6.9 3.2 6.3.4-1.1-5.7-16.1-6.5-16.1-.3 0-.3.6 0 1.2M841 488.1c-2.2 1.8-2.2 1.9-.3 1 1.2-.6 2.5-1.6 2.8-2.1.9-1.5.3-1.2-2.5 1.1m138.6 1.6c-2.1 2.1-5.4 6.3-7.4 9.3-4.5 6.9-5.6 8.2-4.7 5.2.3-1.2.2-2.2-.2-2.2-1.2 0-6 11.7-8.6 21-1.8 6.1-2.2 7-2.8 5-.5-1.9-.7-1.2-.9 2.5 0 2.7-.3 6.8-.5 9-.4 3.9-.4 4 1.1 1.5 1.3-2.2 1.4-.8.9 13.7-.2 9-.1 16.3.4 16.3s1.1 2.6 1.4 5.7c1.9 19.1 3.9 32.3 5 33 .6.3.7-.6.4-2.3-2.2-11.1-2.5-14.1-1.8-23.1.4-5.4.7-10.6.5-11.6-.2-.9.1-1.7.5-1.7.9 0 2.6-6.7 2.2-8.3-.2-1.3 3.9-12.7 5.7-16 .9-1.5 2-2.7 2.5-2.7.4 0 .6-.4.2-1-.3-.5.8-2.8 2.5-5.1 3.2-4.5 4-7 1.5-4.9-.8.7-1.5 1.6-1.5 2s-1.6 3.4-3.5 6.6c-4.4 7.2-6.8 13.6-10.5 27.8l-2.9 11.1v-6c0-3.3.6-9.2 1.5-13 .8-3.9 1.7-8.2 1.8-9.6.2-1.4.6-3.1 1-3.7.4-.7.3-1.2-.3-1.2s-1.5 1.9-2.2 4.2c-.6 2.4-1.5 5.4-2 6.8-1.4 3.9 0-8.6 1.7-15 .8-3 1.4-6.3 1.4-7.5 0-1.1.9-3.6 1.9-5.6 1.1-2 2.1-4.5 2.3-5.5s.9-2.4 1.7-3c1-.8 1.1-1.3.3-1.8-.7-.4-2.3 1.6-4.2 5.4-1.7 3.3-3.3 6-3.6 6s-.2-.5.1-1c.3-.6.1-1-.4-1-.6 0-1.1 1.2-1.1 2.7 0 1.6-.5 3.5-1.1 4.3-.8 1.1-.9.1-.4-3.5.8-5.5 2.4-9.5 2.5-6 0 1.1 1.2-1.2 2.6-5 1.4-3.9 3-8.4 3.6-10 1.2-3.3 10.5-17 15.1-22.2 3.9-4.4 2.9-4.2-1.7.4m-87.6-.9c.6 1.3 1.4 2.1 1.8 1.8.3-.4-.2-1.4-1.2-2.4-1.8-1.6-1.8-1.6-.6.6m444.4 1.7c-.9 2.3.3 4.5 2.5 4.5 2.3 0 3.5-2.8 2-4.6s-3.8-1.8-4.5.1m-503.5 3.6c-3 2.8-3.5 3.4-1.4 2.1 3-2 7.3-6.2 6.3-6.2-.3 0-2.5 1.8-4.9 4.1m232.4-3.4c.4.6 2.6 2.6 4.9 4.5 2.3 1.8 3.9 2.8 3.5 2.1-.4-.6-2.6-2.6-4.9-4.5-2.3-1.8-3.9-2.8-3.5-2.1M894 492.8c0 .4.4 1.2.9 1.7 1.9 2.1 6.9 12.5 7.5 15.8.4 1.9 1.3 4.8 2.1 6.3 1.3 2.7 2.2 6.1 3 11 .2 1.2.7 3 1.3 4 .5 1.1 1.7 4.3 2.6 7.2l1.6 5.4-2.8-1.7-2.7-1.8 2.7 2.9c1.5 1.6 3.2 4.2 3.7 5.7 1.8 4.7 1.3 12.9-1 17.2-1.1 2.2-2.2 5.3-2.5 7-.4 2.8-.3 2.7 1.2-.8l1.7-3.8 1.8 2.8c1.1 1.5 1.9 2.3 1.9 1.8-.1-.6-.7-1.8-1.4-2.7-1.1-1.5-1.1-2.7 0-7 .8-2.9 1.4-6.4 1.4-7.8.1-2.4.1-2.4 1.2-.5.7 1.1 3.3 6.9 5.9 12.9 3 7 4.9 10.4 5.5 9.5.4-.7.3-1.4-.4-1.7-.7-.2-1-.8-.6-1.3.3-.5.1-.9-.3-.9-.5 0-.9-.8-1-1.8-.6-5.2-1-6.7-2.1-6.5-.6.2-.9-.4-.6-1.1.5-1.2-.9-4.1-8-16.7-.9-1.5-2.5-6.2-3.6-10.5-1.2-4.4-3.1-10.9-4.4-14.7-2.6-7.6-1.5-8.9 2.9-3.5l2.6 3.3-1.5-3.2c-.9-1.7-2.1-3.5-2.7-3.8-.7-.5-.4-1.4.8-2.7 1.8-2 1.8-2.1-.4-.9-1.2.6-2.6 1.1-3.2 1.1-.5 0-2.6-3.3-4.5-7.3-5.2-10.5-7-13.7-7.8-13.7-.5 0-.8.4-.8.8m75.6 3.7c-.3.8-.1 1.5.3 1.5.5 0 1.1-.7 1.5-1.5.3-.8.1-1.5-.3-1.5-.5 0-1.1.7-1.5 1.5m115.4-1.4c0 .4.9 4.2 2 8.5 2.8 11.1 2.6 12.8-.6 7.9-4.6-6.9-4.7-6.3-.2 2l4.3 8-.1 35c-.1 28.4.1 31.8.6 18 1.6-37.1 1.3-50.9-1.5-64.4-2.1-10.3-4.3-17.7-4.5-15m-270.9 6.1c-.5 1.3-1.9 6.8-3.1 12.3s-2.9 11.3-3.8 13c-1.2 2.4-1.2 2.8-.1 1.8 1.2-1 1.4.5 1.3 10-.1 6.2 0 8.9.2 6.2 1.2-14.9 2.5-21.6 5.4-26.6 3.4-5.7 4-8.1.9-3.2-1.2 1.8-2.4 3.3-2.9 3.3-.8 0 .5-7.9 2.4-14.5 1.4-4.6 1.2-6.2-.3-2.3m-184.2.2c-6 2.9-4.1 11.6 2.5 11.6 7.9 0 9-9.6 1.5-12.3-.9-.3-2.7 0-4 .7" /><path d="M999.2 500.5c.4.4.1 1.4-.7 2.2S997 505 997 506s-.4 2.2-1 2.5c-.5.3-1 1.5-1 2.6 0 1-.4 1.9-1 1.9-.5 0-1-.5-1-1.1 0-.5-.4-.7-1-.4-.5.3-1 1.1-1 1.6 0 .6.5.7 1.1.3 1.8-1.1.2 7.5-3.7 19.5-1.8 5.8-3.4 11.3-3.4 12.2s-1.8 4.3-4 7.7c-4.6 7.1-10.5 18.6-11.5 22.2-1.7 6.5-1.8 6.7-.1 4.7.8-1.1 1.2-2.6.9-3.5-.5-1.1-.3-1.3.7-.7s1.2.4.7-.8c-.4-1-.1-1.7.5-1.7s.9-.3.5-.6c-.3-.3.3-1.5 1.4-2.7 2.1-2.3 2.5-4.1.7-3.2-.7.4-.6 0 .3-.7s3.1-4.2 5-7.8l3.4-6.5.6 9c.4 5.6.3 9.8-.4 11-.9 1.8-.9 1.9.6.6 1.5-1.1 1.7-1.1 1.7.2 0 .9.4 1.8.9 2.2 1.3.7.8-5.2-.7-8.8-2.7-6.5-.8-17.4 3.7-22.1 4-4.1 4.1-5.9.1-2.1-3.8 3.6-3.9 2.1-.4-6.6 3.1-7.6 5.4-15.6 4.7-16.3-1.6-1.6 3.1.4 4.9 2.1 2.8 2.5 8.8 5.6 9.5 4.9.3-.3 1.4-.1 2.4.5 1.3.6 1.9.6 1.9-.1 0-.5-.6-1-1.3-1-1.8 0-10.9-5-12.9-7.1-2.3-2.3-2.2-4.2.1-11.3 1.3-4 1.5-5.8.7-6.3-.6-.3-.8-.3-.4.2m269.5 2.3c-5.7 6.2 3.1 14.5 9 8.6 2.6-2.6 2.6-6.1.1-9.1-1.6-1.9-7.2-1.6-9.1.5m-447.8 3.9c-1.3 1.6-1.2 1.7.4.4.9-.7 1.7-1.5 1.7-1.7 0-.8-.8-.3-2.1 1.3m93.1.2c-1.3 2.5-1.3 3.4 0 2.6 1.6-1 3.2-4.5 2.1-4.5-.6 0-1.5.9-2.1 1.9m414.2 6c-.8.4-1.2 1.9-1 3.2.4 2.9 4.5 3.4 6.1.7 1.9-3-1.9-6-5.1-3.9m-428.4 6.5c-2.1 1.8-5.5 3.9-7.7 4.6s-3.8 1.7-3.5 2.1c.2.4 2.2.2 4.3-.6 3-1 4.2-1.1 5.1-.2s1.1.8.8-.7c-.2-1.4.4-2.1 2-2.5 1.3-.3 2.3-.8 2.2-1.1s.2-1.3.6-2.3c1.1-2.9.1-2.7-3.8.7m74.4 1.3c-3.4 5.4-5.5 10.3-4.4 10.3s7.7-11.2 7.8-13.3c.1-.9 0-1.7-.1-1.7-.2 0-1.7 2.1-3.3 4.7M856 518.4c0 .2.8 1 1.8 1.7 1.5 1.3 1.6 1.2.3-.4s-2.1-2.1-2.1-1.3m91.1 5.2c0 1.1.3 1.4.6.6.3-.7.2-1.6-.1-1.9-.3-.4-.6.2-.5 1.3m-29.1 5.2c1.3 2.3 3.3 5 4.4 6 1 .9.2-.8-1.8-3.8-4.8-7-5.5-7.6-2.6-2.2m-38.3-2.1c-.9.2-1.5.9-1.2 1.4.9 1.3 2.8 1.1 5.1-.6 1.9-1.4 1.9-1.4-.1-1.4-1.1.1-2.8.3-3.8.6m134.9.8c.7 1.8 2 1.9 2.9.4.4-.6 1.4-.8 2.2-.5s1.1.1.8-.4c-.3-.6-1.9-1-3.5-1-2.2 0-2.8.4-2.4 1.5m9.2-.8c.6.2 1.8.2 2.5 0 .6-.3.1-.5-1.3-.5s-1.9.2-1.2.5m-384.9 4.4c-1.5 1.5-1.9 2.8-1.4 4.7.8 3.2 2.1 4.2 5.6 4.2 3.2 0 5.2-2.1 5.2-5.7 0-5-5.7-6.9-9.4-3.2" /><path d="m1007 530-2.5.8h2.5c1.4 0 3.4-.3 4.5-.8l2-.9-2 .1c-1.1 0-3.1.4-4.5.8m-203 2.7c-1.8 4-5.1 13.6-4.7 13.9.2.2 1.8-3.3 3.5-7.8 3.1-7.8 3.9-11.8 1.2-6.1m454-.8c-2.5 4.8-.3 9.1 4.8 9.1 4.1 0 6.9-6.9 4-9.8-2-2-7.6-1.5-8.8.7m-257.7 1.2c-1.8 1.2-3.3 2.3-3.3 2.5 0 .7 5.8-2.5 6.5-3.6.9-1.4.5-1.3-3.2 1.1m95.7-2c0 .2 1.6 4.9 3.5 10.4 2 5.5 3.3 8.4 2.9 6.5-.9-4.9-6.4-19.6-6.4-16.9m-131.3 9.3c-.8 2.4-1.2 4.7-.9 5.1.4.3 1.2-1.5 1.9-4.2 1.6-6.1 1-6.7-1-.9m351.7-3c-.3.8-.4 2.3-.2 3.3.5 2.5 6.1 2.5 6.6 0 .7-3.7-5.1-6.7-6.4-3.3m-389.9 5.1c.3 1.1 2.9 8.6 5.6 16.6s4.9 15.6 4.9 16.8c0 1.3.4 2 1.1 1.5.6-.3.8-1.6.5-2.8-.4-1.1-.8-3.5-1-5.2-.5-4.4-7.2-22.3-9.7-25.9-1.3-1.8-1.8-2.2-1.4-1m-118.4 11.1c0 1.1.3 1.4.6.6.3-.7.2-1.6-.1-1.9-.3-.4-.6.2-.5 1.3m295 0c0 1.1.3 1.4.6.6.3-.7.2-1.6-.1-1.9-.3-.4-.6.2-.5 1.3m-450.5 3.3c-.4.5.3.7 1.3.4 1.1-.3 2.8 0 3.8.7 1.7 1.1 1.7 1.1 0 .6-1.2-.4-1.7-.2-1.4.6.2.7 1 1.2 1.6 1 1.8-.4 2.5 2.6 1 4.6-1.3 1.5-1.2 1.6.4.3 2.2-1.8 2.2-5.4-.1-7.4-2-1.8-5.7-2.3-6.6-.8m593.3 1.2c-2.2 2.2-1.9 5.5.9 7.6 4.9 3.9 11.6-3.3 7.1-7.8-2.5-2.5-5.4-2.4-8 .2m6.6.3c1.9 1.4 1.9 1.5-.5 3.5-1.6 1.4-1.9 1.9-.7 1.5.9-.3 1.7-.1 1.7.4 0 1.7-1.9 2.4-4.6 1.8-4.1-1.1-2.7-8.3 1.7-8.6.3 0 1.4.6 2.4 1.4m-351.1-.6c.8 1.4 8.6 7.5 8.6 6.8 0-.3-1.2-1.7-2.7-3.1-3.2-3-6.9-5.3-5.9-3.7m202.7.8c0 1.1.3 1.4.6.6.3-.7.2-1.6-.1-1.9-.3-.4-.6.2-.5 1.3m-296 1c0 1.1.3 1.4.6.6.3-.7.2-1.6-.1-1.9-.3-.4-.6.2-.5 1.3m-158 1.5c-.1 1.5.7 3.3 1.6 4 1.3 1.1 1.5 1.1.9.1-.5-.8-1.2-2.6-1.6-4l-.8-2.7zm653.8.5c-.6.7-.8 2.3-.4 3.4 1 3.3 5.9 2.4 6.3-1.1.3-2.1-.2-2.7-2.2-3.1-1.5-.3-3.1.1-3.7.8m4.4 1c.9 1-.4 3.4-1.8 3.4-1.7 0-2.8-1.7-2-3 .7-1.1 2.8-1.3 3.8-.4m-707.9-.1c.3.8-.4 2.1-1.7 3-2.2 1.5-1.2 2 1.7.9 1.8-.7 2.2-5.4.5-5.4-.6 0-.9.7-.5 1.5m504.8.5c0 1.4.2 1.9.5 1.2.2-.6.2-1.8 0-2.5-.3-.6-.5-.1-.5 1.3m-450.4 3.7c.7.3 1.6.2 1.9-.1.4-.3-.2-.6-1.3-.5-1.1 0-1.4.3-.6.6m451.4 1.8c0 1.6.2 2.2.5 1.2.2-.9.2-2.3 0-3-.3-.6-.5.1-.5 1.8m-124.9 6.7c-1.5 2-2.5 3.8-2 3.8.3 0 1.2-1.1 2.1-2.5 1.7-2.6 1.6-3.5-.1-1.3m-89.7 1.1c.3.7 3.2 3.4 6.5 6.1 3.2 2.7 5.9 5.5 5.9 6.2 0 .8.7 1.4 1.5 1.4 2.1 0 9.5 10.5 11.1 15.5.7 2.4 2 5.7 2.8 7.3.9 1.7 1.6 4.1 1.6 5.4 0 2.5 1.6 5.6 2.4 4.7 1-.9-2.2-11.4-5.3-17.9-1.7-3.5-5-8.8-7.3-11.9-2.4-3.1-4.1-6.3-4-7.1.2-1.1.1-1.2-.6-.2-.6.9-1.4.6-3.3-1.4-3.1-3.3-12-9.7-11.3-8.1m112.9 1.7c-1 1.2-2.5 1.8-3.2 1.6-.7-.3-1.2-.2-1 .3.1.5-1.4 2.4-3.3 4.2-1.9 1.9-4.6 4.7-6 6.3l-2.5 2.9 3-1.7c1.7-1 4.1-3.3 5.5-5.2 1.4-1.8 3-3.4 3.5-3.4 1 0 4.5-3.5 5.9-5.8 1.1-1.8.1-1.4-1.9.8m-74.8 1.6c-.4.4-.7 1.4-.7 2.3 0 1.1.3 1.2 1.1.4.6-.6 1-1.6.7-2.3-.2-.6-.7-.8-1.1-.4M665.5 582c-2.7 2.9-1 7.4 2.8 7.8 3.6.4 5.7-1.3 5.7-4.7 0-5.1-5-6.9-8.5-3.1m567.1-.7c-1.2.9-1.7 2.3-1.4 4.7.3 3.1.6 3.5 3.6 3.8 4 .4 6.2-1.2 6.2-4.4 0-4.5-4.7-6.8-8.4-4.1m5.4.7c1.3.9 1.3 1 0 1.1-.8 0-2.5.2-3.7.3-1.8.2-2 0-1.2-1.1 1.3-1.5 2.8-1.6 4.9-.3m-261.9 1.6c-1.2 1.5-2.1 3.1-2.1 3.7 0 1.2-.1 1.3 2.9-3.1 2.7-3.8 2.1-4.3-.8-.6m-54.1-1c0 .6.7 1.9 1.6 3 1.4 1.8 1.4 1.8.3-.6-1.4-3.1-1.9-3.6-1.9-2.4m-312.5 2.5c-1 3 1.8 5.8 4.3 4.3.9-.6 1.7-2.2 1.7-3.5 0-3.4-5-4.1-6-.8m5-.1c.3.5.1 1-.4 1-.6 0-1.1-.5-1.1-1 0-.6.2-1 .4-1 .3 0 .8.4 1.1 1m-3.1 1.6c.3.8.2 1.2-.4.9s-1-1-1-1.6c0-1.4.7-1.1 1.4.7m678.3-2.9c-1.4 1.3-.7 5.3 1.1 6.2 3.7 2 7-2.7 4-5.7-1.3-1.3-4.1-1.6-5.1-.5m-359.4 1.9c.4 1.1.9 3.1 1.3 4.6.3 1.6 1 2.8 1.6 2.8.5 0 .6-.5.2-1.1-.4-.7-.7-2.6-.8-4.2-.1-1.7-.7-3.2-1.5-3.5-.9-.3-1.1.2-.8 1.4m24.5 12.5c-.1 8-.2 8.1-.8 2.9-1-8-1.6-1.7-1.2 12.9.2 6.5 1.2 8.1 1.4 2.1.1-3.4 1.7-2.1 1.8 1.5.1 1.9.1 1.9 1.1.2s.8-3.9-.7-9c-.3-.9-.1-1.7.5-1.7s1.1.8 1.1 1.7c0 1 1 5.8 2.1 10.6 1.5 6.2 2.5 8.5 3.1 7.5.7-.9.8-.5.4 1.4-.3 1.4-.1 3.7.4 5 .9 2.1 1 2 .5-.7-1-6 1-5.7 4.1.7 3.1 6.7 9.8 15.8 11.5 15.8.6 0-.5-2.1-2.5-4.8-5.2-6.7-16.5-30-16.8-34.5-.1-2-.6-3.7-1-3.7s-.8-1.2-.8-2.6-.5-3.5-1.1-4.6-1.3-3.5-1.6-5.2c-.9-5.5-1.3-4.1-1.5 4.5m16.8-4c-.3 1.8-.4 3.4-.2 3.6.2.3.7-1 1.1-2.7s.5-3.4.2-3.6c-.2-.3-.7 1-1.1 2.7m-91.1.9c1 1.1 2 1.8 2.3 1.5s1-.1 1.7.3c.6.4-.1-.3-1.5-1.5-3.1-2.8-5-3-2.5-.3m46.6-.4c0 1.1.3 1.4.6.6.3-.7.2-1.6-.1-1.9-.3-.4-.6.2-.5 1.3m15.4 10.6c-1.7 7-3.2 11.3-3.7 10.5-.8-1.2-1.2.7-1 4.2.1 1.7-1.3 10.5-2.3 14.3-.5 1.9-.3 2.8.5 2.8.6 0 .8-.5.5-1-.4-.6-.2-1.6.3-2.3s1.8-4.8 2.8-9.1c1.5-6.5 2-7.5 2.6-5.5.5 1.6.6 1 .4-2-.3-2.4.4-7.8 1.6-12.2 1-4.4 1.8-8.7 1.6-9.7-.2-.9-1.7 3.6-3.3 10m-10.4-8.6c0 1.1.3 1.4.6.6.3-.7.2-1.6-.1-1.9-.3-.4-.6.2-.5 1.3m14.1 9.5c-.1 3.1-.5 7.2-.8 9-.4 2.8-.3 3.1.6 1.7.6-1.1.9-4.8.7-9-.3-6.6-.3-6.8-.5-1.7m-260.4-2.5c2.1 1.5 3.2 4.2 1.2 2.9-.6-.4-.9-.1-.8.7.2.7-.3 1.2-1 1-.8-.1-1.1.2-.7.8.7 1.2-.5 1.3-2.3.2-.9-.7-1-1.5-.3-3.5.7-1.7.7-2.7.1-2.7-.5 0-1.2 1.1-1.6 2.5-.9 3.5 1.2 5.7 5 5.3 2.5-.2 3.2-.8 3.4-2.9.3-2.7-1.9-5.9-4.1-5.9-.6 0-.1.7 1.1 1.6" /><path d="M891.9 604.4c1.2 1.3 2.3 3 2.4 3.7.3 1.9 3.3 6 3.9 5.4.9-.9 3 2.3 3.3 5 .1 1.4 1.1 3.6 2.2 4.8 3.2 3.5 7.3 16.9 7.3 23.6 0 3.3.5 6.3 1 6.6.6.4.7 1.1.4 1.7-.4.7-.9.6-1.4-.1-.4-.7-1.1-.2-1.8 1.4-.6 1.3-.8 2.4-.4 2.2.4-.1.7.2.7.8 0 .5-.3.9-.7.7-.5-.1-.8.5-.8 1.3 0 .9-1.2 2.3-2.7 3.2-1.6.9-4.1 3.2-5.8 5.2-1.6 2 .8.3 5.3-3.8 4.6-4.1 9.5-9 10.9-10.8 2.2-2.8 2.8-3.1 4.2-2.1 1.3 1 1.4 1 .4-.1s-.5-2.2 2-5.2c4.3-4.9 12.7-21 12.7-24-.1-1.6-1.1-.2-3.4 4.6-4.4 9.3-16.3 27.5-18 27.5-.3 0-.1-1.1.4-2.5.7-1.8.6-2.4-.3-2.2-.8.1-1.3-1.3-1.4-3.8-.3-7.3-1.6-14.5-2.4-14-.4.3-.7-.7-.7-2.2.1-3.2-3.7-11.3-5.3-11.3-.6 0-.8-.4-.5-.9.6-.9-11.9-17.1-13.1-17.1-.4 0 .4 1.1 1.6 2.4m5.2 6.3c1.3 1.6 1.2 1.7-.3.4-1-.7-1.8-1.5-1.8-1.7 0-.8.8-.3 2.1 1.3m112.3-6.2c-.9 1.3-1.4 2.8-1.2 3.3.1.5 1-.6 1.9-2.4 1.9-4 1.6-4.4-.7-.9m207.8-1.3c-3.4 3.4.2 9.8 4.8 8.3 2.4-.7 3.7-5.1 2.3-7.4-1.3-2-5.4-2.6-7.1-.9m-285.1 5c.1 3.2 0 6-.3 6.3-.8.8.2 4.5 1.2 4.5 1.5 0 2.1-3.9 1-6-.6-1.2-1-3.7-.9-5.5.2-1.9 0-3.8-.5-4.2-.4-.4-.6 1.8-.5 4.9m74.4-3.1c-.4.6-.5 1.2-.2 1.5.2.3.7-.2 1-1.1.7-1.7.1-2-.8-.4m-381.5.8c0 .5.5 1.3 1.2 1.7.7.5.8.3.3-.5-.5-.9-.2-1.2 1-.9 1 .1 2 1 2.2 1.8.4 1.3.3 1.3-.6 0-1-1.3-1.5-.8-1.2 1.2 0 .4-.6.5-1.4.2-.8-.4-1.5-.1-1.5.6 0 .6 1.1 1 2.8.8 2.1-.2 2.7-.8 2.7-2.8s-.6-2.6-2.7-2.8c-1.6-.2-2.8.1-2.8.7m649.1.4c-2.2 2.7 1 6.4 4.5 5 2.3-.9 1.4-5.7-1.2-6.1-1.1-.2-2.6.3-3.3 1.1m-309.4 3.4c-.3 1.6-.2 3.4.2 4 .4.7.7-.5.8-2.7.2-4.6-.2-5.2-1-1.3m14.9-1c-1.1 1.1-3.6 7.3-3.6 8.9 0 .8.5 1.4 1 1.4.6 0 .9-.3.8-.8-.1-.4.3-1.8.9-3.2 2.4-5.9 2.7-8.1.9-6.3m19.5 4.7c-4.8 5.6-8.8 13.3-9.6 18.7-.5 3.2-.5 3.3.6.9.7-1.4 1.3-3.1 1.5-3.8.1-.8.9-1.9 1.7-2.5.8-.7 3.1-3.9 5.2-7.2 3.2-5.2 3.4-5.7 1.1-3.6-3.9 3.6-3.2 1.6.9-2.5 2.7-2.7 3.5-3.1 3.5-1.7 0 1.5.2 1.6 1 .3.5-.8 1-2 1-2.6 0-2.4-2.7-.8-6.9 4m439.9 4.7c-11.7 4-11.3 3.9-10.8 4.4.4.4 19.8-6.2 20.7-7.1s-1.8-.2-9.9 2.7m-473-.1c.1.8.7 2.4 1.5 3.4 1.9 2.5 1.9 1.6 0-2-.8-1.6-1.5-2.2-1.5-1.4m9.1 3.6c0 1.1.3 1.4.6.6.3-.7.2-1.6-.1-1.9-.3-.4-.6.2-.5 1.3m-276.5 1c-.9.8-1.6 2.2-1.6 2.9s.7 2.1 1.6 2.9c2.3 2.3 3 1.9.8-.5-2.1-2.4-.9-5.4 2.2-5.4 2.1 0 2.9 4.1 1.2 6.2-1.3 1.7.4 1.7 2 .1 1.8-1.8 1.4-5.6-.7-6.8-2.7-1.4-3.7-1.3-5.5.6m501.2 1c-1.4 3.1-.1 5.7 3.1 6.2 3 .5 5.1-1.5 5.1-4.8 0-4.6-6.3-5.7-8.2-1.4M953.3 626c0 2.5.2 3.5.4 2.2.2-1.2.2-3.2 0-4.5-.2-1.2-.4-.2-.4 2.3m1.8-2.4c0 1.1.3 1.4.6.6.3-.7.2-1.6-.1-1.9-.3-.4-.6.2-.5 1.3m-13.9 1.4c0 1.4.2 1.9.5 1.2.2-.6.2-1.8 0-2.5-.3-.6-.5-.1-.5 1.3m15.4 1.4c-.4 1.9 0 6.6.9 10.8.9 4 1.9 8.8 2.2 10.6.4 2.1.9 2.9 1.4 2.1.4-.7.7.5.6 2.7 0 2.1.7 6.4 1.5 9.4 1.3 4.3 1.7 4.8 1.7 2.5 0-1.7-.6-4.8-1.4-7-1.8-4.8-1.8-5.8-.4-4.9.8.4.9-.1.4-1.7-.5-1.9-.4-2.1.4-.9.6.8 1.1 2.6 1.1 4 0 3.8 7.3 20.7 16.3 37.7 5.3 10 5.2 11.7-.4 5.6-1.5-1.5-5.7-7.9-9.3-14.1-3.7-6.1-6.9-11.2-7.1-11.2s.5 2.1 1.5 4.6c3.4 7.9 10.9 18.7 18.3 26.2 4 4 8.9 10.3 10.9 14 6.9 12.5 16.9 33.5 16.6 35-.3 1.6-19.3-19.2-27.8-30.4-9.7-12.9-20.6-37-21.6-47.9-.5-5-2.4-8.7-4.1-8.1-1.1.5-1.1.1-.2-1.7 1.1-2 1.1-2.1-.4-.8-1 .7-1.7 2.3-1.7 3.5 0 3.9 2.9 13.5 6.4 20.9 1.8 3.9 3.7 8.3 4.1 9.7s4.6 8.8 9.4 16.5c6.6 10.7 10.7 16 17.6 23 11.5 11.4 19.1 20.6 21.1 25.3 3.5 8 9 29.8 8.2 32.2-.2.7-1.8-.9-3.6-3.6-1.7-2.7-8.7-10-15.4-16.2-23.4-21.5-29.4-28-36.2-39.2-3.5-5.8-7.2-12.8-8.2-15.7-1-2.8-2.2-4.9-2.7-4.6s-.6-.5-.2-1.8c.5-1.9.4-2.1-.4-.9-.9 1.2-1.1.7-.9-2 .1-1.9-.4-6.4-1-10-.7-3.6-1.2-9.4-1.3-13-.1-5.1-.3-5.9-.9-3.5-.7 2.8-.8 2.8-.9.5-.1-1.9-.4-2.1-1-1-.4.8-.5 9.6-.1 19.5.6 17.6.7 17.7.9 6 .3-13.1.3-13.1 4.1 6 1.2 6 2.8 13.1 3.5 15.7 1.6 5.4 10.4 29 11.2 29.8 1.1 1.1-1.2-7.9-3.7-15-3.7-10.1-4.4-14.1-2.5-13.4.8.4 1.2 1 .9 1.5s.1 1.2.9 1.5c.7.2 1.4 1 1.5 1.7.1 1.9 5.3 14.1 6.5 15.2.7.7.8.4.3-.8-.3-.9-.9-2.5-1.2-3.5-.3-.9 2.8 1.7 6.8 5.9s10.4 10.4 14.2 13.8 8.2 7.8 9.7 9.8c1.6 2 2.9 3 2.9 2.4 0-.7.4-.9 1-.6 1.8 1.1 12.7 15.9 16.1 22 3.2 5.6 3.3 6.5 3.7 18 .3 9.3-.1 14.8-1.8 24.5-1.2 6.9-2.3 13.6-2.4 15 0 1.4-.5 2.8-1 3.1-1 .7 0 2.9 1.4 2.9.4 0 1.8-5.5 3.1-12.3 1.8-9.1 2.4-15.8 2.4-26.3 0-7.8.3-14 .6-13.8.8.5 2.5 7.6 3.8 15.4l.9 5.5.1-4.5.2-4.5 5.4 11c5.1 10.5 7.2 13.5 4 5.8l-1.6-3.7 2.7 2.4c1.4 1.4 5.1 5.6 8.1 9.3 3.1 3.7 5.8 6.5 6.1 6.2s-1-2.2-3-4.3c-13.2-13.7-22.5-30.9-26.8-49.4-1.2-5.1-3.9-14.8-6.1-21.5-4.4-13.8-5-17.1-1.5-9.7 1.3 2.8 2.9 5.5 3.5 5.8.6.4 3.5 4.4 6.4 8.9 6.1 9.3 8 12.3 10.3 15.4.8 1.2 1.7 2.9 1.8 3.7.2 1.4 2.1 4.1 12.4 17.2 2.3 2.9 4.1 5.9 4 6.5-.2.6.3 1.4 1 1.6 2.4.9 1.1-2.5-3.3-8.8-2.5-3.5-8.1-11.4-12.4-17.6-4.4-6.1-8.5-12.2-9.2-13.5-.7-1.2-4.1-6.6-7.6-11.9-8.2-12.6-8.8-14.1-4.2-10.9 1.9 1.4 7 5.8 11.4 9.9 5.8 5.4 5.4 4.9-1.5-1.9-5.2-5.1-11.3-10.9-13.5-12.9-3.1-2.9-5.4-6.8-9.9-17.2-3.2-7.4-7-15.4-8.4-17.9-1.5-2.5-2.7-5-2.8-5.7-.1-.6-1.5-2.9-3-5-2.4-3.3-2.5-3.5-.5-1.8 1.3 1.1 2.6 2 3 2 .3 0 .5.3.4.7-.2.4 4.9 6 11.1 12.5s13.2 14.2 15.5 17.1 4.6 5 5.1 4.7c.4-.3 1.8.7 2.9 2.2 1.2 1.7 2 2.2 2 1.3-.1-2-1.7-5.9-1.8-4.2-.1 1.5-6.9-3.6-7-5.2-.1-1-2.5-3.7-14-15.5-3.5-3.6-7.6-8.5-9.2-10.8-1.6-2.2-4.7-5.7-7-7.6-2.6-2.2-7.1-8.7-12.5-17.8-8.1-13.8-9.5-16.7-7.5-15.4.6.3-1.4-4.8-4.4-11.2-2.9-6.5-6.8-16-8.7-21.1-2-5.7-3.5-8.6-3.8-7.6-.9 2.5-3.1-8.1-2.4-11.6.4-1.6.4-3 .1-3-.2 0-.8 1.5-1.1 3.4m4.7 47.1c-.3.9-.8 1.4-1 1.1-.3-.3-.2-.9.2-1.5.9-1.6 1.5-1.3.8.4" /><path d="M959.1 624.6c0 1.1.3 1.4.6.6.3-.7.2-1.6-.1-1.9-.3-.4-.6.2-.5 1.3m-317.4 1c-1.5 1.5-.7 5.2 1.2 5.7 2.7.7 4.3-.7 3.9-3.4-.3-2.4-3.6-3.8-5.1-2.3m1.7 2.6c-.5.8-.1.9 1.2.4 1.4-.5 1.6-.4.7.5-1.3 1.3-3.7.3-2.8-1.2.4-.5.8-.9 1.1-.9s.2.5-.2 1.2m302.8-.7c0 1.6.2 2.2.5 1.2.2-.9.2-2.3 0-3-.3-.6-.5.1-.5 1.8m311.8-1c-2.5 3 1.5 7 4.5 4.5 2-1.6 1.9-4.6-.1-5.4-2.3-.9-3-.8-4.4.9m158.1.1c-1.8.8-3.1 1.7-2.9 2 .3.2 2.5-.4 4.9-1.5s3.7-2 2.9-1.9c-.8 0-3 .6-4.9 1.4m-414.5 2.1c.9 3.8 1.4 4.2 1.4 1 0-1.4-.5-2.9-1-3.2-.7-.4-.8.3-.4 2.2m-58.5-.1c0 1.1.3 1.4.6.6.3-.7.2-1.6-.1-1.9-.3-.4-.6.2-.5 1.3m17 0c0 1.1.3 1.4.6.6.3-.7.2-1.6-.1-1.9-.3-.4-.6.2-.5 1.3m15 1.6c-.1 2.3-.6 3.8-1.3 3.8-.9 0-1 .3-.2.8.6.4 1.5 1.5 2.1 2.6.8 1.4.9.6.6-3.5-.6-6.9-1.1-8.5-1.2-3.7m-5.1-1.6c0 .6.7 1.9 1.6 3 1.4 1.8 1.4 1.8.3-.6-1.4-3.1-1.9-3.6-1.9-2.4m-31.3 9.6c-1.8 9.7-6 23.9-8.1 27.3-.7 1.1-1.9 3.8-2.6 6-1.3 4.2-10.1 20.6-15.6 29-2.8 4.5-12.5 16.2-14.4 17.5-.4.3-1.5 2-2.5 3.9-.9 1.8-5.8 7.5-10.8 12.5-5.1 5.1-11.1 11.4-13.5 14.2-2.3 2.7-3.8 3.9-3.2 2.6.6-1.2.7-2.2.3-2.2s-.3-.4.3-.8 1.9-2.3 2.9-4.2c.9-1.9 2.8-4.9 4-6.6 2.1-2.8 5.8-10.4 5.1-10.4-.6 0-14.6 23.8-14.6 24.7 0 .5-1.8 3.4-4.1 6.4-2.2 3-5 7.3-6.1 9.6-1.2 2.3-2.5 4-2.9 3.7-.4-.2-1.1.1-1.5.7-.4.7-.3.9.4.5.6-.3 1.4-.2 1.7.4.6 1 8.5-8.3 8.5-10 0-.3 1.9-2.9 4.3-5.7 2.3-2.8 5.8-7.1 7.7-9.5 3.1-3.8 12.6-14 21.8-23.3 1.6-1.7 3.7-4.4 4.6-6.2.9-1.7 2-3.4 2.6-3.8 1-.6-2.7 7.8-5.1 11.6-.9 1.3-2.4 4.6-3.4 7.4-1 2.7-2.2 5.4-2.5 6-.4.5-2.4 5-4.4 9.9-1.9 4.9-4.5 9.9-5.6 11.1s-2.2 3-2.4 4.1c-.5 2.4-1.2 3.6-12.1 21.9-9 15.3-15.3 24.7-21.2 32.1-1.8 2.3-3.3 4.4-3.3 4.8 0 .3-1.1 2.9-2.4 5.6-1.3 2.8-2.3 5-2.1 5s1.9-2.4 3.8-5.3c7.4-11.6 8.7-13.4 12.5-17.2 2.1-2.2 7.1-6.7 11-9.9 3.9-3.3 7-6.2 6.7-6.4-.2-.3-3.2 2.1-6.6 5.2s-6.6 5.6-7 5.6c-.5 0 .5-2.1 2.1-4.8 10-16.5 19-32.1 19-33.1 0-.6.5-1.1 1-1.1.6 0 1-.9 1-1.9 0-1.1.5-2.3 1-2.6 1.4-.8 1.3-.7-1.6 7.1-3.9 10.6-6.5 21.3-6.9 28.4-.4 9-2.5 16.2-4.4 15.5-.9-.3-1.2-.3-.9.1.4.4.1 1.6-.7 2.8-.8 1.1-1.5 2.5-1.5 3.1.1.5.7-.1 1.5-1.5 1.1-1.9 1.4-2.1 1.5-.8 0 2.8 1.7 2.1 2.6-1l.7-2.7.7 3c.5 2.4.7 1.6 1.4-4 .4-3.9.8-7.9.7-9 0-1.1 1.1-3.4 2.4-4.9 1.4-1.6 2.5-3.2 2.5-3.6s2-3.4 4.3-6.7c2.4-3.2 4.4-6.5 4.4-7.3 0-2 6.3-12.2 8.5-13.8 1.8-1.3 1.5-3.8-.2-2.7-.5.3-4.3 5.5-8.5 11.5s-8 11.2-8.5 11.5c-1.3.8-3.5-.6-2.3-1.4.5-.3 2.1-5.3 3.6-11 3.8-14.2 5.5-17.3 14.9-27.6 12.9-14.1 17-19.3 16.2-20.6-.4-.7-.3-.9.4-.5 1.3.8 6.6-5.9 5.8-7.2-.3-.5.8-2.7 2.4-4.7 1.7-2.1 3-4.2 3-4.6 0-.5 1-1.9 2.2-3.1s2.7-3.8 3.4-5.7c.7-2 1.3-2.8 1.4-1.8 0 1-1.1 4.7-2.5 8.1-1.4 3.5-3.2 8.5-4 11.2s-3.8 8.7-6.6 13.4-6.1 10.3-7.3 12.5-3 5.2-4 6.7c-1 1.6-1.4 2.8-.9 2.8s1.5-1.1 2.1-2.5c.7-1.4 1.7-3.1 2.2-3.8.6-.7 2.2-2.6 3.5-4.2 3.6-4.2 14.2-26 15.7-32 .7-2.8 1.5-5.2 1.9-5.5 1.8-1.5 3.5-17 1.9-17-.5 0-1.5 1.8-2.1 4-.7 2.2-1.5 3.8-1.7 3.5-.3-.3-2.4 3.2-4.7 7.7-6.3 12.8-10.1 18.9-11 18.1-.4-.5-.5 0-.2.9.3 1 .2 1.7-.2 1.5-.5-.1-2.9 2.5-5.3 5.8-2.5 3.3-7.7 9.4-11.6 13.5l-7 7.5 2.8-8c3.6-10.4 8-19 14.6-29.2 2.9-4.6 6.3-10.3 7.4-12.8s3.4-6.9 5.2-9.7c5.5-9.3 12.9-24.9 12.3-25.8-.4-.6-.2-1 .3-1s1.2-2.3 1.6-5c.4-2.8 1.1-5 1.6-5s.6-.7.3-1.7c-.5-1.1-.3-1.4.6-.8 1 .6 1.1.2.6-1.5s-.4-2.1.6-1.5c.9.6 1.1.4.6-.8-.3-.9-.2-1.9.3-2.2.6-.4.7-1.8.4-3.2-.5-2-.4-2.4.6-1.8s1.2.1.8-1.8c-.3-1.5-.1-2.4.4-2.1.7.4.1-7.4-.7-8.4-.1-.1-.9 4-1.8 9m-9 62c-.3.8-.6.5-.6-.6-.1-1.1.2-1.7.5-1.3.3.3.4 1.2.1 1.9m-50.1 92.5c-.8 1.5-1.5 2.2-1.6 1.5 0-1.7 2-5.5 2.7-4.9.2.3-.2 1.8-1.1 3.4m86-161.7c.4 1.4 2.4 6.2 4.5 10.8 2.2 4.6 3.7 8.7 3.4 9.2-.2.4.3 1.8 1.3 3.1s3.5 5.2 5.6 8.7c2.1 3.4 4.1 6 4.6 5.7s1.2 0 1.6.6c.4.8.3.9-.4.5-2.4-1.4-1.1.8 3.4 6.1 4.8 5.6 7.1 6.6 3.6 1.6-1-1.5-3.3-5.1-5-7.8-1.7-2.8-4.4-6.3-5.9-8-1.5-1.6-3.8-4.5-5.1-6.5-2.2-3.4.2-1 17.6 17.3 3.6 3.7 6.7 6.5 7 6.2.6-.6.5-.6-10-12-4.1-4.4-8.4-9.6-9.6-11.6s-3-4.3-4-5c-1.6-1.3-1.6-1.2-.1.6.9 1.1 1.9 2.7 2.3 3.5 1.4 2.8-3.9-4.2-6.7-8.9-1.5-2.5-4.1-7.3-5.7-10.6-1.7-3.3-2.7-4.9-2.4-3.5m-42.5.6c0 1.1.3 1.4.6.6.3-.7.2-1.6-.1-1.9-.3-.4-.6.2-.5 1.3" /><path d="M934.1 631.6c-.1.7-2 4-4.4 7.5-4.7 7-6.8 10.5-4.3 7.5 2.7-3.3 1.8-1.2-4.4 11.2-3.3 6.6-6 12.4-6 12.9s-3.8 6.7-8.5 13.8c-4.7 7.2-8.5 13.9-8.5 15.1s-1.5 4.1-3.3 6.5c-1.9 2.4-5.7 8-8.6 12.4l-5.2 8 4.5-4.7c2.5-2.5 5.5-6.7 6.6-9.2 1-2.5 2.2-4.6 2.6-4.6.3 0 .4.7 0 1.5-.8 2.2.2 1.8 1.5-.6.8-1.7.8-2-.1-1.4-.8.5-1.1.3-.8-.6.3-.8 1.1-1.3 1.7-1.1.7.1 1-.2.7-.7-.4-.5-.2-1.1.4-1.3.5-.1 1.2-1.7 1.4-3.3.5-3.8 1.6-6.5 2.7-6.5 2.5 0 17.7-24.3 17.9-28.5.1-2.1 2.9-7.8 3-6 0 .5 1.6-1.9 3.5-5.3 3.8-6.8 8.8-20.9 8.1-22.6-.3-.7-.5-.7-.5 0m11.2 4.4c0 2.5.2 3.5.4 2.2.2-1.2.2-3.2 0-4.5-.2-1.2-.4-.2-.4 2.3m9 1c0 2.5.2 3.5.4 2.2.2-1.2.2-3.2 0-4.5-.2-1.2-.4-.2-.4 2.3m48.7-3.5c0 .5.5 1.7 1 2.5s1 1 1 .5c0-.6-.5-1.7-1-2.5s-1-1.1-1-.5m396 .4c0 .7-.5.9-1.2.5-.7-.5-.8-.3-.3.5.5.9 1 1 1.8.2.6-.6.8-1.4.4-1.8-.4-.3-.7-.1-.7.6M962.1 635c0 .8.4 2.2.9 3 1.2 1.8 1.2.2 0-2.5-.6-1.3-.9-1.5-.9-.5m140.3 3.3c1.6 2 3 3.7 3.3 3.7.7 0-3.6-5.8-4.9-6.6-.7-.4.1.9 1.6 2.9m12.6-2.6c0 .4.5 1.5 1 2.3.8 1.3 1 1.3 1-.2 0-.9-.4-2-1-2.3-.5-.3-1-.3-1 .2m-168.9 9.5c-.6 5.2-.7 10.8-.3 12.8.6 2.7 1 .5 1.4-9 .4-6.9.5-12.6.3-12.8-.1-.1-.7 3.9-1.4 9m19-8.2c0 .8.4 2.2.9 3 1.2 1.8 1.2.2 0-2.5-.6-1.3-.9-1.5-.9-.5m23.3.5c.3 2.1 1.6 3.1 1.6 1.2 0-.9-.4-1.8-.9-2.1-.5-.4-.8.1-.7.9m195.5 1.4c-2.8 2.3-1.9 6.1 1.5 6.1 3 0 4.9-2.3 4.1-4.9-.8-2.8-3.1-3.3-5.6-1.2m206.1-.9c-.8.5-1.2 1.1-.9 1.4.2.3 1.1.1 1.9-.4s1.2-1.1.9-1.4c-.2-.3-1.1-.1-1.9.4m-673.6 2.6c-.8 3.1.6 4.7 3.7 4.2 1.9-.2 2.4-.9 2.4-3.2 0-1.6-.6-3-1.3-3.2-.7-.1-.8 0-.2.3.5.2 1 .9 1 1.4 0 .6-.4.7-1 .4-.5-.3-1 .3-1 1.4 0 1.2-.5 2.1-1 2.1-1.7 0-2.3-2.9-1-4.5.8-1 .9-1.5.1-1.5-.6 0-1.4 1.2-1.7 2.6m205.7-1c0 1.1.3 1.4.6.6.3-.7.2-1.6-.1-1.9-.3-.4-.6.2-.5 1.3m30 4.1c-.1 7.1 1.5 9.5 2 2.9.2-2.4.1-4.2-.3-4s-.9-.8-1.1-2.3c-.2-1.6-.5 0-.6 3.4m-17.6-3.6c-.4.6-.4 1.3-.1 1.6.3.4.6.1.6-.6s.5-.9 1.2-.5.8.3.4-.4c-.9-1.5-1.3-1.5-2.1-.1m447.3 1.6c-6 2.7-8.3 5.4-2.5 2.9 6.7-2.8 8.7-3.9 8.7-4.8 0-1.1.4-1.2-6.2 1.9m-264.8-1.6c0 1 4 9.9 4.6 9.9.2 0-.2-1.6-1-3.5-1.7-4-3.5-7.3-3.6-6.4M505 643c.8.5 2 1 2.5 1 .6 0 .3-.5-.5-1s-1.9-1-2.5-1c-.5 0-.3.5.5 1m439.2 1c0 1.4.2 1.9.5 1.2.2-.6.2-1.8 0-2.5-.3-.6-.5-.1-.5 1.3m22.8-1.7c0 .4.7 1.9 1.6 3.2 1.3 2 1.4 2.8.4 4-.7.9-1 1.8-.6 2.2.3.3.6 0 .7-.8 0-.8 1.8 3.7 4 10 3.8 10.7 4.7 12.2 13.7 23.5 5.3 6.7 10.6 13 11.8 14.1 1.1 1.1 2.3 2.5 2.5 3.1.5 1.4 7.7 9.4 8.5 9.4.3 0 .2-.5-.1-1q-1.35-2.1 3.3.6l2.7 1.6-2.5-1.9c-4.2-3-23.9-23.6-23.4-24.5.3-.4-.4-1.6-1.6-2.8-1.1-1.1-2-2.3-2-2.8 0-.4-1.6-2.9-3.6-5.6-4.2-5.6-10.6-19.6-10.8-23.6-.1-2.2-4.5-10.7-4.6-8.7m40.5 64.7c1 1.1 1.6 2 1.3 2s-1.3-.9-2.3-2-1.6-2-1.3-2 1.3.9 2.3 2m-19.4-63.4c0 1.1.3 1.4.6.6.3-.7.2-1.6-.1-1.9-.3-.4-.6.2-.5 1.3m-330.1.9c-2 2.4-.3 5.7 2.8 5.3 3.3-.4 4.2-3.6 1.6-5.5-2.3-1.7-2.9-1.6-4.4.2m297.2 2c0 1.6.2 2.2.5 1.2.2-.9.2-2.3 0-3-.3-.6-.5.1-.5 1.8m286.5-1.9c-1 1.1-.9 4.2.3 4.9 2 1.2 5.1-.6 4.8-2.8s-3.6-3.5-5.1-2.1m-727.2 1.9c1.7.8 8.9 4 16 7.1 19 8.2 55.7 24.5 57.8 25.5.9.6 1.7.6 1.7.2 0-1.4-39.1-18.9-66.4-29.9-10.7-4.3-15.1-5.7-9.1-2.9m427.8 8.4c-1 6.5-5.5 21.6-8.8 29.5-.6 1.5-.5 1.7.5 1.1.9-.6 1.2-.4.8.6-.3.8 0 2.3.7 3.3 1.2 1.6 1.4 1.4 2.3-1.6 2.9-9.3 7.3-28.9 6.9-30.5-.3-1.1-.5-.6-.6 1.2-.1 1.6-.6 3.7-1.2 4.5-.8 1.1-.9.6-.4-2 1-5.5 1.8-14 1.3-14-.2 0-.9 3.6-1.5 7.9m-.9 14c-.4 1.7-.9 3-1.1 2.7-.3-.2-.2-1.9.2-3.6s.9-3 1.1-2.7c.2.2.1 1.8-.2 3.6m-2.3 8.4c-1 .9-1.1.8-.5-.6.3-1 .9-1.5 1.2-1.2s0 1.1-.7 1.8m-2.4 9.9c-.3.8-.6.5-.6-.6-.1-1.1.2-1.7.5-1.3.3.3.4 1.2.1 1.9m50.2-37.4c-.3 2-.2 2.9.4 2.3.5-.5.7-1.9.5-3.2-.3-2-.5-1.9-.9.9m-60.4 10.5c-2.6 6.2-5.3 11.9-6 12.7s-2.5 4-4 7.1-6.5 10.9-11.1 17.5c-4.5 6.5-8 12.1-7.7 12.4s.8-.2 1.1-1 2.5-3.5 4.9-6 4.6-5.5 4.9-6.6c.3-1.2 1.4-2.4 2.4-2.7s2.8-2.4 4.1-4.8c1.2-2.4 3-5.4 3.9-6.7 1-1.2 2.6-4.4 3.6-7.2 1-2.7 2.1-4.7 2.6-4.4.4.3.5-.1.2-.9s.2-1.7 1.1-2.1c.9-.3 1.4-1 1.1-1.4-.3-.5.3-3.2 1.4-5.9 1-2.8 1.6-5.3 1.3-5.7-.4-.3-.1-.6.6-.6s.9-.5.5-1.1c-.3-.6-.1-1.5.6-1.9s.8-1 .3-1.3c-.5-.4-3.1 4.4-5.8 10.6m-7.9 20.4c-.8 1.5-1.5 2.5-1.6 2.1 0-1.2 2.3-5.8 2.7-5.4.3.2-.2 1.7-1.1 3.3m508.6-29.2c0 1.6.2 2.2.5 1.2.2-.9.2-2.3 0-3-.3-.6-.5.1-.5 1.8M948.3 655c0 2.5.2 3.5.4 2.2.2-1.2.2-3.2 0-4.5-.2-1.2-.4-.2-.4 2.3m167.2-3c.3.5 2 1.9 3.8 3.1l3.2 2.2-2.9-3.1c-2.8-3-5.5-4.4-4.1-2.2m52.5.4c0 2.2 1.7 2.8 4.1 1.6 2.4-1.3 2.3-1.5-1.3-2.4-2.1-.5-2.8-.3-2.8.8m189.3.3c-1.8.9-3.3 2.1-3.3 2.6s.6.4 1.3-.2c.8-.6 1.7-.8 2-.4.4.3.7.1.7-.6s.5-.9 1-.6c.6.3 1 .1 1-.5s.5-.8 1.2-.4.8.3.4-.4-.8-1.2-.9-1.1c-.1 0-1.7.8-3.4 1.6m-401.2.9c0 1.1.3 1.4.6.6.3-.7.2-1.6-.1-1.9-.3-.4-.6.2-.5 1.3m32 4.3c3 3.5 7.5 8 10 10l4.4 3.5-5-5-9.9-9.9-5-5zm.6-4.2c-.3.5.6 2.1 2.1 3.4 1.9 1.7 2.2 1.8 1.1.4-.9-1.1-1.8-2.7-2.1-3.5-.3-.9-.7-1-1.1-.3" /><path d="M918 656.5c0 .8.2 1.5.4 1.5s.6-.7 1-1.5c.3-.8.1-1.5-.4-1.5-.6 0-1 .7-1 1.5m431 .4c0 .5.9.7 2 .4s2-.7 2-.9-.9-.4-2-.4-2 .4-2 .9m-391.9 1.7c0 1.1.3 1.4.6.6.3-.7.2-1.6-.1-1.9-.3-.4-.6.2-.5 1.3m168.8 1.8c1.9 1.9 3.7 3.3 4.1 3.1.4-.3 1.3.2 2.1 1.1.7.8 2.2 2 3.3 2.6 1.2.6-.1-.9-2.8-3.3s-6.1-5-7.5-5.7c-2.3-1.2-2.2-1 .8 2.2m216-.6c-3 1.5-6.4 2.9-7.5 3-1 .2-2.1.7-2.4 1.1s-2.1.8-4 .9-5.5.7-8 1.2c-2.5.6-6.3 1.5-8.5 1.9-2.2.5-3.1.9-2 1 1.1 0 4.9-.6 8.5-1.3 3.6-.8 6.6-1.3 6.7-1.2.3.3-58.1 27.4-69.9 32.4-5.9 2.5-10.6 4.7-10.4 4.9.7.8 14.6-5.1 43.7-18.6 16.9-7.7 31-14.1 31.4-14.1.8 0 27.7-12 28.4-12.6.2-.2.2-.6 0-.8-.2-.3-2.9.8-6 2.2m-427.1.1c-.7 1-1.7 1.9-2.1 1.9-1.7.2-4.5 4.8-3.8 6.1.6.9 1.8-.2 4.1-3.8 1.8-2.8 3.7-4.8 4.3-4.4.6.3.7.1.3-.5-1-1.6-1.3-1.5-2.8.7m-239.8.6c-.9 1.1-1 1.8-.1 2.9s.7 1.5-1.1 1.9c-5.1 1.3-27 4-38.3 4.7l-12 .9 13-.4c13.6-.4 33.5-2.7 42-4.8l5-1.2-3.4-.5c-3.4-.5-5.7-3-2.8-3 .9 0 1.8.6 2 1.2q.6 1.2.6-.3c.1-.9-.6-2-1.5-2.3-2.1-.8-2-.8-3.4.9m279.9 1.1c-.1 2.9-.1 2.9-.9.4-.7-2.1-.8-1.9-.9 1.7-.1 2.3.3 4.4.8 4.7 1 .6 2.6-8.2 1.7-9.2-.3-.3-.6.8-.7 2.4m270.8-1.9c-1.3 1.2-.7 4.1.9 4.7 2.2.9 3.4-.1 3.4-3 0-1.7-.6-2.4-1.8-2.4-1 0-2.2.3-2.5.7m-453.2 1.4c-1.1 1.7.1 2.1 1.5.4.8-.9.8-1.5.2-1.5s-1.4.5-1.7 1.1m125.7.9c0 1.4.2 1.9.5 1.2.2-.6.2-1.8 0-2.5-.3-.6-.5-.1-.5 1.3m-212.4 1.7c.6.2 1.8.2 2.5 0 .6-.3.1-.5-1.3-.5s-1.9.2-1.2.5m225.2 5.5c-2.5 3.4-7.3 9.3-10.6 13.1-3.4 3.7-6.1 7.6-6 8.5 0 .9-.5 1.7-1.1 1.7-.7 0-1.2.2-1.1.5.3 1.1-2.3 5-3.1 4.6-.4-.3-1.8 1.3-3 3.5-1.2 2.1-2.6 3.7-3 3.5-1-.7-5.5 5.4-4.6 6.2 1.1 1.1 17.1-18.1 20.9-25 1.2-2.4 2.7-4.2 3.4-4.1.6.2 2.1-1.1 3.4-2.8 1.3-1.6 3.5-4.4 4.9-6.2 3.2-3.9 6.3-9.7 5.2-9.7-.5 0-2.9 2.8-5.3 6.2m-4 8.1c0 .2-1 1.2-2.2 2.3l-2.3 1.9 1.9-2.3c1.8-2.1 2.6-2.7 2.6-1.9m38-11.8c0 .8.5 1.5 1 1.5.6 0 1-.7 1-1.5s-.4-1.5-1-1.5c-.5 0-1 .7-1 1.5m-40.7 5.7c-1.6 1.8-3.3 4.1-3.6 5.1-.4.9-1.8 2.2-3.2 2.7s-2.4 1.5-2.3 2.2c.2.7-.3 1.2-1 1-.8-.1-1.1.2-.7.9.5.7 3.5-1.6 8.1-6.2 4-4 7.1-7.6 6.8-8.1-.7-1.1-.7-1.2-4.1 2.4m44 .8c0 2.5.2 3.5.4 2.2.2-1.2.2-3.2 0-4.5-.2-1.2-.4-.2-.4 2.3m-353.5-2.3c1.2.2 3 .2 4 0 .9-.3-.1-.5-2.3-.4-2.2 0-3 .2-1.7.4m300.1 1c-1.3 1.5-1.2 1.5.9.4 2.3-1.2 2.8-2.1 1.3-2.1-.5 0-1.5.7-2.2 1.7m47.9 7.5c-2.5 13.7-3 18.6-1.8 16.7.5-.9 1.7-5.9 2.6-11 .9-5.2 1.8-9.7 2-10.1.2-.3 0-1.6-.4-2.8-.6-1.6-1.2.1-2.4 7.2M1256 670c0 .5.7.7 1.5.4.8-.4 1.5-.8 1.5-1s-.7-.4-1.5-.4-1.5.4-1.5 1m33.5.2c-4.9.5-12.5.7-16.8.5-5.2-.4-7.5-.2-7 .5.7 1.2 28.5.3 36.3-1.1l4.5-.8h-4c-2.2 0-8 .4-13 .9m-683.2.5c2 .2 5.4.2 7.5 0 2-.2.3-.4-3.8-.4s-5.8.2-3.7.4m344.9 1.3c0 1.4.2 1.9.5 1.2.2-.6.2-1.8 0-2.5-.3-.6-.5-.1-.5 1.3m3.2 7c.7 7.1 4.3 22.8 4.5 19.3.2-4.1-2.1-17.8-3.1-18.4-.6-.4-.8-1.5-.4-2.5.3-1.1.1-2.6-.5-3.4-.8-1.1-.9.3-.5 5M691 675.8c0 .5.7.9 1.6.8.9 0 1.9.5 2.2 1.3.3 1-.1 1.2-1.7.8-1.1-.3-2.1-.1-2.1.4s1.2.9 2.6.9c2.1 0 2.5-.4 2.2-2.3-.2-1.4-1.1-2.3-2.5-2.5-1.3-.2-2.3.1-2.3.6m517.7-.2c-.4.4-.7 1.6-.7 2.6 0 1.5.6 1.9 2.8 1.6 1.9-.2 2.7-.9 2.7-2.3 0-2-3.3-3.3-4.8-1.9m211.9 6.7c.3 4.1.1 5.6-.7 5.2-.7-.5-1 .4-.8 2.7.2 1.8-.1 3.9-.5 4.6s-.5 3-.1 5 .3 3.3-.1 2.9c-.5-.4-1.9 5-3.1 12-3.3 17.8-8.5 39-13.4 53.9l-4.1 12.6-15.1-.6c-17.2-.8-23.8.7-8 1.7 5.4.4 12.4.7 15.6.7 4.2 0 5.7.4 5.7 1.4 0 3.1-11.5 30.5-20.5 48.6-2.3 4.7-4 9.1-3.7 9.9s0 1.1-.6.7c-.6-.3-1.4.4-1.8 1.6-.3 1.2-1.3 2.8-2 3.6-.8.7-1.2 1.8-.9 2.3.4.5.1.9-.5.9s-.9.4-.6.8c1.1 1.9-4.2 3.5-9.1 2.8-13.1-1.9-57.9-14.4-75.8-21.1-1.4-.6-1.7-.5-1 .2.6.6 6.9 3.1 14 5.6 25 8.7 58.2 16.6 83 19.8 19 2.4 24 2.3 7.5-.2-6.9-1-13.5-2.1-14.7-2.4l-2.2-.5 2.5-3.7c1.3-2 2.2-4.3 1.9-5-.2-.8-.1-1.1.4-.8s1.3-.5 1.7-1.7c.3-1.2 1.3-2.9 2.1-3.6 1.2-1.2 1.2-1.6.1-2.3s-1.1-.9.1-.9c.7 0 1.1-.6.8-1.4q-.6-1.5.9-.9c.7.3 1.4.1 1.5-.3.2-2.8.9-4.8 2.2-6.2 2.3-2.8 4.8-9.2 4.1-10.4-.4-.6-.3-.8.3-.5 1.1.7 8.1-13.7 13.3-27.4l3.3-8.7 11.1-.5c12.8-.6 31.8-2.4 39.1-3.7l5-.9-5.3.4c-13.6 1.1-48.3 2.7-48.7 2.3-.3-.3.2-2.2 1.1-4.4 6.6-15.8 18.3-65 18.7-78.5.1-3.1.6-5.4 1.1-5.2.5.4.6-1.4.2-4-.4-2.8-.3-4.8.4-5.2.5-.3 1-1.6 1-2.8 0-1.6-.3-1.8-.9-.8-.7 1.1-.9 1.1-1.4 0-.4-1-.6-1-.6-.2-.2 2.2-1.9 1.4-2.5-1-.3-1.2-.3.4 0 3.6M591 679.9c0 1.3 30.6 13 43.2 16.5 10.4 3 8.4 1.5-2.8-1.9-6-1.9-17.6-6.1-25.7-9.4-8.1-3.2-14.7-5.6-14.7-5.2m554 4.8c1.7 2.9 3.4 5.3 3.7 5.3.6 0-3.7-7.1-5.5-9-.7-.8 0 .9 1.8 3.7m-148-2.9c0 .8 4.9 5.6 9.8 9.7 2 1.6 2.2 1.7 1.6.2-.3-.9-.9-1.7-1.3-1.7s-2.8-2-5.4-4.5c-2.6-2.4-4.7-4.1-4.7-3.7m4 1c0 1.2 1.9 2.6 2.6 1.9.2-.2-.2-1-1.1-1.7-.9-.8-1.5-.8-1.5-.2m154.4 1.1c.4.6 1.6 1.6 2.8 2.2 1.5.8 1.8.8 1.4 0-.4-.6-1.6-1.6-2.8-2.2-1.5-.8-1.8-.8-1.4 0m-147.4 1.5c0 .2.8 1 1.8 1.7 1.5 1.3 1.6 1.2.3-.4s-2.1-2.1-2.1-1.3m-123.3 5.3c-6.2 5.4-6.9 7.2-1 2.4 2.1-1.7 4.9-4 6.3-5.1 1.4-1 2-1.9 1.3-2-.6 0-3.6 2.1-6.6 4.7m307.7-.2c-1 2.4 1.2 4.2 3.4 2.9 2.4-1.6 2.1-3.8-.6-4.2-1.3-.2-2.5.3-2.8 1.3m-296 3.2c-4.6 6.3-5 7.1-2.1 3.9 1.5-1.7 3.5-3.9 4.4-4.8.9-1 1.4-2 1.1-2.4-.3-.3-1.9 1.2-3.4 3.3m51.8 2.8c0 1.6.2 2.2.5 1.2.2-.9.2-2.3 0-3-.3-.6-.5.1-.5 1.8m61.8-2.1c0 .2.8 1 1.8 1.7 1.5 1.3 1.6 1.2.3-.4s-2.1-2.1-2.1-1.3m-86.6 1.8c-.4.7-.9 2.4-1 3.8-.3 2.2-.2 2.3.7.7.6-1 .8-2.1.5-2.4-.3-.4-.1-1.2.5-2 .6-.7.9-1.3.6-1.3s-.9.5-1.3 1.2m22.7 1.8c0 1.9-1.1 7.5-2.3 12.5-3.5 14.3-15.8 36.4-21.4 38.5-1.3.5-3 2.4-3.8 4.2s-2.8 4.6-4.3 6.3c-2.9 3-15.5 13.9-21.3 18.4-1.7 1.3-2.9 2.6-2.6 2.8.3.3 2.3-.9 4.6-2.7 2.2-1.7 4.7-3.3 5.5-3.4s4-3 7.1-6.4c3-3.4 6.1-6.2 6.8-6.2s1.7-.9 2.2-2c.5-1 4.1-5.2 8-9.2q7.2-7.35 10.8-14.7c2.1-4 3.9-7.1 4.1-6.9.5.5-2.1 10-8.8 32.8-4.8 16.3-7.8 29.4-7.6 33.2.1 2.7.8.3 2.9-9.7 1.6-7.6 6.1-22.8 11.1-37.5 3.7-11.1 7.9-26.9 7.9-30 0-1.3-.2-1.3-1.1 0-.9 1.2-1 1.2-.5-.3.3-1 .6-2.6.7-3.5 0-1.4.2-1.3.8.3.7 1.6 1 1 1.6-2.7.4-2.6.4-5.2 0-5.8-.4-.7-.3-1.5.2-1.9.6-.3.7-2.4.3-5.1-.7-4.2-.8-4.2-.9-1m-.4 13.2c-.3.8-.6.5-.6-.6-.1-1.1.2-1.7.5-1.3.3.3.4 1.2.1 1.9m231.7-13.4c.4.6 2.9 2.6 5.7 4.4 4.2 2.7 4.7 3.3 3.2 3.9s-1.3.8.8.8c3.5.1 19.4 8 18.3 9-.5.5-1.8 1.2-2.9 1.5s-.1.3 2.2 0c3.5-.5 6.1.3 17.5 5.4 26.4 11.8 50.6 19.8 71.8 23.7 13.2 2.4 39 3.9 50.5 2.9 9.6-.8 9-.9-14-1.5-23.1-.7-32.5-1.7-51-5.9-15.8-3.5-67.5-23.5-67.5-26.1 0-.4.8-1 1.8-1.3.9-.3.1-.3-1.8-.1-2.8.4-5.6-.6-13.5-4.5-5.5-2.8-11.8-6.4-14-8-5.2-3.9-7.9-5.5-7.1-4.2m-533.6.9c.7.3 1.6.2 1.9-.1.4-.3-.2-.6-1.3-.5-1.1 0-1.4.3-.6.6m461 0c.7.3 1.6.2 1.9-.1.4-.3-.2-.6-1.3-.5-1.1 0-1.4.3-.6.6m-456 1c.7.3 1.6.2 1.9-.1.4-.3-.2-.6-1.3-.5-1.1 0-1.4.3-.6.6m310.4 3.8c0 1.6.2 2.2.5 1.2.2-.9.2-2.3 0-3-.3-.6-.5.1-.5 1.8m56.3.5c.3.5 1.1 1 1.6 1 .6 0 .7-.5.4-1-.3-.6-1.1-1-1.6-1-.6 0-.7.4-.4 1m-132.1 5.1c-1.9 2.2-1.9 2.2.3 1 2.4-1.2 3.9-3.1 2.5-3.1-.5 0-1.7 1-2.8 2.1m138.6-.7c0 .2.8 1 1.8 1.7 1.5 1.3 1.6 1.2.3-.4s-2.1-2.1-2.1-1.3m-9.9 7.6c1.9 2.5 5 7 6.7 10.1 2.9 5.2 6.2 9.1 6.2 7.5 0-.4-.8-1.9-1.9-3.4-1-1.5-3.3-5.3-5.2-8.5-1.9-3.3-4.7-6.8-6.4-8l-3-2.1zm-39 1.7c1.8 2.9 3.3 5.3 3.5 5.3.9 0-1.2-4.1-3.7-7l-3-3.5zm-282.7-1.8c-1.8 1.1-3.5 2.4-3.8 3-.4.6-1.5 1.1-2.5 1.1s-1.8.6-1.8 1.4c0 1.3.4 1.3 2.7.1s9.8-7.5 8.9-7.5c-.2 0-1.8.9-3.5 1.9m329.1 1.1c1 1.1 2 2 2.3 2s-.3-.9-1.3-2-2-2-2.3-2 .3.9 1.3 2m-148.4 3.1c-1.8 2.2-3.1 4.2-2.8 4.5.6.6 6.7-6.4 6.7-7.6 0-1.6-.5-1.2-3.9 3.1M669 723c-2 .6-2.1.8-.5.8 1.1 0 3.1-.4 4.5-.8 2-.6 2.1-.8.5-.8-1.1 0-3.1.4-4.5.8m-12.5 2.5c-3.1.8-4 1.3-2.5 1.4 1.4 0 4.8-.6 7.5-1.3 6.3-1.8 1.8-1.8-5-.1" /><path d="M929.8 729.1c-.9 1.9-1.9 4.7-2.2 6.4-.4 2.1.2 1.3 1.9-2.4 1.4-2.9 2.4-5.8 2.2-6.4s-1 .5-1.9 2.4m-282.5-1.4c.9.2 2.3.2 3 0 .6-.3-.1-.5-1.8-.5-1.6 0-2.2.2-1.2.5m21.9 1.5c-1.8 1.1-3.1 2.3-2.8 2.5.2.3 2.2-.7 4.3-2.1 4.4-3.1 3.3-3.4-1.5-.4m-27.9-.5c.9.2 2.3.2 3 0 .6-.3-.1-.5-1.8-.5-1.6 0-2.2.2-1.2.5m-7 1c.9.2 2.5.2 3.5 0 .9-.3.1-.5-1.8-.5s-2.7.2-1.7.5m-9 1c.9.2 2.5.2 3.5 0 .9-.3.1-.5-1.8-.5s-2.7.2-1.7.5m-10.5 1c1.2.2 3 .2 4 0 .9-.3-.1-.5-2.3-.4-2.2 0-3 .2-1.7.4m47.2 1.8c-1.4.8-2 1.4-1.4 1.5.5 0 1.9-.7 3-1.5 2.4-1.8 1.6-1.9-1.6 0m-5 2.5c-.8.5-1.2 1.2-.9 1.5.4.3 1.2-.1 1.9-1 1.4-1.7 1.1-1.9-1-.5m438 3.4c0 .2.7.7 1.6 1 .8.3 1.2.2.9-.4-.6-1-2.5-1.4-2.5-.6M646.5 742c-.3.6.1.7.9.4 1.8-.7 2.1-1.4.7-1.4-.6 0-1.3.4-1.6 1m452.5-.6c0 .3.9 1 2 1.6s2 .8 2 .6c0-.3-.9-1-2-1.6s-2-.8-2-.6m-457.6 3.2c-1.8 1.4-1.8 1.4.6.3 3.1-1.4 3.6-1.9 2.4-1.9-.6 0-1.9.7-3 1.6m159.1.4c-.3.5-.2 1 .4 1 .5 0 1.3-.5 1.6-1 .3-.6.2-1-.4-1-.5 0-1.3.4-1.6 1m303.5-.4c0 .6 18.7 9.4 19.8 9.3.8 0-18-9.8-19-9.8-.5-.1-.8.2-.8.5m-181.5 1.5c-.4.6-.5 1.2-.2 1.5.2.3.7-.2 1-1.1.7-1.7.1-2-.8-.4m318.5-.7c0 .2.7.9 1.5 1.6.9.7 1.5.8 1.5.2 0-.5-.7-1.2-1.5-1.6-.8-.3-1.5-.4-1.5-.2m-446.5 3.1c-2.2 1.3-3.7 2.5-3.3 2.5.9 0 7.8-4.1 7.8-4.6 0-.6-.3-.5-4.5 2.1m566-1.5-4 .7h3.5c1.9.1 4.9-.3 6.5-.7 2.7-.7 2.7-.8.5-.7-1.4 0-4.3.3-6.5.7m-431.6 2.6c-.5 1.5-.8 2.9-.5 3.1.2.2.8-1 1.4-2.6 1.3-3.8.5-4.1-.9-.5m150.9-.1c1.1 1.6 6.3 7.1 11.4 12.1 13.7 13.3 23.8 20.5 41.7 29.4 13.2 6.6 14.4 6.4 1.6-.3-17.8-9.3-29.9-18.2-46.9-34.6-5.4-5.3-9-8.3-7.8-6.6m167.7 1.5c1 1.1 2 2 2.3 2s-.3-.9-1.3-2-2-2-2.3-2 .3.9 1.3 2m-461 2c-.3.6.1.7.9.4 1.8-.7 2.1-1.4.7-1.4-.6 0-1.3.4-1.6 1m60 2.6c-1.5 1.9-2.5 3.7-2.2 4 .2.2 1.6-1.4 3.1-3.6 3.3-5 2.8-5.2-.9-.4m-70.7 2.7c-4.2 2.3-7.5 4.3-7.3 4.5.4.4 16.5-7.7 16.5-8.3 0-.9-1.5-.3-9.2 3.8m34.2 3.3c-7.5 7.5-20 17.3-27.7 21.6-3 1.7-5.2 3.2-4.9 3.5.6.7 13-7 21-13.2 7.3-5.5 19.3-17.1 18.5-17.9-.2-.2-3.3 2.5-6.9 6m18.6-5.1c-.9 2.6-.7 3.2.5 1.2.6-1 .9-2.1.6-2.3-.2-.3-.7.2-1.1 1.1m208.4-.5c-1.3.8-1.2 1 .3 1 .9 0 1.7-.5 1.7-1 0-1.2-.1-1.2-2 0m-432 3.6-3.5 1.4 3.5-.6c3.6-.6 4.6-1.1 3.9-1.8-.2-.2-2 .3-3.9 1m435.4-.8c.4.7.2 1.2-.4 1.2s-.1 1.3 1.1 3c2.6 3.5 3.8 3.3 1.5-.2-.9-1.4-1.4-2.7-1-3 .3-.3 0-.9-.7-1.4-.8-.4-1-.3-.5.4m-70.3 3.8c0 1.1.3 1.4.6.6.3-.7.2-1.6-.1-1.9-.3-.4-.6.2-.5 1.3m170.9-.6c.8.5 2 1 2.5 1 .6 0 .3-.5-.5-1s-1.9-1-2.5-1c-.5 0-.3.5.5 1m-64 .6c0 1.3 12.5 26.5 14.3 28.9.8 1.1 1.8 1.7 2.2 1.4.3-.4-.6-2-2-3.7-1.4-1.6-2.5-3.7-2.5-4.5s-.5-1.7-1.1-1.9c-.5-.2-1.1-1-1.3-1.8-.3-1.5-8.2-18-9.1-18.8-.3-.3-.5-.1-.5.4m9 2c5.4 6.3 15.7 16.7 19.5 19.6 2.2 1.8-.1-.9-5.1-5.8s-9.9-10.2-10.9-11.7-2.7-3.3-3.9-3.9c-1.9-1-1.9-.8.4 1.8m-493.2-.9c.7.3 1.6.2 1.9-.1.4-.3-.2-.6-1.3-.5-1.1 0-1.4.3-.6.6m378.2 1.9c-.1 2.1 4.5 18.4 5.2 18.4.3 0-.5-4.1-1.8-9.2-2.3-8.6-3.4-11.4-3.4-9.2m-105.4 11c-5.4 5.3-9 9.1-8 8.6 1.9-1.1 19.3-18.2 18.4-18.2-.3.1-4.9 4.4-10.4 9.6m-55.2-5.4-1.9 2.3 2.3-1.9c1.2-1.1 2.2-2.1 2.2-2.3 0-.8-.8-.2-2.6 1.9m-10.4 10c-7.9 7.5-7.1 7.4 1.5 0 4.2-3.7 7.4-7.3 6.3-7.2-.2.1-3.7 3.3-7.8 7.2m15.5-1.5c-2.9 6.4-10.3 19.4-14.7 26-1.6 2.4-2.6 4.3-2.3 4.3s-.5 1.2-1.9 2.7-2.3 3-2 3.5c.3.4.1.8-.4.8-.9 0-8.2 9.4-8.2 10.5 0 .3.9.1 2-.5s2-1.7 2-2.5c0-.7 1.4-2.8 3.1-4.7 4.2-4.5 8.8-11.5 14.8-22.5 7.7-14.1 11.5-22.2 10.7-23-.2-.2-1.6 2.2-3.1 5.4m81.1.7c-5 7.9-9.8 17.6-9.3 18.9.2.7 2.5-3 5-8 2.5-5.1 5.5-10.7 6.7-12.3 1.2-1.7 2-3.4 1.7-3.6-.3-.3-2.1 1.9-4.1 5m575.2-4.7c.7.3 1.6.2 1.9-.1.4-.3-.2-.6-1.3-.5-1.1 0-1.4.3-.6.6m-622.3 1.4c-.4.6-.5 1.2-.2 1.5.2.3.7-.2 1-1.1.7-1.7.1-2-.8-.4m617.3-.4c.7.3 1.6.2 1.9-.1.4-.3-.2-.6-1.3-.5-1.1 0-1.4.3-.6.6m-7.5 1c.9.2 2.3.2 3 0 .6-.3-.1-.5-1.8-.5-1.6 0-2.2.2-1.2.5m-97 2c.9.2 2.3.2 3 0 .6-.3-.1-.5-1.8-.5-1.6 0-2.2.2-1.2.5M846 783.9c-1.5 3.1-1.7 4.2-.7 4.7.6.4.9.4.5-.1-.4-.4.2-2.5 1.3-4.6 1.1-2.2 1.7-3.9 1.4-3.9-.2 0-1.4 1.8-2.5 3.9m-73.5 5.1c-.3.6.1.7.9.4 1.8-.7 2.1-1.4.7-1.4-.6 0-1.3.4-1.6 1m205.2 3.5c.3 2.2.7 4.2.9 4.4.8.9.2-4.5-.6-6.4-.7-1.4-.8-.8-.3 2M769 791c-.9.6-1 1-.3 1 .6 0 1.5-.5 1.8-1 .8-1.2.4-1.2-1.5 0m15.5 2.6c-5.8 3.9-6.7 5.1-1.7 2.3 3.7-2 7.3-4.9 6.1-4.9-.3 0-2.2 1.2-4.4 2.6m60.9.9c-1 .8-1.4 1.5-.8 1.5s1.7-.7 2.4-1.5c1.6-1.9.9-1.9-1.6 0m249.6 1.8c0 1.6 3.1 6.7 4.1 6.7.6 0 .7.5.4 1-.3.6.1 1.3.9 1.6.9.3 1.3 1.1.9 1.7-.3.6-.1.7.5.3.9-.5.8-1.4-.3-3.4-1.8-3.3-6.5-9-6.5-7.9m-319.6 3.3c-1.8 1.4-1.8 1.5.4.4 1.2-.6 2.2-1.3 2.2-1.5 0-.8-.5-.6-2.6 1.1m146.7 2c0 1.1.3 1.4.6.6.3-.7.2-1.6-.1-1.9-.3-.4-.6.2-.5 1.3m57 0c0 1.1.3 1.4.6.6.3-.7.2-1.6-.1-1.9-.3-.4-.6.2-.5 1.3M811 807.7c-1.9 3.6-4.7 8.2-6.2 10.1s-2.5 3.8-2.2 4.3.2.8-.3.7c-1.2-.3-5.3 2.1-5.3 3.3 0 .5 1.1.2 2.5-.7 1.9-1.2 2.5-1.3 2.5-.3 0 .7 1.6-1.4 3.6-4.7 3.7-6 9.7-18.5 9.2-19-.2-.1-1.9 2.7-3.8 6.3m74.3-5.2c-.3.9-.3 1.8-.1 2.1.3.3.8-.4 1.1-1.6.6-2.3-.1-2.7-1-.5m201.7-.2c0 1.4 4.8 10.2 7 12.7l2.2 2.5-1.6-2.5c-.9-1.4-2.9-5-4.6-8-1.6-3-2.9-5.1-3-4.7m-3.1 3c2.6 2.8 3.1 3.2 3.1 1.9 0-.4-1.3-1.6-2.8-2.6l-2.7-1.9zm-8.3 1c.3 1 .9 1.5 1.2 1.2s0-1.1-.7-1.8c-1-.9-1.1-.8-.5.6m-260.7 2.4c-1.3 1.6-1.2 1.7.4.4.9-.7 1.7-1.5 1.7-1.7 0-.8-.8-.3-2.1 1.3m68.2 1.9c0 1.1.3 1.4.6.6.3-.7.2-1.6-.1-1.9-.3-.4-.6.2-.5 1.3m-1 3.1c-.1.6-.4 2-.7 3-.5 1.7-.5 1.7.6 0 .6-1 .9-2.3.6-3-.3-.9-.5-.9-.5 0m198.1 2.9c1.1 3.5 4.8 9.7 4.8 7.9 0-.4.8-.1 1.7.6.9.8 0-1.3-2.1-4.6-5-7.9-5.7-8.6-4.4-3.9m28.8 1.9c1.3 1.4 2.6 2.5 2.8 2.5.3 0-.5-1.1-1.8-2.5s-2.6-2.5-2.8-2.5c-.3 0 .5 1.1 1.8 2.5m-188.8.5c0 1.4.2 1.9.5 1.2.2-.6.2-1.8 0-2.5-.3-.6-.5-.1-.5 1.3m-104.4 4.6c-1.8 3.3-3.2 6.2-3 6.6.1.5-.4.8-1.1.8-1.4 0-7.7 6.1-7.7 7.5 0 .5 1.4-.4 3.2-2.1 3.2-3 3.1-2.8-.9 4.1-2 3.3-2 3.6-.3 1.5 1.1-1.4 3-3.6 4.1-4.9 2.5-3 10.2-18.1 9.5-18.8-.2-.3-2 2.1-3.8 5.3m53.5 2.4c0 3.6.2 5 .4 3.2.2-1.7.2-4.7 0-6.5-.2-1.7-.4-.3-.4 3.3m-3.2-3.4c0 1.1.3 1.4.6.6.3-.7.2-1.6-.1-1.9-.3-.4-.6.2-.5 1.3m7 8.9c0 5.6.3 8.5.8 7.6.7-1.1 1-.9 1.4 1 .3 1.7.5 1.3.6-1.4 0-2-.3-3.7-.8-3.7s-.7-.8-.5-1.8c.2-.9 0-3.7-.5-6.2-.8-4.1-.9-3.7-1 4.5m5.9-4.3c0 2.5.3 2.9 1 1.8 1.3-2 1.3-5 0-5-.5 0-1 1.5-1 3.2m92-2.8c0 .3 2.6 2.6 5.8 5.1 15.1 12.2 23.4 29.2 25.2 52l.7 9 .1-7.2c.4-16.8-8.2-40.2-17.8-48.5-8.5-7.3-14-11.4-14-10.4m123.4 1.5c2 2.2 2.6 2.5 2.6 1.3 0-.4-1-1.3-2.2-2.1-2.3-1.4-2.3-1.4-.4.8m-223.3.7c0 1.1.3 1.4.6.6.3-.7.2-1.6-.1-1.9-.3-.4-.6.2-.5 1.3m48.3.4c0 1.1.4 2 .8 2s.8-.9.8-2-.4-2-.8-2-.8.9-.8 2m61.8 0c0 1.4.2 1.9.5 1.2.2-.6.2-1.8 0-2.5-.3-.6-.5-.1-.5 1.3m-182.4 3c-.9 1.7-1.3 3-.8 3s1.6-1.4 2.5-3c2-3.9.5-3.9-1.7 0m-14.2.2c.3.5 1 .6 1.5.3 1.3-.9 1.1-1.2-.6-1.2-.8 0-1.2.4-.9.9m135.9.9c-.4.6-.5 1.2-.2 1.5.2.3.7-.2 1-1.1.7-1.7.1-2-.8-.4m-138.9 9c-9.8 9.3-11.8 10.4-6.9 4 1.5-2 2.7-3.7 2.5-3.9-.6-.6-1.7-.1-1.7.8 0 .6-.4 1.4-1 1.8-2.1 1.5-5.4 7.1-4.5 7.7.8.5 22-17.9 22-19.1 0-1-1.3.1-10.4 8.7m492.9-7.1c.3.5 1.4 1 2.3 1 1.5 0 1.5-.2.2-1-2-1.3-3.3-1.3-2.5 0m-412.1 4.7c-.9 2.6-2.3 6.3-3.1 8.2-1.7 4.4-1.6 5.3.3 1.7 2-3.6 5.5-13.8 5-14.3-.2-.2-1.2 1.7-2.2 4.4m172 5.3c0 5.8.1 8.1.3 5.2.2-2.8.2-7.6 0-10.5-.2-2.8-.3-.5-.3 5.3m-166.3-6.4c0 1.1.3 1.4.6.6.3-.7.2-1.6-.1-1.9-.3-.4-.6.2-.5 1.3m43 2.4c-3.8 4.8-11.3 19.9-10.4 21.3.3.5 1 .3 1.5-.7.5-.9.7-2 .3-2.5-.3-.5-.1-1.1.4-1.3.4-.1 2.1-2.7 3.5-5.6 1.5-3 4.6-7.4 6.8-9.8 2.3-2.4 3.8-4.7 3.4-5.1-.3-.3-.6-.1-.6.5 0 .7-.5 1.2-1.1 1.2-.5 0-.7-.5-.4-1 1.4-2.3-.4-.7-3.4 3m9.1.5c0 1.6.2 2.2.5 1.2.2-.9.2-2.3 0-3-.3-.6-.5.1-.5 1.8m-51.9 4c0 2.2.2 3 .4 1.7.2-1.2.2-3 0-4-.3-.9-.5.1-.4 2.3m47.2-.9c-.4 1.6-1.1 4.5-1.6 6.4-1.4 5.4-1.1 21.6.7 31.5.8 4.9 3.8 17.8 6.6 28.5 9.6 37.1 9.1 34.2 9.2 58 0 17.7-.4 23.6-2.2 33.4-2.1 11.9-2.4 17.3-.3 7.8 3.7-17.6 5.6-42.8 4.1-55.8-1.5-13.6-1.7-14.7-2.9-17.4-2.4-5.5-13.1-52.1-14.2-61.5-1.1-10.1-.6-20.5 1.3-28.3.6-2.3.8-4.5.5-4.9-.3-.3-.9.8-1.2 2.3m-124.7-.5c-1 .5-2.3 2-2.9 3.2-1 1.8-.6 1.7 2-.7 3.9-3.7 4.2-4.5.9-2.5m6.1 1.6-2.4 2.8 2.8-2.4c1.5-1.4 2.7-2.6 2.7-2.8 0-.8-.8-.1-3.1 2.4" /><path d="M985.7 846.5c.3 2.7.9 6.8 1.4 9 .7 3.3.8 3 .3-2-.2-3.3-.9-7.4-1.4-9-.7-2.4-.8-2-.3 2m-65.6-1.9c0 1.1.3 1.4.6.6.3-.7.2-1.6-.1-1.9-.3-.4-.6.2-.5 1.3m59.6 10.9c-.4 6-1.4 14.8-2.2 19.5-1.6 9.4-1.9 14.4-.5 9.7 1.6-5.1 4.1-28.2 3.8-34.3-.2-4.8-.4-3.8-1.1 5.1m-214.1-1.4c-1.6 1.5-3.3 2.6-3.7 2.3-.5-.3-.9.2-.9 1.1s-.4 1.4-.9 1.1c-.8-.5-6.1 6.2-6.1 7.8 0 .4 3.4-2.7 7.6-6.9s7.4-7.8 7.3-8c-.2-.2-1.7 1-3.3 2.6m81.4-.1c-.6 1.1-.8 2-.6 2 .3 0 1-.9 1.6-2s.8-2 .6-2c-.3 0-1 .9-1.6 2m73.2 2c0 1.9.2 2.7.5 1.7.2-.9.2-2.5 0-3.5-.3-.9-.5-.1-.5 1.8m343.3-1.8c5.5 3.2 37.5 17.5 37.5 16.8 0-.5-1-1.2-2.2-1.6-1.3-.4-9.9-4.2-19.1-8.5-15.3-7.2-21.4-9.7-16.2-6.7M769 867.8c-9.5 9.4-8.7 9.8 1.4.8 6.1-5.3 9.9-9.9 7.9-9.4-.4.1-4.6 4-9.3 8.6m316.9-7.5c.6.8.7 1.8.3 2.2-.4.5-.1.5.6.1 1-.6 1-1.1.1-2.2-.6-.8-1.4-1.4-1.6-1.4-.3 0 0 .6.6 1.3m276.4-.5c-.7.4-.9 1.3-.4 2.1.6.9 1 .7 1.4-.8.3-1.2.4-2.1.4-2.1-.1 0-.7.4-1.4.8m-294.3 2c0 .4 1.4 2.1 3.2 3.8l3.1 2.9-2.2-3.2c-2.3-3.5-4.1-5-4.1-3.5m331.8.9c.7.3 1.6.2 1.9-.1.4-.3-.2-.6-1.3-.5-1.1 0-1.4.3-.6.6m-413.5 3.8c0 2.2.2 3 .4 1.7.2-1.2.2-3 0-4-.3-.9-.5.1-.4 2.3m168.7-3.1c0 .2.8 1 1.8 1.7 1.5 1.3 1.6 1.2.3-.4s-2.1-2.1-2.1-1.3m205 .5c0 .5.5 1.3 1 1.6.6.3 1 .2 1-.4 0-.5-.4-1.3-1-1.6-.5-.3-1-.2-1 .4m-542.1 2.8c-1.3 1.6-1.2 1.7.4.4.9-.7 1.7-1.5 1.7-1.7 0-.8-.8-.3-2.1 1.3m202.8-.2c.3.9-.3 2.5-1.2 3.5-1 1.1-1.5 2-1 2 .4 0 .1.8-.6 1.7-1.2 1.5-1.2 1.6.1.8s1.3-.7 0 1c-.8 1-1.4 2.7-1.2 3.8.3 1.3 0 1.7-.8 1.2-.9-.5-1-.1-.5 1.5s.4 2-.5 1.5-1-.1-.5 1.5c.5 1.5.4 2-.4 1.6-.7-.5-.8-.1-.4 1q.75 1.8-.6.9c-1-.6-1.1-.2-.6 1.5.5 1.6.4 2-.5 1.5s-1-.1-.5 1.5c.5 1.5.4 2-.4 1.6-.7-.4-.9-.1-.5.7.3.8.1 1.8-.5 2.2-.6.3-1.1 1.1-1.1 1.7 0 .7.5.6 1.4-.1 1.8-1.5 1.4.1-2.7 11.4-3.4 9.3-6.3 22.2-5.3 23.2 1.2 1.2 2.3-1.5 4.1-10.1 2.6-12.2 4.6-19.3 14.5-50.6 1.7-5.4 1.7-8-.1-8-.4 0-.6.7-.2 1.5m42.4.5c0 2.3 6.5 14.4 7.1 13.4.4-.5-1.1-4.1-3.3-7.9-2.1-3.9-3.9-6.3-3.8-5.5m-228.2 6.9c-1.7 3.9-2.2 5.8-1.3 5.4 1.5-.5 4.8-8.6 4.3-10.2-.2-.6-1.6 1.5-3 4.8m62.7-3.6c.3 1 .9 1.5 1.2 1.2s0-1.1-.7-1.8c-1-.9-1.1-.8-.5.6m23.6 1.7c0 1.9.2 2.7.5 1.7.2-.9.2-2.5 0-3.5-.3-.9-.5-.1-.5 1.8m62.4 8.1c-.9 5-1.5 9.3-1.3 9.5.2.3 1.2-3.6 2.2-8.6s1.6-9.3 1.3-9.5c-.2-.3-1.2 3.6-2.2 8.6m318.4-8.4c0 1.4 52.4 22.7 59.5 24.3.6.1 2 .6 3.3 1.1 3 1.2 3.2 1.1 3.2-.3 0-.6-.3-.8-.7-.5-.3.4-1.1.3-1.7-.2s-6.5-2.8-13.1-5.1c-10.2-3.6-33.1-12.6-46.7-18.4-2.1-.9-3.8-1.3-3.8-.9m-43 5.7c0 .2 1.4 1.4 3 2.6 1.7 1.2 3 1.9 3 1.6 0-.2-1.3-1.4-3-2.6-1.6-1.2-3-1.9-3-1.6m-336.9 3.2c0 1.1.3 1.4.6.6.3-.7.2-1.6-.1-1.9-.3-.4-.6.2-.5 1.3m-279.2 3.1c-1.3 1.6-1.2 1.7.4.4s2.1-2.1 1.3-2.1c-.2 0-1 .8-1.7 1.7m85.5 5.5c-3.2 3.5-6.1 6.2-6.5 6.1-1.2-.4-4.1 3.5-3 4.1.5.3 4.2-3 8.2-7.3 4-4.4 7.7-7.7 8.2-7.4.6.3.7.1.3-.5-.4-.7-.9-1.2-1.1-1.2-.1 0-2.9 2.8-6.1 6.2m-6.4 7.2c0 .2-.8 1-1.7 1.7-1.6 1.3-1.7 1.2-.4-.4s2.1-2.1 2.1-1.3m463.6-10.5c-.4.5-.2 1.2.3 1.5.5.4 1.2.2 1.5-.3.4-.5.2-1.2-.3-1.5-.5-.4-1.2-.2-1.5.3m-550.7 3.8c-1.3 1.6-1.2 1.7.4.4s2.1-2.1 1.3-2.1c-.2 0-1 .8-1.7 1.7M744 889c-.9.6-1 1-.3 1 .6 0 1.5-.5 1.8-1 .8-1.2.4-1.2-1.5 0m231.1.6c0 1.1.3 1.4.6.6.3-.7.2-1.6-.1-1.9-.3-.4-.6.2-.5 1.3m-347.6 5.5c-6.1 5-8 7-4 4.1 3.7-2.5 10.2-8.1 9.5-8.1-.3 0-2.7 1.8-5.5 4m112.4-2.4c-1.3 1.6-1.2 1.7.4.4.9-.7 1.7-1.5 1.7-1.7 0-.8-.8-.3-2.1 1.3m237.2 12.6c-6.1 20.2-6.1 20.3-5.6 12.2.7-10.1-.2-6.9-2 7.3-4.3 34-4 57.7 1.1 84.7 3.5 18.5 3.9 19.4 5.2 12 .6-3.5.6-6.6.1-7.5-.6-1-.9-.3-.9 2.5-.1 6.6-1.6 2.2-4.1-12.5-2.1-11.6-2.4-16.7-2.4-36 .1-25.2 1.1-32.6 7.1-53.3 5.2-17.5 6.6-22.9 6.2-23.3-.2-.2-2.3 6.1-4.7 13.9m303.9-12.9c0 .2.8 1 1.8 1.7 1.5 1.3 1.6 1.2.3-.4s-2.1-2.1-2.1-1.3m-278.8 3.1c0 1.6.2 2.2.5 1.2.2-.9.2-2.3 0-3-.3-.6-.5.1-.5 1.8m284.3 1c1.1.9 2.9 2.1 4 2.6l2 1-2-1.6c-1.1-.9-2.9-2.1-4-2.6l-2-1zm83 1.5c-.3.5-.2 1 .4 1 .5 0 1.3-.5 1.6-1 .3-.6.2-1-.4-1-.5 0-1.3.4-1.6 1m3.5 1.1c0 .5.5.7 1 .4.6-.3 1-.8 1-1.1 0-.2-.4-.4-1-.4-.5 0-1 .5-1 1.1" /><path d="M1001.1 901.2c0 1.5-1.4 7.9-3.1 14.3-3.4 13.2-3.3 12.8-2 12 1.4-.9 1.2.9-.6 6.6-1.4 4.1-1.4 5.3-.4 6.2 1 1 1.2.8.7-.6-.4-.9-.3-1.7.2-1.7.4 0 1.2-1.5 1.8-3.3.6-1.7 3.2-9 5.7-16.1 3.4-9.4 4.4-13.2 3.6-14s-.9-.6-.4.8c.4 1.2.4 1.7-.2 1.3-.6-.3-2.3 2.8-3.9 6.9-1.7 4-3.3 7.4-3.7 7.4-1.1 0-1.1 0 1.3-9 1.1-4.4 1.8-9.2 1.6-10.7l-.4-2.8zm202.5-1c.3.5.8.7 1.1.5.2-.3 1.5.5 2.8 1.7 5 4.6 45.3 31.1 46.1 30.3.2-.2-6-4.5-13.9-9.7-7.8-5.1-18.7-12.5-24.2-16.4-9.3-6.6-13.3-8.8-11.9-6.4m172.9-.2c-.3.6.1.7.9.4 1.8-.7 2.1-1.4.7-1.4-.6 0-1.3.4-1.6 1m3 1c-.3.5-.2 1 .4 1 .5 0 1.3-.5 1.6-1 .3-.6.2-1-.4-1-.5 0-1.3.4-1.6 1m-761.6 1.7c-1.3 1.6-1.2 1.7.4.4s2.1-2.1 1.3-2.1c-.2 0-1 .8-1.7 1.7m94.5 2c-2.3 3.1-2.4 3.4-.5 1.8 2.2-1.9 4.6-5.5 3.8-5.5-.3 0-1.7 1.7-3.3 3.7m670-2.5c-.5.7-.2.9.8.5.9-.3 2-.1 2.6.5.7.7 1.6.6 2.9-.2 1.6-1 1.6-1.1-.4-.7-1.3.3-2.3.1-2.3-.4 0-1.3-2.8-1.1-3.6.3m-84.1 1.5c1.7 2.7 50.1 29.2 51.2 28.1.2-.2-5.8-3.5-13.3-7.3s-17.1-9-21.2-11.5c-12.8-7.8-17.3-10.3-16.7-9.3m92.2.3c-.8 1.3.5 1.3 2.5 0 1.3-.8 1.3-1-.2-1-.9 0-2 .4-2.3 1m3.5.7c-2 .8 8.9 3.4 11.3 2.7.9-.3 1.7-.1 1.7.4 0 2.3 36 6.9 58.5 7.6 15.4.4 16 .4 6.5-.5-31.4-2.8-43.7-4.2-54.9-6.4-6.8-1.3-12.8-2.2-13.2-1.9-.5.3-.9 0-.9-.7 0-.6-.8-.9-2-.6-1.1.3-2 .1-2-.4 0-1-2.7-1.1-5-.2m-421.9 2.9c0 1.1.3 1.4.6.6.3-.7.2-1.6-.1-1.9-.3-.4-.6.2-.5 1.3m-265.7 1.6c-3.1 3.6-4.7 5.8-4.1 5.8.3 0 2-1.8 3.7-4 3.4-4.3 3.6-5.5.4-1.8m-15.5 13.5c-3.5 3.2-10.6 9.1-15.7 13.1-10 8-12 10.2-4.5 5 5.1-3.5 28.3-22.7 28.3-23.4 0-1.3-2.3.2-8.1 5.3m59.4-.3c.3.8 0 1.3-.7 1.2-.7 0-6.2 5.5-12.3 12.4-11.5 13.2-33.1 35.3-44.8 45.9-3.8 3.5-7 6.6-7 7 0 1.3-1.7 3.1-2.4 2.7-.4-.3-.8.1-.8.9 0 1.5 3.1-.8 15.6-11.6 14.3-12.4 33.2-32.1 48.8-50.9 5.8-7 6.7-8.6 5.1-8.7-1.3-.1-1.8.3-1.5 1.1m419.7 6.7c8.3 7.5 25.6 21 34 26.5 4.1 2.7 7.8 5.3 8.2 5.9.4.5 1 .6 1.4.2s.5-.9.3-1.1-6.5-4.8-13.9-10.3-17.9-13.7-23.4-18.2c-10.8-8.9-15.4-11-6.6-3m-22.3 3.1c1.1 1.3 5.8 6.8 10.5 12.3 10.8 12.8 28.9 31.7 29.6 31 .3-.2-3.3-4.4-8-9.2-8.8-9.1-24.6-26.7-29.5-32.8-1.5-1.9-3.2-3.5-3.7-3.5s0 1 1.1 2.2m-155.1 1.3c-.9 2.6-.7 3.2.5 1.2.6-1 .9-2.1.6-2.3-.2-.3-.7.2-1.1 1.1m-95.4 1.5c-1.4 2.3-1.6 4-.3 4 .7 0 2.3-5.1 1.7-5.7-.1-.1-.7.7-1.4 1.7m458.8 0c1.9 1.1 4 1.9 4.5 1.9.6 0-.6-.8-2.5-1.9s-3.9-1.9-4.5-1.9c-.5 0 .6.8 2.5 1.9m-354.7 22.2c.3 12.3 1 23.9 1.6 25.8.9 3 1 2.7.5-2.5-.9-10.3-1.1-43.1-.3-41 .6 1.6.8 1.4.8-1.3.1-2.3-.3-3.2-1.5-3.2-1.5 0-1.6 2.1-1.1 22.2m-10.2-18.6c0 1.1.3 1.4.6.6.3-.7.2-1.6-.1-1.9-.3-.4-.6.2-.5 1.3m371.9-.6c.8.5 2 1 2.5 1 .6 0 .3-.5-.5-1s-1.9-1-2.5-1c-.5 0-.3.5.5 1m5 2c.8.5 2 1 2.5 1 .6 0 .3-.5-.5-1s-1.9-1-2.5-1c-.5 0-.3.5.5 1m-468.7 4.5c0 2.2.2 3 .4 1.7.2-1.2.2-3 0-4-.3-.9-.5.1-.4 2.3m94.3-2.2c.3 1 .9 1.5 1.2 1.2s0-1.1-.7-1.8c-1-.9-1.1-.8-.5.6m-96.3 8.7c0 2.5.2 3.5.4 2.2.2-1.2.2-3.2 0-4.5-.2-1.2-.4-.2-.4 2.3m1.5 6.2c-.3 4.6-.2 9 .3 9.8.5.9.9-2.4.9-8.3 0-5.3-.2-9.7-.4-9.7s-.6 3.7-.8 8.2m89.7-5.7c0 1.4.5 2.5 1.2 2.5.6 0 1-.8.8-1.8-.2-.9-.4-2-.4-2.5-.2-1.9-1.6-.4-1.6 1.8m-1.6 7.7c-.4 4.9.4 5.6 1.5 1.3.4-1.4.2-3.3-.3-4.2-.6-1.2-1-.5-1.2 2.9m-207.8 9.9c-4 5.5-12.8 16.4-19.5 24.1-6.6 7.8-13.2 15.5-14.5 17.2l-2.5 3.1 2.5-1.9c10.8-8.6 45.2-49.9 43.2-51.9-1.2-1.3-1.8-.7-9.2 9.4m344.6-1.1c.7.8 2 1.5 2.9 1.6s1.3-.1.9-.4c-.4-.4-1-.7-1.3-.7-.4 0-1.4-.4-2.2-.9-1.2-.7-1.3-.6-.3.4m-139.1 2.1c-.9 1.2-1.5 2.7-1.2 3.5s.1 1.4-.5 1.4c-.7 0-.9 1.2-.7 3 .3 1.6.1 3-.2 3-1.3 0-4 17.2-3 18.9.7 1.3.9 1.1 1-1.1 0-1.4.3-3.3.6-4.2 1-2.7 2.4-1.8 2.4 1.6 0 4.4 3.6 18.1 5.5 21.6.9 1.5 1.3 1.8 1 .7-3.1-9.8-4.5-19.1-4.5-30 0-6.6.5-13.8 1-16 1.1-4.8.9-5-1.4-2.4m-2.2 19.3c-.3 1.5-.8 2.5-1.1 2.3-.2-.3-.1-1.7.3-3.1.3-1.5.8-2.5 1.1-2.3.2.3.1 1.7-.3 3.1M744.5 976c-1.4 2.7-2.3 5-2 5 .2 0 1.6-2.3 3-5 1.4-2.8 2.3-5 2-5-.2 0-1.6 2.2-3 5m383.2-4.4c-.8.8 12.7 17.4 22.3 27.4l7.2 7.5-5.3-6.5c-2.9-3.6-9.2-11.6-14.2-17.8-4.9-6.1-9-11.2-9.1-11.2-.2 0-.5.3-.9.6M897 975.7c0 1.3.5 2.3 1 2.3 1.3 0 1.3-1.1 0-3-.8-1.2-1-1.1-1 .7m-1.4 11.5c-.4 2.9-1.4 8.8-2.2 13.1-2.5 12.8-.9 9.8 2.1-3.9 1.8-8.2 2.4-12.9 1.8-13.5-.7-.7-1.3.8-1.7 4.3m20.8 1.3c.2 2.2 1.2 8.3 2.4 13.5 3 14.1 4.5 26.6 3.8 31.3-.4 2.6-.3 3.7.3 2.8.7-1.1.9-1.1 1.4 0 .4.8.4-.9.1-3.6-.3-2.8-.1-7 .5-9.5 1.1-4.9.7-6.7-.8-2.9-.7 2-1 1.4-1.5-3.6-.9-8-3.3-20.8-5.1-27-1.4-5-1.5-5-1.1-1m-2.2 1.5c0 1.9.2 2.7.5 1.7.2-.9.2-2.5 0-3.5-.3-.9-.5-.1-.5 1.8m90-1c0 1.4.2 1.9.5 1.2.2-.6.2-1.8 0-2.5-.3-.6-.5-.1-.5 1.3m1 5c0 1.4.2 1.9.5 1.2.2-.6.2-1.8 0-2.5-.3-.6-.5-.1-.5 1.3m.9 4.6c0 1.1.3 1.4.6.6.3-.7.2-1.6-.1-1.9-.3-.4-.6.2-.5 1.3m-92.5 2.1c-.4.9-.2 2.1.4 2.7.7.7 1 .2 1-1.7 0-3.1-.5-3.4-1.4-1m-1 6.8c-.3.8-.1 1.5.4 1.5.6 0 1-.7 1-1.5s-.2-1.5-.4-1.5-.6.7-1 1.5m248 2.8c.3 1 .9 1.5 1.2 1.2s0-1.1-.7-1.8c-1-.9-1.1-.8-.5.6" /><path d="M890.7 1011.7c-.4.3-.7 1.3-.7 2.2.1 1.3.3 1.3 1.1-.2 1.1-1.9.8-3.3-.4-2m19.5 3c-1.5 4.9-.7 5.5 1.2.8 1.8-4.3 1.9-4.5.8-4.5-.5 0-1.4 1.7-2 3.7m-21.1 3.9c0 1.1.3 1.4.6.6.3-.7.2-1.6-.1-1.9-.3-.4-.6.2-.5 1.3" /><path d="M902 1032c-3.3 6.6-5.9 12-5.6 12 .6 0 11.2-19.1 12-21.8 1.6-4.9-.5-1.6-6.4 9.8m88-10.1c0 .6.4 1.3 1 1.6s.7-.1.4-.9c-.7-1.8-1.4-2.1-1.4-.7m3 6c0 .6.4 1.3 1 1.6s.7-.1.4-.9c-.7-1.8-1.4-2.1-1.4-.7m-20.7 8.4c-1.3 9.7-1 11.2.7 3.1.9-4.2 1.5-5.3 2.2-4.3s.8.3.4-2.1q-1.65-9.3-3.3 3.3m-47.1 4.2c0 1.6.2 2.2.5 1.2.2-.9.2-2.3 0-3-.3-.6-.5.1-.5 1.8m74.9.5c1.4 3.1 1.9 3.6 1.9 2.4 0-.6-.7-1.9-1.6-3-1.4-1.8-1.4-1.8-.3.6m-30 7.6c0 1.1.3 1.4.6.6.3-.7.2-1.6-.1-1.9-.3-.4-.6.2-.5 1.3" /></g><g fill="#aa8000" stroke-width="0"><path d="M1312.3 327.6c2.9 3.5 2 8.6-1.2 6.1-.9-.7-.8-.2.4 1.4 1.1 1.5 5.9 7.8 10.6 14 4.7 6.3 10.7 14.5 13.3 18.4 2.7 3.8 5.6 7.6 6.5 8.3s1.6 1.9 1.6 2.7.5 1.5 1 1.6c2 .2 3.6 2.3 3.2 4.1-.3 1 0 2.1.5 2.5.7.4.8.1.3-.7-.6-.9-.4-1.1.4-.6.7.5 1 1.4.7 2.1-.3.9.2 1.2 1.4 1 1.3-.3 1.7.1 1.3 1.1-.3.7-1 1.1-1.6.7q-.9-.45-.3.6c.4.6 1.1.9 1.6.6.4-.3 1.1.2 1.4 1.1.4.9.2 1.3-.5.8-.8-.4-.7 0 0 1.5.7 1.1 1.4 2.1 1.7 2.1s.2-.5-.1-1c-.3-.6-.4-1-.1-1s1 1 1.7 2.1c.9 1.7.8 2-.1 1.4-.7-.5-.5.6.6 2.4 1 1.7 2.2 3.1 2.6 3.1s.7.3.7.7c-.3 1.9.2 3.6.8 3 .9-1 3.6 3.1 2.8 4.3-.3.6.1.7.9.4.9-.3 1.3-1 1-1.5s0-.9.7-.9c.6 0 .9-.8.6-2s-.1-1.8.5-1.4c.5.3-.3-1.3-1.8-3.7s-3.1-4.6-3.6-4.7c-.4-.2-1.3-1.3-1.9-2.4-.8-1.6-.8-1.9.1-1.3s.9.3.1-1.3c-.6-1.1-1.8-2.2-2.7-2.6-.9-.3-1.4-1.3-1-2.1.3-.8 0-1.7-.6-2.1-.7-.5-.8-.2-.3.6.6.9.4 1.1-.4.6-.7-.5-1-1.5-.7-2.3s.1-1.1-.4-.8c-.9.6-1.4-.8-1.1-2.8 0-.4-.4-.6-1-.5-.6.2-1.4-.3-1.7-1.1-.3-.9 0-1.1.8-.6.9.6 1.1.4.5-.5-.6-1-1.1-.9-2.2.6-1.2 1.6-1.5 1.7-2.3.4-.7-1.1-.4-1.7 1.1-2.2 1.7-.7 1.9-2.8.3-2.8-.3 0-.2.4.1 1 .3.5.4 1 .1 1s-1-1-1.7-2.1c-.8-1.6-.8-2 .1-1.4s.9.2.1-1.4c-.7-1.1-1.4-2.1-1.7-2.1s-.2.5.2 1.2.3.8-.5.4c-.6-.4-.9-1.2-.6-1.7.4-.5-.5-2-1.9-3.4s-2.3-2.5-2-2.5c.8 0-11.1-16.8-17-24-2.9-3.6-5.8-6.4-6.4-6.3-.6.2-.9-.3-.6-1 .2-.7-1-2.6-2.8-4.2-1.8-1.7-2.5-2.1-1.5-.9m-362.2 34c0 1.1.3 1.4.6.6.3-.7.2-1.6-.1-1.9-.3-.4-.6.2-.5 1.3m3.6-.9c-.4.3-.7 2.7-.7 5.1 0 5.7.6 5.2 1.2-1.1.5-5 .5-5.1-.5-4M1373 421c-.9.6-1 1-.3 1 .6 0 1.5-.5 1.8-1 .8-1.2.4-1.2-1.5 0m4.3 7.8c-.8.5-.9 1.3-.3 2.2.8 1.3 1.1 1.3 2.2.1 1.1-1.1 1.1-1.3-.1-.6-1.1.6-1.3.4-.8-.8.7-1.9.7-2-1-.9m3.8 8.1c-.8.5-.9 1.1-.3 1.5.5.3 1.2-.1 1.6-.9.6-1.7.6-1.8-1.3-.6m1.4 8.9c.2.3 0 1.4-.6 2.5-.7 1.2-.7 1.7-.1 1.3 1.3-.7 2.3 1.9 1.6 3.9-.4 1 0 1.5 1.1 1.5 1.2 0 1.6.6 1.2 2-.3 1.1-.1 1.8.3 1.5 1.2-.7 2.3 3.2 1.4 4.6-.5.8-.3.9.6.4 1-.6 1.2-.4.7.9-.4.9-.3 1.4.2 1.1 1.2-.7 2.4 3.1 1.5 4.6-.5.8-.3.9.5.4.9-.5 1.2-.1 1.1 1.1-.4 3.6 0 5.5 1 4.9.6-.3.7.1.4 1-.4.9.1 2.1 1.1 2.9 1.2.8 1.6 2 1.2 3s-.3 1.5.3 1.1c.6-.3 1-.2 1 .4 0 .5.3 1.8.6 2.8.5 1.5.4 1.5-.5.3-.6-.9-1.1-1-1.1-.3 0 .6.7 1.9 1.6 2.7.8.9 1.2 2.1.8 2.7-.5.8-.3.9.6.4.9-.6 1-.2.5 1.5-.5 1.6-.4 2 .5 1.5s1-.1.5 1.5-.4 2 .5 1.5 1-.2.6 1.3c-.4 1.1-.2 2.3.4 2.7.6.3.8 1.1.5 1.6-.4.5-.1.9.5.9.7 0 .9.8.5 2.1-.5 1.6-.4 1.9.5 1.4s1-.1.5 1.5c-.5 1.7-.4 2.1.6 1.5.9-.6 1.1-.2.7 1.3-.4 1.2-.2 2.2.2 2.2s.6 1 .2 2.2c-.4 1.6-.2 1.9.8 1.3s1.1-.2.6 1.9c-.3 1.4-.2 2.6.3 2.6s.7.9.4 2 0 2 .6 2 1 .8.9 1.7c-.3 4.2.3 7.4 1.2 6.8.7-.4.9.2.4 1.9-.4 1.7-.2 2.6.5 2.6s.9.9.5 2.5c-.3 1.4-.2 2.5.3 2.5s.8 1.5.6 3.2c-.4 2.6-.2 3 .7 1.8.8-1.1.9-.6.4 2.4-.5 2.9-.4 3.7.5 3.2.9-.6 1 0 .5 2-.5 2.1-.4 2.5.6 1.9s1.1 0 .6 2.9c-.5 2.4-.3 3.6.4 3.6.8 0 .9 1.1.5 3-.4 1.6-.3 3.4 0 4 .4.6.9 3.2 1.1 5.8.1 2.6.8 9 1.3 14.2.6 5.2 1.1 12.1 1.1 15.3 0 3.1.5 6.6 1.1 7.6.7 1 .9 2.9.6 4.2-1 4.3-1.6 59.9-.6 59.9.5 0 .9-.6.9-1.3 0-.9.2-.9.9.1.6 1.1 1 1 1.5-.4 1.6-4.3 3.5-64.2 2-65.6-.5-.6-1.3-12.1-1.3-20.6 0-2.9-.4-4.2-1.1-3.7-.7.4-.9-.3-.5-2.2.6-3.6-1.5-20.3-2.6-20.3-.5 0-.6-1.4-.2-3q.45-3-.6-3c-.8 0-1-1.1-.5-3.6.5-2.6.3-3.5-.4-3-.8.5-1-.2-.6-2.4.4-1.7.2-3-.3-3-.6 0-.8-1.1-.5-2.5.2-1.5 0-2.5-.7-2.5s-.9-.4-.6-1c.7-1.2-4.4-24.4-5.5-24.8-.4-.2-.5-1.2-.2-2.4.3-1.3.1-1.9-.5-1.5-.7.5-.9 0-.6-1.3.3-1.1 0-2-.6-2s-.8-.7-.4-1.7c.4-1.1.3-1.4-.5-.9s-1 .2-.6-.8c.3-.8.2-2.1-.2-2.8s-.9-2.4-1-3.7c-.2-1.4-.8-2.7-1.4-2.9-.5-.2-.8-.8-.5-1.2.3-.5.3-2.1-.1-3.5-.4-1.8-.9-2.3-1.4-1.5-1.1 1.8-2.3-2.5-1.5-5.1.5-1.6.4-1.9-.6-1.4-.9.6-1.1.3-.6-.8.3-1 .2-1.7-.3-1.7s-.7-.7-.4-1.5c.4-.8.1-1.5-.6-1.5-.6 0-.9-.4-.6-.9.9-1.4-2.5-10.2-3.6-9.5-.6.4-.8-.2-.3-1.6.5-1.7.4-2.1-.6-1.5-.8.6-1.1.4-.7-.6.2-.8-.4-2.2-1.4-3.2s-1.8-1.2-1.8-.5c0 .6-.3.8-.7.4-.5-.4.1-1.4 1.1-2.2 1.1-.8 1.5-1.4.9-1.4s-1.4-.7-1.7-1.6c-.3-.8-.2-1.2.4-.9.5.3.7-.1.4-.9s-1.2-1.7-2-2c-1.1-.4-1.3-1.3-.9-2.7.5-1.3.3-1.9-.3-1.5-1 .6-2.5-2.1-1.8-3.3.3-.4-.6-.7-1.9-.7-1.4 0-2.2.2-2 .4M874 462.9c0 1.4 12 19.1 13 19.1.5 0 1 .5 1 1 0 1.8 5.6 10.1 6.3 9.4 1.1-1.2.8-2.4-.5-2.2-.8.2-1.2-.6-1.1-1.8.2-1.8-1.5-4.2-10-14.4-.6-.8-1.1-1.6-.9-1.7.7-.8-.1-2.2-2.9-5.1-1.7-1.7-2.8-3.5-2.5-4s-.1-.9-.9-.9-1.5.3-1.5.6m7.5 5.1c1 1.1 2 2 2.3 2s-.3-.9-1.3-2-2-2-2.3-2 .3.9 1.3 2m3.4 4.3c.6.8.7 1.7.3 2.1s0 .6.8.4 1.4.3 1.2 1c-.1.8.2 1.1.9.7.7-.5.3-1.5-1.2-3.1-2.4-2.5-3.9-3.3-2-1.1m8.1 8.2c1.3 1.4 2.6 2.5 2.8 2.5.3 0-.5-1.1-1.8-2.5s-2.6-2.5-2.8-2.5c-.3 0 .5 1.1 1.8 2.5m113.2 9.2c-1.3 1.9-2.1 3.7-1.9 3.9.3.3 1.4-1.2 2.6-3.2 2.8-4.7 2.3-5.3-.7-.7m-110.5 4.7c-.4.9-.2 1.5.3 1.3.5-.1 1.6.7 2.5 1.8l1.6 2-1-2c-2.2-4.2-2.8-4.8-3.4-3.1m1.9 5.9c.3 1 .9 1.5 1.2 1.2s0-1.1-.7-1.8c-1-.9-1.1-.8-.5.6m102 .3c-.5 1.4-.4 1.5.9.4 1.7-1.4 1.9-2 .6-2-.5 0-1.2.7-1.5 1.6m-52.3 3.9c0 2.7.2 3.8.4 2.2.2-1.5.2-3.7 0-5-.2-1.2-.4 0-.4 2.8m-47.3 1.2c0 .4.5 1.5 1 2.3.8 1.3 1 1.3 1-.2 0-.9-.4-2-1-2.3-.5-.3-1-.3-1 .2" /><path d="M1411 629c-.9.6-1 1-.3 1 .6 0 1.5-.5 1.8-1 .8-1.2.4-1.2-1.5 0m-7.2 2.7c-2.1.8-3.8 1.9-3.8 2.4 0 .8 7.4-2.3 8.9-3.7.9-.8-1.6-.2-5.1 1.3m-8.8 4.3c-1.9 1.1-3.1 1.9-2.7 2 1.1 0 6.7-2.9 6.7-3.5 0-.7-.1-.7-4 1.5m-24.8 11.2c-2.4 1.1-4.2 2.2-3.9 2.4.3.3 2.7-.6 5.4-2 5.7-3 4.7-3.3-1.5-.4m-8.8 4.3c-1.8 1.3-1.8 1.4.4.8 1.2-.3 2.5-.9 2.8-1.4.8-1.4-1-1.1-3.2.6m-155.6 9.2c.7.3 1.6.2 1.9-.1.4-.3-.2-.6-1.3-.5-1.1 0-1.4.3-.6.6m11.7 2.9c2.8.7 6.1 1.3 7.5 1.3 1.4-.1-.2-.7-3.5-1.5-7.8-1.7-10.5-1.6-4 .2m13.5 2.5c0 .5.5.7 1 .4.6-.3 1-.8 1-1.1 0-.2-.4-.4-1-.4-.5 0-1 .5-1 1.1m5.5.9c-.4.6.3 1 1.4 1 2.5 0 2.7-.6.6-1.3-.8-.4-1.7-.2-2 .3m5 1c-.3.5.3 1 1.4 1 1.2 0 2.1-.5 2.1-1 0-.6-.6-1-1.4-1s-1.8.4-2.1 1m7 1c.3.5 1 1 1.6 1 .5 0 .9-.5.9-1 0-.6-.7-1-1.6-1-.8 0-1.2.4-.9 1m10.3 1.7c1.2.2 3.2.2 4.5 0 1.2-.2.2-.4-2.3-.4s-3.5.2-2.2.4m161.4 15.3c0 1.4.2 1.9.5 1.2.2-.6.2-1.8 0-2.5-.3-.6-.5-.1-.5 1.3m4 0c0 1.4.2 1.9.5 1.2.2-.6.2-1.8 0-2.5-.3-.6-.5-.1-.5 1.3m-6.1 15.6c0 1.1.3 1.4.6.6.3-.7.2-1.6-.1-1.9-.3-.4-.6.2-.5 1.3M1240 750.3c0 .3 2 1.2 4.5 2 2.6.9 4.5 1.2 4.5.6s.5-.7 1-.4c1.6 1 1.1-.1-.7-1.6-1.4-1.2-1.6-1.2-.8 0 .6 1.1.2 1.3-2.1.8-1.6-.3-3.7-.9-4.6-1.2-1-.4-1.8-.5-1.8-.2m15 5.5c0 .8 13.9 12 16.8 13.6 2.5 1.3.7-.3-6.5-5.9-3.5-2.6-6.3-5-6.3-5.3 0-.2 1.2-.1 2.8.2 2.2.5 2.4.4.9-.5-1-.6-2.5-.8-3.3-.5s-1.4.1-1.4-.3c0-.5-.7-1.1-1.5-1.5-.8-.3-1.5-.2-1.5.2m-372.4 7.3c-2.7 8-3.6 11.2-3.3 11.6.2.2 1.4-2.5 2.5-5.9 1.2-3.4 1.9-6.4 1.7-6.6-.3-.3-.7.1-.9.9m411.9 4.9c-.3.5-.1 1 .4 1 .6 0 1.1-.5 1.1-1 0-.6-.2-1-.4-1-.3 0-.8.4-1.1 1m7.5 2.1c0 .5.5.7 1 .4.6-.3 1-.8 1-1.1 0-.2-.4-.4-1-.4-.5 0-1 .5-1 1.1m8.5 1.9c-.3.5-.1 1 .4 1 .6 0 1.1-.5 1.1-1 0-.6-.2-1-.4-1-.3 0-.8.4-1.1 1m4 1c-.3.5-.1 1 .4 1 .6 0 1.1-.5 1.1-1 0-.6-.2-1-.4-1-.3 0-.8.4-1.1 1m4 1c-.3.5-.2 1 .4 1 .5 0 1.3-.5 1.6-1 .3-.6.2-1-.4-1-.5 0-1.3.4-1.6 1m5.5 1c-.8.5-1 1-.5 1 .6 0 1.7-.5 2.5-1s1.1-1 .5-1c-.5 0-1.7.5-2.5 1m5.5 1c-1.3.5-1.4.9-.5.9.8 0 2.4-.4 3.5-.9 1.3-.5 1.4-.9.5-.9-.8 0-2.4.4-3.5.9m-48.5.4c0 .2.8 1 1.8 1.7 1.5 1.3 1.6 1.2.3-.4s-2.1-2.1-2.1-1.3m53.5.6-2 .9 2-.1c1.1 0 3.1-.4 4.5-.8l2.5-.8h-2.5c-1.4 0-3.4.3-4.5.8m7 1-2 .9h2c1.1 0 2.9-.4 4-.9l2-.9h-2c-1.1 0-2.9.4-4 .9m-451.9 1.7c-.6 1.4-.5 1.5.5.6.7-.7 1-1.5.7-1.8s-.9.2-1.2 1.2m458.9-.7c-.7 1.2 2.2 1.2 5 0 1.7-.7 1.5-.9-1.2-.9-1.7-.1-3.5.3-3.8.9m-63.5.4c0 .2 1.4 1.4 3 2.6 1.7 1.2 3 1.9 3 1.6 0-.2-1.3-1.4-3-2.6-1.6-1.2-3-1.9-3-1.6m71 .6c0 .6 2.5.9 5.8.9 5.6-.1 5.7-.1 1.7-1-5.5-1.1-7.5-1.1-7.5.1m-64 4.4c0 .2.8 1 1.8 1.7 1.5 1.3 1.6 1.2.3-.4s-2.1-2.1-2.1-1.3m4 3c0 .2.8 1 1.8 1.7 1.5 1.3 1.6 1.2.3-.4s-2.1-2.1-2.1-1.3m-416.9 3.4c-.6 1.2-1.1 2.7-1.1 3.4.1.7.8 0 1.6-1.5.9-1.6 1.3-3.1 1.1-3.4-.3-.2-1 .4-1.6 1.5m-5 4.8c0 1.1.3 1.4.6.6.3-.7.2-1.6-.1-1.9-.3-.4-.6.2-.5 1.3m3 4.8c-.8 1.4-1.2 2.9-.8 3.2.7.7 2.9-3.4 2.5-4.7-.2-.6-1 .1-1.7 1.5m-4.4 1.9c-.4 1.7-1.3 5.3-2.1 7.9-1.1 3.5-1.2 4.6-.2 4.2 1.2-.5 3.7-8 4-12.2.3-3.6-1.1-3.6-1.7.1m230.3 7.2c1.3 2.2 3.4 5.2 4.8 6.7 1.3 1.4 2.4 3 2.4 3.5 0 .4.2 1 .5 1.3.4.3.3-.1-.2-.9-.5-.9-.4-1.2.3-.7.6.4.9 1.3.6 2s.3 1.9 1.2 2.7c1.5 1.2 1.7 1.2.9 0-.5-.9-.4-1.2.3-.7.6.4.9 1.2.6 1.9-.2.7 3.9 5.5 9.1 10.7 8.3 8.2 9.3 9 7.5 5.5-1.2-2.2-2.6-3.9-3.1-3.7-.6.1-.8-.2-.5-.7.7-1.1-7.9-8.3-8.8-7.3-.4.3-.5 0-.1-.8.3-.9-2.5-5.3-7.1-11-9.2-11.5-11.5-13.8-8.4-8.5m23 26.1c0 .2-.9 0-2-.6s-2-1.3-2-1.6c0-.2.9 0 2 .6s2 1.3 2 1.6m-253.7-18.7c-1.5 4.1-1.7 8.1-.3 8.1 1.3 0 2.2-4 1.8-8.1l-.3-3.4zm-4.1 1.5c-.6 1.5-1.2 3.4-1.2 4.2s-.4 1.2-1 .9c-1.1-.7-1.1-.7-1.4 5.4-.1 2.7.1 3.7.5 2.5.4-1 1.7-4.3 2.9-7.2 2.3-5.7 2.5-10.8.2-5.8m227.8-1c0 1 5.8 9.3 7 10.1.6.4-.4-1.5-2.1-4.2-3.7-5.6-4.9-7-4.9-5.9M880 822c0 1.1.2 2 .4 2s.6-.9.9-2 .1-2-.4-2-.9.9-.9 2m-90 1.1c0 .5.5.7 1 .4.6-.3 1-.8 1-1.1 0-.2-.4-.4-1-.4-.5 0-1 .5-1 1.1m295 1c0 1.4 5.2 9.9 6.1 9.9.6 0 .8.4.5.9s.1 1.2 1 1.5c1.2.5 1-.3-.7-3.3-2.3-4.1-6.8-10-6.9-9m-300.1 5.1c-4.2 4.5-11.4 14.4-8.5 11.8 3-2.7 12.1-14 11.2-14-.3 0-1.5 1-2.7 2.2m312.1-1.8c0 .2 2.1 1.7 4.8 3.4 2.6 1.6 6.7 4.6 9.2 6.8 7.2 6.2 15.3 11.9 17 11.9.8 0 1.4.6 1.2 1.3-.1.8.2 1.1.8.7.5-.3 1-.8 1-1.1 0-.2-3.5-3-7.7-6.1-4.3-3.1-10.3-8-13.3-10.8-3-2.7-4.9-4.2-4.1-3.3 1.8 2.4 1 2.3-4.4-.7-2.5-1.4-4.5-2.4-4.5-2.1m-218.4 5.7c-.3 1.7-.6 5.8-.6 9.1 0 6.8-1.4 7-2.5.2-.3-2.5-.9-4.4-1.1-4.1-.7.7 1.3 14.8 3.3 23.5 1.3 5.5 1.9 6.9 2.5 5.5.5-1.1.6-.3.3 2-.4 2.6-.2 3.6.6 3.5.6-.2 1.4.3 1.7 1.1s0 1.1-.7.7c-1.8-1.1-1.3.5.7 2.1.9.8 1.1 1.2.5.8-1.8-.9-1.8-.6 2.8 15 6 20.6 9.9 36.8 9.9 41.3 0 1.3.4 2.1.9 1.8s.8 2 .8 5.2c0 3.1.1 9.3.3 13.7l.4 8 .5-7c.5-6.2-.1-19.8-1.3-29.5-.3-1.9-1.6-6.8-3-10.9s-2.4-7.7-2.1-7.9c.2-.3.7.4 1.1 1.4.6 2.1 1.2 3.4 4.2 11.2 1.1 2.9 1.8 6.1 1.5 6.9-.5 1.2-.3 1.4.7.8s1.2-.4.7.9c-.4.9-.3 1.5.1 1.2.5-.3.9.7.9 2.2s.7 4.3 1.5 6.2c4.8 10.7 11 39.9 11.1 52 .1 7.1.3 8.7.9 6.5 3-10-4.5-49.2-14.2-74-3.5-9.2-4-10.5-3.7-10.8.1-.1-.6-1.3-1.6-2.7-1.9-2.7-2.2-4.5-.7-3.5.6.4 1-3.4.9-10.7-.1-9.5-.3-10.6-1-6.8-.5 2.5-.7 6.6-.5 9.2.3 5.1-.8 6.5-1.8 2.3-.4-1.4-1.1-2.5-1.7-2.5s-.8-.4-.5-.9c.6-.9-2-8.1-3.3-9.1-.3-.3-.7-1.2-.7-2-.2-1.7-6.1-26-7.3-30.1-.4-1.4-.4-7.4 0-13.4.8-11.3.6-14-.5-8.4m-9.4.9c0 1.4.2 1.9.5 1.2.2-.6.2-1.8 0-2.5-.3-.6-.5-.1-.5 1.3m-72.7 0c-.3.5-.1 1 .4 1 .6 0 1.1-.5 1.1-1 0-.6-.2-1-.4-1-.3 0-.8.4-1.1 1m-3.5 5.2c-1.5 2.1-1.7 2.8-.6 1.9 1.6-1.3 4.1-5.1 3.3-5.1-.2 0-1.4 1.5-2.7 3.2m4 5c-3.6 3.3-9.2 7.8-12.4 9.9-3.3 2.2-6.1 4.6-6.2 5.4-.2 1.6 16.8-12 22.5-17.9 5.3-5.5 3.3-4.2-3.9 2.6m8.3-1.4c-5.6 8.3-19.2 29.7-19 30.2 0 .3-1.1 1.8-2.6 3.4-2.9 3.1-2.9 4.3-.1 3.2.9-.4 1.4-1.2 1-2.2-.3-.8-.2-1.2.4-.9 1.3.8 8.3-10.2 7.4-11.7-.4-.6-.3-.8.3-.5.6.4 4.6-5.2 9.1-12.8 7.9-13.2 9.8-18 3.5-8.7m288.5-4.1c.6.2 1.2 1.1 1.2 1.9s.5 1.4 1.1 1.4c.5 0 .7.5.3 1.2s-.3.8.4.4c1.4-.8-1.4-5.6-3.2-5.5-.7 0-.6.2.2.6m-326.3 11c-2.7 3.2-5 6.4-5 7.3-.1.8-.6 1.4-1.1 1.3-.6-.1-1.1.5-1.1 1.3 0 1 .7.9 2.4-.8 1.2-1.2 2.1-2.3 1.9-2.6-.3-.2 1.5-2.8 4-5.8 3.9-4.9 4.9-6.4 4.2-6.4-.2 0-2.5 2.6-5.3 5.7m366.5-4.5c0 .2 1.3 1.7 2.9 3.2 2.1 2 2.9 2.4 2.7 1.2-.1-.9-.5-1.5-.8-1.4-.3.2-1.5-.6-2.7-1.6-1.2-1.1-2.1-1.7-2.1-1.4m-347.1 2.5c-1.3 1.6-1.2 1.7.4.4.9-.7 1.7-1.5 1.7-1.7 0-.8-.8-.3-2.1 1.3m-18.5 5.5-2.9 3.3 3.3-2.9c1.7-1.7 3.2-3.1 3.2-3.3 0-.8-.8-.1-3.6 2.9m374-.5c1 1.3 2.2 2 2.6 1.8.4-.3 1 .1 1.3.8.3.8 5.9 5.5 12.6 10.5 16.3 12.5 17 14.4 1.4 4.1-2.3-1.5-4-2.2-3.7-1.5.2.6 6.2 4.5 13.2 8.5 10.2 5.9 25.2 15.9 35 23.4.6.5 1.2.7 1.2.4s-4.8-4.1-10.7-8.5c-6-4.4-14.6-11-19.3-14.6-4.7-3.7-11-8.5-14-10.8-7-5.3-11.9-9.3-14.7-12.1-1.3-1.2-2.3-1.8-2.3-1.3s-1 .1-2.2-1l-2.3-1.9z" /><path d="M1134.5 853.1c.6.9.3 1.1-1.1.6-1.4-.6-1.3-.2.5 1.2 1.4 1 3.1 1.7 3.8 1.4.8-.3 1.3 0 1.1.8-.2.9.4 1.3 1.6 1.1 1-.2 1.5.1 1.2.7-.4.6.5 1.3 1.9 1.7 1.4.3 2.5 1 2.5 1.5s.3.8.8.8c1.8-.3 3.1.3 5.6 2.6 1.4 1.3 2.6 2 2.6 1.5s-4.8-4.2-10.6-8.1c-5.9-3.9-10.3-6.5-9.9-5.8m-53.5.3c0 .2.8 1 1.8 1.7 1.5 1.3 1.6 1.2.3-.4s-2.1-2.1-2.1-1.3m-59.3 5.3c-1 .9-.9 2.3.1 2.3.5 0 .9-.7.9-1.5 0-1.7-.1-1.8-1-.8m-122.5 4.5c-1 3.3-2.6 10.5-3.6 16.6-.4 2-.2 3.1.4 2.7.6-.3 1-2.1 1-3.8 0-1.8.9-6.5 2-10.6 2-7.4 2.1-11.2.2-4.9m192.3 4.9c4.4 4.3 8.2 7.5 8.4 7.3.3-.2-1.4-2.2-3.7-4.4s-3.8-4-3.5-4c.4 0-.4-1.1-1.7-2.5-1.2-1.3-2.7-2.2-3.2-1.9s-1.7 0-2.6-.8c-.9-.7 1.9 2.1 6.3 6.3m17.1-5.9c.3.5 1 .6 1.5.3 1.3-.9 1.1-1.2-.6-1.2-.8 0-1.2.4-.9.9m-88.6 1.3c0 .3.7 1.4 1.6 2.3 1.5 1.4 1.6 1.4 1.3-.3-.4-1.7-2.9-3.5-2.9-2m-278 13.2c-7.5 7.5-10.1 10.6-6.5 7.6 8.9-7.6 21-20.3 19.2-20.3-.1 0-5.8 5.7-12.7 12.7m277.6-9c-.4.9-.3 2 .2 2.5.4.4.9-.4 1-1.7.2-2.9-.3-3.2-1.2-.8m-206.7 5c-1.3 1.6-1.2 1.7.4.4.9-.7 1.7-1.5 1.7-1.7 0-.8-.8-.3-2.1 1.3M759 877c-.8.5-1.2 1.2-.9 1.5.4.3 1.2-.1 1.9-1 1.4-1.7 1.1-1.9-1-.5m324 2.5c1.3 1.4 2.6 2.5 2.8 2.5.3 0-.5-1.1-1.8-2.5s-2.6-2.5-2.8-2.5c-.3 0 .5 1.1 1.8 2.5m-66.9.1c0 1.1.3 1.4.6.6.3-.7.2-1.6-.1-1.9-.3-.4-.6.2-.5 1.3m-264.1 3c-5.7 4.5-7.2 6-4.5 4.6 2.1-1.1 10.4-8.1 9.5-8.1-.3 0-2.5 1.6-5 3.5m77.1 4.1c-10 19.9-27.8 51.1-37.2 65-2.7 3.9-4.5 7.4-4 7.8 1.9 1.1 24.7-34.7 23.5-36.7-.4-.7-.2-.8.4-.4 1.1.7 22.9-42.1 21.9-43.1-.3-.3-2.4 3.1-4.6 7.4m240.9-6.3c0 1.5 3.2 7.6 4 7.6.6 0 .1-1.8-1-4-1.8-3.4-3-4.9-3-3.6m-293.3 5.5c-3.2 4.4-3.7 6.1-1.7 6.1.4 0 2.4-2.5 4.4-5.5 4.6-7 2.3-7.6-2.7-.6m236.9.6c-.9 2.6-.7 3.2.5 1.2.6-1 .9-2.1.6-2.3-.2-.3-.7.2-1.1 1.1m94.4-1.2c0 .3 2.1 2.2 4.8 4.3 2.6 2.1 3.8 2.8 2.7 1.5-2.1-2.4-7.5-6.6-7.5-5.8m-310.1 5.4c-1.3 1.6-1.2 1.7.4.4.9-.7 1.7-1.5 1.7-1.7 0-.8-.8-.3-2.1 1.3m276.9-1c.6.2 1 .9.6 1.4-.3.5 0 .9.6.9s.9.3.6.8c-.6 1 1.6 4.6 3.1 4.9.6.1 0-1.8-1.4-4.2-1.3-2.5-3-4.5-3.6-4.4-.8 0-.8.2.1.6m65.9 11c12.6 13.6 22.7 22.9 25.5 23.6 2.7.7-11-12.5-15.5-14.9-1.5-.8-2.5-1.9-2.2-2.4.3-.4-2.8-3.9-6.9-7.6-4.2-3.6-7.4-7.1-7.3-7.6.1-.6-.6-1.2-1.6-1.3-1-.2 2.5 4.3 8 10.2m-421.2-2.5-5 5.3 5.3-5c4.8-4.6 5.7-5.5 4.9-5.5-.1 0-2.5 2.4-5.2 5.2m75.4-3.5c-2.9 3.5-4.1 5.3-3.6 5.3.2 0 1.7-1.6 3.1-3.5 2.8-3.6 3.1-4.9.5-1.8m215.2 1c-1 2.6-1 2.7.4.9.8-1.1 1.5-2.3 1.5-2.8 0-1.5-.7-.8-1.9 1.9m-238.4-.9c-2.2.9-18.8 22.3-18.1 23.4.3.5 0 .7-.8.6-.7-.2-1.3.6-1.3 1.7-.1 1.1-.7 1.9-1.4 1.7-.7-.1-.9.2-.6.8 1 1.7 3.5-1 13.7-14.5 5-6.6 9.6-12.6 10.1-13.3 1-1.3 1-1.4-1.6-.4m344.3-.4c0 .2.8 1 1.8 1.7 1.5 1.3 1.6 1.2.3-.4s-2.1-2.1-2.1-1.3m-105.5 4.6c-.4.6-1 .8-1.4.6-1-.6-3.1 6.1-2.5 7.8.2.6-.2 3.1-1 5.4s-1.1 4.2-.6 4.2c.8 0 2.4-4.3 6-16.3.9-2.7.6-3.5-.5-1.7m365 1c1.1.5 2.7.9 3.5.9.9 0 .8-.4-.5-.9-1.1-.5-2.7-.9-3.5-.9-.9 0-.8.4.5.9m-294.9 2.2c.3.5 1 .6 1.5.3 1.3-.9 1.1-1.2-.6-1.2-.8 0-1.2.4-.9.9m-294.9 4.5c-3.9 5.5-5 7.3-4.4 7.3.2 0 2.3-2.7 4.6-6s4-6 3.7-6c-.2 0-2 2.1-3.9 4.7m340.8-.7c.9 1.6 1.8 3 2.1 3 .2 0-.2-1.4-1.1-3-.9-1.7-1.8-3-2.1-3-.2 0 .2 1.3 1.1 3m262.3-2.3c.7.3 1.6.2 1.9-.1.4-.3-.2-.6-1.3-.5-1.1 0-1.4.3-.6.6m-679.9 4-3.4 3.8 3.8-3.4c3.4-3.3 4.2-4.1 3.4-4.1-.2 0-1.9 1.7-3.8 3.7m683.9-3c.7.3 1.6.2 1.9-.1.4-.3-.2-.6-1.3-.5-1.1 0-1.4.3-.6.6m-262.8 5.1c0 1 15.7 20.2 16.6 20.2.8 0-.6-2-6.9-9.8-3.3-3.9-6.4-7.2-6.9-7.2s-.7-.4-.4-.9-.1-1.4-.9-2.1c-.9-.7-1.5-.8-1.5-.2m-20 .6c0 .2.8 1 1.8 1.7 1.5 1.3 1.6 1.2.3-.4s-2.1-2.1-2.1-1.3m-409.1 4.3-2.4 2.8 2.8-2.4c1.5-1.4 2.7-2.6 2.7-2.8 0-.8-.8-.1-3.1 2.4m415.6 3.3c1 1.1 2 2 2.3 2s-.3-.9-1.3-2-2-2-2.3-2 .3.9 1.3 2m-23.8 1.7c.5 1.2.3 1.4-.8.8-.8-.5-1.1-.4-.6 0 .4.5 1.4 1 2.2 1.1 1.2.2 1.2-.2.5-1.7-1.3-2.3-2.2-2.5-1.3-.2M776 921c-.6 1.1-.8 2-.6 2 .3 0 1-.9 1.6-2s.8-2 .6-2c-.3 0-1 .9-1.6 2m219.6 6.9c-.4.5-2 5.2-3.6 10.3-2.7 8.5-3.1 12.8-1.1 12.8 1.2 0 3.3-7.9 2.5-9.2-.4-.7-.3-.8.4-.4 1.5.9 1.5.5.2-2.9-.5-1.4-.6-2.4-.2-2.1.9.5 3.7-8.2 2.9-9-.3-.3-.8-.1-1.1.5m104.8 6.9c.4.3 1.4.7 2.2.8.9.1 1.3 0 1-.4-.4-.3-1.4-.7-2.2-.8-.9-.1-1.3 0-1 .4m-98.2 5.7c0 1.6.2 2.2.5 1.2.2-.9.2-2.3 0-3-.3-.6-.5.1-.5 1.8m102.4.7c.3.5 1 .6 1.5.3 1.3-.9 1.1-1.2-.6-1.2-.8 0-1.2.4-.9.9m1.8 2.6c.4.3 1.4.7 2.2.8.9.1 1.3 0 1-.4-.4-.3-1.4-.7-2.2-.8-.9-.1-1.3 0-1 .4m2 3c.4.3 1.4.7 2.2.8.9.1 1.3 0 1-.4-.4-.3-1.4-.7-2.2-.8-.9-.1-1.3 0-1 .4m2 3c.4.3 1.4.7 2.2.8.9.1 1.3 0 1-.4-.4-.3-1.4-.7-2.2-.8-.9-.1-1.3 0-1 .4m-122.9 2.1c-.6 2.1.3 5.1 1.6 5.1.5 0 .9-.7.9-1.5s-.4-1.5-.9-1.5-.7-.9-.4-2c.7-2.5-.4-2.6-1.2-.1m125.1 1.3c.3.5.9.7 1.2.4s1.2 0 2.1.6c1.3 1 1.4 1 .4-.2-1.5-1.6-4.6-2.3-3.7-.8m6.9 8.7c10.5 13.2 11.7 13.8 3.3 1.5-2.6-3.9-5.5-7.1-6.2-7.1-.9 0 .2 2.2 2.9 5.6m-134.4.8c-1.6 8.1-1.4 9.3.9 5.8 2-3 2.7-6.1 1.2-5.1-.4.2-.6-1.1-.4-3 .7-5.4-.4-4-1.7 2.3m-86.8 8.3c0 3 .2 4.3.4 2.7.2-1.5.2-3.9 0-5.5-.2-1.5-.4-.2-.4 2.8m-1.1 9.5c0 1.6.2 2.2.5 1.2.2-.9.2-2.3 0-3-.3-.6-.5.1-.5 1.8m84.4 8.1c-.4 1.4-.5 2.8-.3 3.1.3.2.8-.8 1.1-2.3.4-1.4.5-2.8.3-3.1-.3-.2-.8.8-1.1 2.3m-4.4 15.8c-.6 3.3-1.2 7.1-1.1 8.5s.7-.3 1.5-3.9 1.3-7.4 1.2-8.5c-.2-1.1-.9.7-1.6 3.9m-64.1.2c0 1.1.3 1.4.6.6.3-.7.2-1.6-.1-1.9-.3-.4-.6.2-.5 1.3" /></g><path fill="#d48000" d="M1347.4 375.4c1.3 2.1 1.3 2.5.1 2.8-1 .2-1.2.7-.5 1.8.8 1.2 1.2 1.2 1.8.3.5-.9 2 .6 4.6 4.7 2.1 3.3 4 6 4.3 6 .5 0 .2-.6-6-10.3-2.7-4.2-5.1-7.7-5.4-7.7s.2 1.1 1.1 2.4m-3.8 3.1c5.3 8.7 9.7 15.5 10 15.5s0-.9-.6-2-.8-2.5-.5-3c.4-.6.1-.9-.5-.8-.7.2-1.9-1.1-2.8-2.7-1-1.7-3-4.6-4.6-6.5-2.6-3.1-2.7-3.2-1-.5M1360 396c.6 1.1 1.3 2 1.6 2 .2 0 0-.9-.6-2s-1.3-2-1.6-2c-.2 0 0 .9.6 2m-5 1c.6 1.1 1.3 2 1.6 2 .2 0 0-.9-.6-2s-1.3-2-1.6-2c-.2 0 0 .9.6 2m6 10.4c0 1.1 4.2 8 5.2 8.4.4.2.8 1.1.8 2s1 3.3 2.2 5.2 2.3 4.1 2.4 4.7c.1.7.9 2 1.8 2.9.9.8 1.4 2 1.1 2.5-.4.5-.1.9.4.9.6 0 1.1 1.1 1.1 2.5s.4 2.5.9 2.5c.8 0 2.4 3.2 2.6 5.2 0 .4.5 1.2 1.2 1.9 1 1 1.5.9 2.7 0 1.2-1 1.8-.7 3.1 1.6.9 1.5 1.3 1.9 1 .8-.4-1.1-1-2.8-1.2-3.8-.3-.9-1-1.7-1.5-1.7s-.6-.5-.3-1c.3-.6.1-1-.5-1s-.8-.5-.5-1c.3-.6-.1-1-.9-1s-1.8-.5-2.2-1.2c-.5-.7-.2-.9.9-.5s1.4.2 1-.8c-.3-.8-.9-1.3-1.3-1s-1.1-.2-1.4-1.1c-.3-.8-.2-1.2.4-.9.5.3.7-.1.4-.9s-1.1-1.3-1.9-1c-.7.3-1.5-.2-1.9-1.2-.5-1.2-.2-1.5 1.1-1 1.5.6 1.5.4-.2-1.4-1-1.1-1.4-2-1-2s0-.9-1-2-1.4-2-1-2c.5 0-.1-1-1.2-2.3-1.1-1.2-2.6-3.7-3.3-5.4-.7-2-1.7-3-2.4-2.6-.6.4-.4-.2.4-1.2 1.4-1.7 1.3-1.8-.3-1.2-1 .4-2.1.7-2.3.7-.3 0-.2.4.1 1 .3.5.2 1-.2 1-.5 0-1.6-1.2-2.5-2.8-1-1.5-1.8-2.3-1.8-1.8m21.1 42.6c1.4 3.1 1.9 3.6 1.9 2.4 0-.6-.7-1.9-1.6-3-1.4-1.8-1.4-1.8-.3.6m5.9 1.9c0 .6.4 1.3 1 1.6s.7-.1.4-.9c-.7-1.8-1.4-2.1-1.4-.7m-.8 10.3c1.7 4 3.5 7.7 4 8.3.5.5.2-.8-.7-3s-2.4-5.9-3.3-8.3c-.9-2.3-1.9-4.2-2.3-4.2s.6 3.3 2.3 7.2m3.4-4.9c.3 1 .9 1.5 1.2 1.2s0-1.1-.7-1.8c-1-.9-1.1-.8-.5.6m-.1 3.8c-.4.6-.4 1.3-.1 1.6.3.4.6 0 .6-.7q0-1.35 1.5.6c1.5 2 1.9 1.6.9-1-.7-1.8-2-2.1-2.9-.5m5.1 23.2c.9 2.7 1.8 4.6 2 4.4.5-.5-1.6-6.9-2.7-8.2-.5-.5-.2 1.2.7 3.8m6.5 4.2c0 1.1.4 2.7.9 3.5.9 1.3 1 1.3.9 0 0-.8-.4-2.4-.9-3.5l-.9-2zm-4.1 3c0 .5.5 1.7 1 2.5s1 1 1 .5c0-.6-.5-1.7-1-2.5s-1-1.1-1-.5m7.1 22.1c0 1.1.3 1.4.6.6.3-.7.2-1.6-.1-1.9-.3-.4-.6.2-.5 1.3m2 7c0 1.1.3 1.4.6.6.3-.7.2-1.6-.1-1.9-.3-.4-.6.2-.5 1.3m7 31c0 1.1.3 1.4.6.6.3-.7.2-1.6-.1-1.9-.3-.4-.6.2-.5 1.3m6 8c0 1.1.3 1.4.6.6.3-.7.2-1.6-.1-1.9-.3-.4-.6.2-.5 1.3m-3.9 2.4c0 1.4.2 1.9.5 1.2.2-.6.2-1.8 0-2.5-.3-.6-.5-.1-.5 1.3m.9 6.6c0 1.1.3 1.4.6.6.3-.7.2-1.6-.1-1.9-.3-.4-.6.2-.5 1.3m5.1 50.9c0 1.6.2 2.2.5 1.2.2-.9.2-2.3 0-3-.3-.6-.5.1-.5 1.8m-193.4 46.2c.7.3 1.6.2 1.9-.1.4-.3-.2-.6-1.3-.5-1.1 0-1.4.3-.6.6m4.5 1c.9.2 2.3.2 3 0 .6-.3-.1-.5-1.8-.5-1.6 0-2.2.2-1.2.5m12.5 2c.7.3 1.6.2 1.9-.1.4-.3-.2-.6-1.3-.5-1.1 0-1.4.3-.6.6m6 1c.7.3 1.6.2 1.9-.1.4-.3-.2-.6-1.3-.5-1.1 0-1.4.3-.6.6m-2 84c.7.3 1.6.2 1.9-.1.4-.3-.2-.6-1.3-.5-1.1 0-1.4.3-.6.6m26.7 9.3c1.1.5 2.7.9 3.5.9.9 0 .8-.4-.5-.9-1.1-.5-2.7-.9-3.5-.9-.9 0-.8.4.5.9m28.5 7.4c0 .2.7.7 1.6 1 .8.3 1.2.2.9-.4-.6-1-2.5-1.4-2.5-.6m19 4.5c.8.5 4 1.1 7 1.5 4.2.4 4.6.3 2-.3-6.4-1.6-10.6-2.1-9-1.2m14.3 2.8c.9.2 2.5.2 3.5 0 .9-.3.1-.5-1.8-.5s-2.7.2-1.7.5m7 1c.9.2 2.3.2 3 0 .6-.3-.1-.5-1.8-.5-1.6 0-2.2.2-1.2.5m7.5 1c.6.2 1.8.2 2.5 0 .6-.3.1-.5-1.3-.5s-1.9.2-1.2.5m-234.2 49.1c-.3.5.1.9.9.9s1.2-.4.9-.9c-.3-.4-.7-.8-.9-.8s-.6.4-.9.8m3.4 4.6c0 .3.9 1 2 1.6s2 .8 2 .6c0-.3-.9-1-2-1.6s-2-.8-2-.6m8 7.1c0 .8 4.2 4.8 11.1 10.5 7.5 6.4 5.8 4.2-3.1-3.9-4.4-4-8-6.9-8-6.6m-32.6 4c.8 1.6 3.4 5.8 5.8 9.1 2.4 3.4 6.2 8.9 8.6 12.3 2.3 3.3 4.7 6.1 5.3 6.1s.8.4.4.9c-.3.5.5 1.8 1.8 2.8s2.4 2.2 2.4 2.6c.2 1.6 1 1.7 1 .1 0-.9-1.1-2.3-2.4-3.1-1.2-.8-2.1-1.9-1.8-2.3.3-.5-.5-1.6-1.7-2.5-1.3-.8-2.1-1.8-2-2.1.4-.5-7-11.3-9.8-14.3-.8-.9-2.1-2.8-2.8-4.2-.8-1.4-2.5-3.9-3.8-5.5l-2.5-2.9zm30.2 5.3c1.7 1.6 13.4 9.2 14 9.2s-6.7-5.6-10.8-8.3c-2.8-1.7-4.9-2.4-3.2-.9m-249.5 1.8c0 1.1.3 1.4.6.6.3-.7.2-1.6-.1-1.9-.3-.4-.6.2-.5 1.3m270.4 11.9c1.1.9 2.9 2.1 4 2.6l2 1-2-1.6c-1.1-.9-2.9-2.1-4-2.6l-2-1zM880 867.9c0 1.1.4 2.2.9 2.5.4.3.6-.6.3-1.9-.5-3-1.2-3.3-1.2-.6m1 5c0 .5.5 1.3 1 1.6.6.3 1 .2 1-.4 0-.5-.4-1.3-1-1.6-.5-.3-1-.2-1 .4m219 2.7c0 .5 2.6 3.4 5.7 6.4l5.7 5.5-5.4-6c-2.9-3.3-5.5-6.2-5.7-6.4s-.3 0-.3.5m25 6.2c0 .7 3.3 4.5 7.3 8.5 8.1 8.2 8.4 8.4 2.2 1.2-2.3-2.8-5.4-6.4-6.9-8-1.4-1.7-2.6-2.4-2.6-1.7m-6.4 14.7c8.1 9.7 7.9 9.5 6.6 7-.6-1.1-3.8-4.9-7.2-8.5l-6.1-6.5zm-346-4c-.9 1.4-1.2 2.5-.7 2.5 1.1 0 2.4-1.9 2.7-3.8.3-1.8-.2-1.5-2 1.3M1079 898c0 .5.5 1 1.1 1 .5 0 .7-.5.4-1-.3-.6-.8-1-1.1-1-.2 0-.4.4-.4 1m22 2.4c0 .2.8 1 1.8 1.7 1.5 1.3 1.6 1.2.3-.4s-2.1-2.1-2.1-1.3m-19 1.9c0 3 29 49 34.2 54.2 1.1 1.1 1.7 1.3 1.2.5-.9-1.5-15.9-24.3-21.4-32.5-1.5-2.2-3.5-5.5-4.4-7.3-2.4-4.7-9.6-15.8-9.6-14.9m-188 3.4c0 .4.5 1.5 1 2.3.8 1.3 1 1.3 1-.2 0-.9-.4-2-1-2.3-.5-.3-1-.3-1 .2m-2 1.6c0 .5 3 9.7 4.2 12.9.6 1.6 1.4 2.8 1.8 2.8.7 0-2.2-9.6-3.4-10.7-.3-.3-.6-1.4-.6-2.4s-.4-2.1-1-2.4c-.5-.3-1-.4-1-.2m236.6 1c.3 1 .9 1.5 1.2 1.2s0-1.1-.7-1.8c-1-.9-1.1-.8-.5.6m19.4-.8c0 .2 1 1 2.3 1.6 2 1.1 2.1 1.1.8-.4-1.3-1.6-3.1-2.3-3.1-1.2M898.5 925c.3.5.8 1 1.1 1 .2 0 .4-.5.4-1 0-.6-.5-1-1.1-1-.5 0-.7.4-.4 1m1.5 2.5c0 .5.5 1.7 1 2.5s1 1 1 .5c0-.6-.5-1.7-1-2.5s-1-1.1-1-.5" /><path fill="#d4aa00" d="M1370.5 415c1.4 2.7 2.8 5 3 5 .3 0-.6-2.3-2-5-1.4-2.8-2.8-5-3-5-.3 0 .6 2.2 2 5m2.5 15.9c0 .6.4 1.3 1 1.6s.7-.1.4-.9c-.7-1.8-1.4-2.1-1.4-.7m5 11c0 .6.4 1.3 1 1.6s.7-.1.4-.9c-.7-1.8-1.4-2.1-1.4-.7m-261 430.5c0 .2.8 1 1.8 1.7 1.5 1.3 1.6 1.2.3-.4s-2.1-2.1-2.1-1.3m5.5 6.9c1 1.5 2 2.5 2.3 2.2s-.5-1.6-1.7-2.8l-2.3-2.2z" /></svg>